<svg width="14" height="8" viewBox="0 0 14 8" fill="none" xmlns="http://www.w3.org/2000/svg">
<path d="M1.00012 0.674995C1.08383 0.584702 1.18451 0.511784 1.2964 0.460403C1.4083 0.409023 1.52922 0.380188 1.65226 0.375545C1.7753 0.370902 1.89805 0.390542 2.0135 0.433343C2.12895 0.476144 2.23484 0.541268 2.32512 0.624996L7.00012 5.03375L11.6751 0.624996C11.7654 0.541278 11.8713 0.476163 11.9867 0.433368C12.1022 0.390573 12.2249 0.370936 12.348 0.375579C12.471 0.380222 12.5919 0.409054 12.7038 0.460428C12.8157 0.511802 12.9164 0.584712 13.0001 0.674995C13.0838 0.765279 13.149 0.871169 13.1917 0.986618C13.2345 1.10207 13.2542 1.22481 13.2495 1.34785C13.2449 1.47089 13.2161 1.59181 13.1647 1.7037C13.1133 1.8156 13.0404 1.91628 12.9501 2L7.63762 7C7.46426 7.16077 7.23655 7.25011 7.00012 7.25011C6.76368 7.25011 6.53598 7.16077 6.36262 7L1.05012 2C0.959824 1.91628 0.886905 1.81561 0.835525 1.70371C0.784145 1.59181 0.75531 1.47089 0.750667 1.34785C0.746024 1.22481 0.765664 1.10206 0.808465 0.986612C0.851266 0.871162 0.91639 0.765274 1.00012 0.674995Z" fill="#101820"/>
</svg>
