<svg width="283" height="81" viewBox="0 0 283 81" fill="none" xmlns="http://www.w3.org/2000/svg">
<path d="M239.055 27.5989H238.951L232.862 30.6686L231.767 25.8954L239.902 21.8779H245.16V55.3023H239.055V27.5989Z" fill="white"/>
<path d="M268.927 43.2558C268.55 43.3488 268.168 43.4302 267.791 43.4942C267.408 43.5581 267.014 43.5872 266.602 43.5872C265.019 43.5872 263.576 43.3023 262.283 42.7325C260.984 42.1628 259.876 41.3837 258.96 40.4011C258.038 39.4186 257.331 38.25 256.826 36.9011C256.322 35.5523 256.067 34.1163 256.067 32.593C256.067 30.8488 256.392 29.2674 257.041 27.8546C257.69 26.4418 258.578 25.2267 259.697 24.2151C260.821 23.1977 262.143 22.4128 263.663 21.8604C265.182 21.3081 266.828 21.0291 268.603 21.0291C270.377 21.0291 271.983 21.3081 273.52 21.8604C275.056 22.4128 276.384 23.2035 277.509 24.2151C278.634 25.2325 279.521 26.4418 280.164 27.8546C280.814 29.2674 281.138 30.8488 281.138 32.593C281.138 33.7965 281.028 34.9011 280.808 35.9011C280.588 36.9011 280.292 37.843 279.927 38.7325C279.561 39.6221 279.138 40.4709 278.645 41.2791C278.152 42.0872 277.642 42.9186 277.103 43.7791L269.745 55.3023H261.059L268.939 43.2616L268.927 43.2558ZM263.181 32.8779C263.181 34.4011 263.68 35.6628 264.677 36.6628C265.675 37.6628 266.979 38.1628 268.597 38.1628C270.215 38.1628 271.513 37.6628 272.516 36.6628C273.514 35.6628 274.012 34.4011 274.012 32.8779C274.012 31.3546 273.514 30.093 272.516 29.093C271.519 28.093 270.215 27.593 268.597 27.593C266.979 27.593 265.68 28.093 264.677 29.093C263.68 30.093 263.181 31.3546 263.181 32.8779Z" fill="white"/>
<path d="M103.568 38.6454C103.568 47.593 96.2275 54.6802 86.9852 54.6802C77.7428 54.6802 70.3558 47.593 70.3558 38.6454C70.3558 29.6977 77.6964 22.657 86.9852 22.657C96.2739 22.657 103.568 29.6977 103.568 38.6454ZM74.0261 38.6454C74.0261 45.6861 79.9171 51.3663 86.9793 51.3663C94.0416 51.3663 99.8456 45.6861 99.8456 38.6454C99.8456 31.6047 94.0474 26.0174 86.9793 26.0174C79.9113 26.0174 74.0261 31.6047 74.0261 38.6454Z" fill="white"/>
<path d="M140.897 54.5407L134.235 44.3662C133.603 44.4127 132.919 44.4593 132.194 44.4593H123.769V54.5465H120.145V22.7441H132.194C140.12 22.7441 144.695 26.6511 144.695 33.4186C144.695 38.6453 142.115 42.2325 137.534 43.686L145.008 54.5465H140.886L140.897 54.5407ZM132.2 41.093C137.952 41.093 141.216 38.5058 141.216 33.5058C141.216 28.5058 137.952 26.0988 132.2 26.0988H123.775V41.0872H132.2V41.093Z" fill="white"/>
<path d="M182.435 22.7441V26.1046H172.062V54.5407H168.438V26.1046H158.112V22.7441H182.435Z" fill="white"/>
<path d="M220.083 22.7441V26.1046H202.189V36.779H218.181V40.0988H202.189V51.1802H220.674V54.5407H198.566V22.7441H220.083Z" fill="white"/>
<path d="M26.9154 0H0V58.8837H26.9154V0Z" fill="white"/>
<path d="M40.8656 58.808H59.3387V44.1104L40.8656 26.6104V58.808Z" fill="white"/>
<path d="M59.3391 25.8953V0.0231934H32.1628L59.3391 25.8953Z" fill="white"/>
<path d="M78.6588 70.9477C79.4706 71.6221 79.8707 72.5581 79.8707 73.7442C79.8707 74.9302 79.4648 75.8605 78.6588 76.5407C77.8471 77.2151 76.7396 77.5581 75.3249 77.5581H72.6287V80.8663H71.069V69.936H75.3191C76.728 69.936 77.8413 70.2732 78.6531 70.9535L78.6588 70.9477ZM77.5398 75.5639C78.0616 75.1395 78.3168 74.5349 78.3168 73.7442C78.3168 72.9535 78.0558 72.3488 77.5398 71.9244C77.0179 71.5058 76.27 71.2907 75.2843 71.2907H72.6403V76.1918H75.2843C76.27 76.1918 77.0237 75.9825 77.5398 75.5581V75.5639Z" fill="white"/>
<path d="M89.4494 80.8604L87.1011 77.5058C86.8112 77.529 86.5793 77.5348 86.4169 77.5348H83.7207V80.8604H82.161V69.9302H86.4111C87.8201 69.9302 88.9333 70.2674 89.7451 70.9476C90.5568 71.622 90.9569 72.5581 90.9569 73.7441C90.9569 74.5872 90.7482 75.3081 90.3365 75.9011C89.9248 76.4941 89.3276 76.9244 88.5623 77.1976L91.1483 80.8662H89.4494V80.8604ZM88.626 75.5697C89.1479 75.1453 89.403 74.5348 89.403 73.7441C89.403 72.9534 89.1421 72.3488 88.626 71.9244C88.1042 71.5058 87.3562 71.2906 86.3705 71.2906H83.7265V76.2092H86.3705C87.3562 76.2092 88.11 75.9941 88.626 75.5697Z" fill="white"/>
<path d="M95.4273 80.2616C94.546 79.7791 93.8502 79.1105 93.3515 78.2558C92.8529 77.4012 92.5978 76.4477 92.5978 75.4012C92.5978 74.3547 92.8471 73.3954 93.3515 72.5465C93.856 71.6919 94.546 71.0233 95.4273 70.5407C96.3086 70.0582 97.3001 69.814 98.4018 69.814C99.5035 69.814 100.478 70.0582 101.359 70.5407C102.24 71.0233 102.93 71.6919 103.429 72.5407C103.928 73.3895 104.177 74.343 104.177 75.407C104.177 76.4709 103.928 77.4244 103.429 78.2733C102.93 79.1221 102.24 79.7849 101.359 80.2733C100.478 80.7558 99.4919 81 98.4018 81C97.3117 81 96.3086 80.7558 95.4273 80.2733V80.2616ZM100.559 79.0523C101.197 78.6861 101.701 78.1861 102.072 77.5465C102.437 76.907 102.623 76.1919 102.623 75.4012C102.623 74.6105 102.437 73.8954 102.072 73.2558C101.701 72.6163 101.202 72.1163 100.559 71.75C99.9209 71.3837 99.202 71.2035 98.4018 71.2035C97.6017 71.2035 96.8769 71.3837 96.2275 71.75C95.5781 72.1163 95.0678 72.6163 94.7025 73.2558C94.3315 73.8954 94.1517 74.6105 94.1517 75.4012C94.1517 76.1919 94.3372 76.907 94.7025 77.5465C95.0678 78.1861 95.5781 78.6861 96.2275 79.0523C96.8769 79.4186 97.6017 79.5989 98.4018 79.5989C99.202 79.5989 99.9209 79.4186 100.559 79.0523Z" fill="white"/>
<path d="M116.666 80.8604L116.649 72.9011L112.712 79.5348H111.999L108.062 72.9476V80.8604H106.566V69.9302H107.841L112.387 77.6104L116.869 69.9302H118.145L118.162 80.8604H116.666Z" fill="white"/>
<path d="M123.375 80.2616C122.493 79.7791 121.798 79.1105 121.299 78.2558C120.8 77.4012 120.545 76.4477 120.545 75.4012C120.545 74.3547 120.794 73.3954 121.299 72.5465C121.803 71.6919 122.493 71.0233 123.375 70.5407C124.256 70.0582 125.248 69.814 126.349 69.814C127.451 69.814 128.425 70.0582 129.306 70.5407C130.188 71.0233 130.878 71.6919 131.376 72.5407C131.875 73.3895 132.124 74.343 132.124 75.407C132.124 76.4709 131.875 77.4244 131.376 78.2733C130.878 79.1221 130.188 79.7849 129.306 80.2733C128.425 80.7558 127.439 81 126.349 81C125.259 81 124.256 80.7558 123.375 80.2733V80.2616ZM128.506 79.0523C129.144 78.6861 129.648 78.1861 130.019 77.5465C130.385 76.907 130.57 76.1919 130.57 75.4012C130.57 74.6105 130.385 73.8954 130.019 73.2558C129.648 72.6163 129.15 72.1163 128.506 71.75C127.868 71.3837 127.149 71.2035 126.349 71.2035C125.549 71.2035 124.824 71.3837 124.175 71.75C123.525 72.1163 123.015 72.6163 122.65 73.2558C122.279 73.8954 122.099 74.6105 122.099 75.4012C122.099 76.1919 122.285 76.907 122.65 77.5465C123.015 78.1861 123.525 78.6861 124.175 79.0523C124.824 79.4186 125.549 79.5989 126.349 79.5989C127.149 79.5989 127.868 79.4186 128.506 79.0523Z" fill="white"/>
<path d="M136.514 71.2906H132.78V69.9302H141.796V71.2906H138.056V80.8604H136.514V71.2906Z" fill="white"/>
<path d="M145.28 80.2616C144.399 79.7791 143.703 79.1105 143.205 78.2558C142.706 77.4012 142.451 76.4477 142.451 75.4012C142.451 74.3547 142.7 73.3954 143.205 72.5465C143.709 71.6919 144.399 71.0233 145.28 70.5407C146.162 70.0582 147.153 69.814 148.255 69.814C149.357 69.814 150.331 70.0582 151.212 70.5407C152.093 71.0233 152.783 71.6919 153.282 72.5407C153.781 73.3895 154.03 74.343 154.03 75.407C154.03 76.4709 153.781 77.4244 153.282 78.2733C152.783 79.1221 152.093 79.7849 151.212 80.2733C150.331 80.7558 149.345 81 148.255 81C147.165 81 146.162 80.7558 145.28 80.2733V80.2616ZM150.412 79.0523C151.05 78.6861 151.554 78.1861 151.925 77.5465C152.291 76.907 152.476 76.1919 152.476 75.4012C152.476 74.6105 152.291 73.8954 151.925 73.2558C151.554 72.6163 151.055 72.1163 150.412 71.75C149.774 71.3837 149.055 71.2035 148.255 71.2035C147.455 71.2035 146.73 71.3837 146.081 71.75C145.431 72.1163 144.921 72.6163 144.556 73.2558C144.185 73.8954 144.005 74.6105 144.005 75.4012C144.005 76.1919 144.19 76.907 144.556 77.5465C144.921 78.1861 145.431 78.6861 146.081 79.0523C146.73 79.4186 147.455 79.5989 148.255 79.5989C149.055 79.5989 149.774 79.4186 150.412 79.0523Z" fill="white"/>
<path d="M163.701 80.8604L161.353 77.5058C161.063 77.529 160.831 77.5348 160.669 77.5348H157.973V80.8604H156.413V69.9302H160.663C162.072 69.9302 163.185 70.2674 163.997 70.9476C164.809 71.622 165.209 72.5581 165.209 73.7441C165.209 74.5872 165 75.3081 164.589 75.9011C164.177 76.4941 163.58 76.9244 162.814 77.1976L165.4 80.8662H163.701V80.8604ZM162.872 75.5697C163.394 75.1453 163.649 74.5348 163.649 73.7441C163.649 72.9534 163.388 72.3488 162.872 71.9244C162.35 71.5058 161.602 71.2906 160.617 71.2906H157.973V76.2092H160.617C161.602 76.2092 162.356 75.9941 162.872 75.5697Z" fill="white"/>
<path d="M174.677 78.1278H168.885L167.685 80.8604H166.079L171.013 69.9302H172.555L177.507 80.8604H175.872L174.672 78.1278H174.677ZM174.132 76.8778L171.784 71.5232L169.436 76.8778H174.138H174.132Z" fill="white"/>
<path d="M183.317 69.9302H187.909C189.063 69.9302 190.083 70.1569 190.976 70.6162C191.869 71.0755 192.559 71.7151 193.052 72.5465C193.545 73.3779 193.794 74.3255 193.794 75.3953C193.794 76.4651 193.551 77.4185 193.052 78.2441C192.559 79.0697 191.869 79.7151 190.976 80.1744C190.083 80.6337 189.063 80.8604 187.909 80.8604H183.317V69.9302ZM187.816 79.5058C188.698 79.5058 189.474 79.3313 190.141 78.9883C190.814 78.6453 191.33 78.1627 191.689 77.5465C192.055 76.9302 192.234 76.2092 192.234 75.4011C192.234 74.593 192.055 73.872 191.689 73.2558C191.324 72.6395 190.808 72.1569 190.141 71.8139C189.474 71.4709 188.698 71.2964 187.816 71.2964H184.871V79.5058H187.816Z" fill="white"/>
<path d="M204.086 79.5058V80.8663H196.177V69.936H203.871V71.2965H197.737V74.6512H203.199V75.9767H197.737V79.5058H204.092H204.086Z" fill="white"/>
<path d="M220.17 69.9302V80.8604H218.616V75.9883H212.36V80.8604H210.8V69.9302H212.36V74.6279H218.616V69.9302H220.17Z" fill="white"/>
<path d="M225.389 80.2616C224.507 79.7791 223.812 79.1105 223.313 78.2558C222.814 77.4012 222.559 76.4477 222.559 75.4012C222.559 74.3547 222.809 73.3954 223.313 72.5465C223.817 71.6919 224.507 71.0233 225.389 70.5407C226.27 70.0582 227.262 69.814 228.363 69.814C229.465 69.814 230.439 70.0582 231.32 70.5407C232.202 71.0233 232.892 71.6919 233.39 72.5407C233.889 73.3895 234.138 74.343 234.138 75.407C234.138 76.4709 233.889 77.4244 233.39 78.2733C232.892 79.1221 232.202 79.7849 231.32 80.2733C230.439 80.7558 229.453 81 228.363 81C227.273 81 226.27 80.7558 225.389 80.2733V80.2616ZM230.514 79.0523C231.152 78.6861 231.657 78.1861 232.028 77.5465C232.393 76.907 232.579 76.1919 232.579 75.4012C232.579 74.6105 232.393 73.8954 232.028 73.2558C231.657 72.6163 231.158 72.1163 230.514 71.75C229.877 71.3837 229.158 71.2035 228.357 71.2035C227.557 71.2035 226.832 71.3837 226.183 71.75C225.534 72.1163 225.023 72.6163 224.658 73.2558C224.287 73.8954 224.107 74.6105 224.107 75.4012C224.107 76.1919 224.293 76.907 224.658 77.5465C225.023 78.1861 225.534 78.6861 226.183 79.0523C226.832 79.4186 227.557 79.5989 228.357 79.5989C229.158 79.5989 229.877 79.4186 230.514 79.0523Z" fill="white"/>
<path d="M238.528 71.2906H234.793V69.9302H243.81V71.2906H240.07V80.8604H238.528V71.2906Z" fill="white"/>
<path d="M253.412 79.5058V80.8663H245.503V69.936H253.197V71.2965H247.063V74.6512H252.524V75.9767H247.063V79.5058H253.417H253.412Z" fill="white"/>
<path d="M255.934 69.9302H257.494V79.4999H263.396V80.8604H255.94V69.9302H255.934Z" fill="white"/>
<path d="M273.091 79.5058V80.8663H265.182V69.936H272.876V71.2965H266.742V74.6512H272.204V75.9767H266.742V79.5058H273.097H273.091Z" fill="white"/>
<path d="M276.413 80.6046C275.648 80.3488 275.051 80.0174 274.616 79.6104L275.19 78.3953C275.607 78.7674 276.135 79.0755 276.784 79.3081C277.434 79.5406 278.1 79.6569 278.785 79.6569C279.689 79.6569 280.362 79.5057 280.808 79.1976C281.255 78.8895 281.475 78.4825 281.475 77.9709C281.475 77.5988 281.353 77.2906 281.11 77.0581C280.866 76.8255 280.565 76.6453 280.205 76.5174C279.846 76.3953 279.341 76.2499 278.686 76.0929C277.863 75.8953 277.202 75.6976 276.703 75.4999C276.199 75.3022 275.77 74.9999 275.41 74.5871C275.051 74.1743 274.871 73.622 274.871 72.9243C274.871 72.3429 275.022 71.8139 275.329 71.3488C275.636 70.8836 276.1 70.5057 276.72 70.2267C277.341 69.9476 278.118 69.8022 279.04 69.8022C279.683 69.8022 280.315 69.8836 280.942 70.0522C281.562 70.2208 282.101 70.4592 282.548 70.7732L282.032 72.0232C281.574 71.7325 281.087 71.5115 280.571 71.3604C280.049 71.2092 279.544 71.1336 279.046 71.1336C278.164 71.1336 277.503 71.2964 277.063 71.6162C276.622 71.936 276.402 72.3546 276.402 72.8662C276.402 73.2383 276.523 73.5464 276.773 73.779C277.022 74.0115 277.329 74.1976 277.7 74.3255C278.071 74.4534 278.57 74.5929 279.202 74.7383C280.02 74.936 280.681 75.1336 281.179 75.3313C281.678 75.529 282.107 75.8313 282.461 76.2383C282.82 76.6453 283 77.1918 283 77.8778C283 78.4476 282.843 78.9708 282.53 79.4476C282.217 79.9243 281.748 80.2964 281.116 80.5697C280.484 80.8429 279.707 80.9825 278.779 80.9825C277.961 80.9825 277.167 80.8546 276.407 80.5988L276.413 80.6046Z" fill="white"/>
</svg>
