<svg width="355" height="354" viewBox="0 0 355 354" fill="none" xmlns="http://www.w3.org/2000/svg">
<g clip-path="url(#clip0_186_4039)">
<circle cx="177.5" cy="177" r="134" stroke="#272B67" stroke-width="47"/>
<path d="M242.487 294.187C216.379 308.665 186.184 314.01 156.692 309.375" stroke="#9497A1" stroke-width="47"/>
<path d="M199.26 311.246C201.108 311.484 202.046 312.59 202.046 314.06C202.046 315.712 200.8 317.14 198.168 317.14C196.782 317.14 195.396 316.72 194.486 316.006L195.27 314.592C195.97 315.18 197.034 315.558 198.14 315.558C199.442 315.558 200.212 314.984 200.212 314.074C200.212 313.192 199.568 312.618 198.084 312.618H197.188V311.372L199.414 308.726H194.962V307.2H201.64V308.418L199.26 311.246ZM205.283 312.478C203.883 312.478 202.945 311.4 202.945 309.79C202.945 308.18 203.883 307.102 205.283 307.102C206.683 307.102 207.635 308.166 207.635 309.79C207.635 311.414 206.683 312.478 205.283 312.478ZM204.471 317L211.163 307.2H212.535L205.843 317H204.471ZM205.283 311.498C206.039 311.498 206.487 310.882 206.487 309.79C206.487 308.698 206.039 308.082 205.283 308.082C204.555 308.082 204.079 308.712 204.079 309.79C204.079 310.868 204.555 311.498 205.283 311.498ZM211.709 317.098C210.309 317.098 209.371 316.02 209.371 314.41C209.371 312.8 210.309 311.722 211.709 311.722C213.109 311.722 214.061 312.8 214.061 314.41C214.061 316.02 213.109 317.098 211.709 317.098ZM211.709 316.118C212.451 316.118 212.913 315.488 212.913 314.41C212.913 313.332 212.451 312.702 211.709 312.702C210.967 312.702 210.505 313.318 210.505 314.41C210.505 315.502 210.967 316.118 211.709 316.118Z" fill="white"/>
<path d="M148.25 41.06C150.924 41.06 152.492 42.782 152.492 45.932C152.492 49.292 150.532 51.14 147.69 51.14C146.71 51.14 145.772 50.93 145.114 50.51L145.786 49.138C146.318 49.488 146.962 49.614 147.648 49.614C149.496 49.614 150.658 48.466 150.658 46.24V46.226C150.07 46.912 149.132 47.248 148.04 47.248C146.108 47.248 144.666 46.072 144.666 44.238C144.666 42.292 146.248 41.06 148.25 41.06ZM148.39 45.82C149.566 45.82 150.378 45.106 150.378 44.14C150.378 43.216 149.65 42.488 148.348 42.488C147.214 42.488 146.43 43.132 146.43 44.154C146.43 45.176 147.2 45.82 148.39 45.82ZM153.431 41.2H161.047V42.418L157.239 51H155.293L158.975 42.74H155.125V44.406H153.431V41.2ZM164.425 46.478C163.025 46.478 162.087 45.4 162.087 43.79C162.087 42.18 163.025 41.102 164.425 41.102C165.825 41.102 166.777 42.166 166.777 43.79C166.777 45.414 165.825 46.478 164.425 46.478ZM163.613 51L170.305 41.2H171.677L164.985 51H163.613ZM164.425 45.498C165.181 45.498 165.629 44.882 165.629 43.79C165.629 42.698 165.181 42.082 164.425 42.082C163.697 42.082 163.221 42.712 163.221 43.79C163.221 44.868 163.697 45.498 164.425 45.498ZM170.851 51.098C169.451 51.098 168.513 50.02 168.513 48.41C168.513 46.8 169.451 45.722 170.851 45.722C172.251 45.722 173.203 46.8 173.203 48.41C173.203 50.02 172.251 51.098 170.851 51.098ZM170.851 50.118C171.593 50.118 172.055 49.488 172.055 48.41C172.055 47.332 171.593 46.702 170.851 46.702C170.109 46.702 169.647 47.318 169.647 48.41C169.647 49.502 170.109 50.118 170.851 50.118Z" fill="white"/>
</g>
<defs>
<clipPath id="clip0_186_4039">
<rect width="355" height="354" fill="white"/>
</clipPath>
</defs>
</svg>
