<svg width="540" height="21" viewBox="0 0 540 21" fill="none" xmlns="http://www.w3.org/2000/svg">
<circle cx="117.5" cy="10.5" r="5" fill="#272B67"/>
<path d="M131.38 10.224H137.3V11.248H131.38V10.224ZM131.508 16H130.324V4.8H138.004V5.824H131.508V16ZM140.209 16V4.128H141.345V16H140.209ZM147.93 16.08C147.119 16.08 146.389 15.8987 145.738 15.536C145.098 15.1627 144.591 14.656 144.218 14.016C143.845 13.3653 143.658 12.624 143.658 11.792C143.658 10.9493 143.845 10.208 144.218 9.568C144.591 8.928 145.098 8.42667 145.738 8.064C146.378 7.70133 147.109 7.52 147.93 7.52C148.762 7.52 149.498 7.70133 150.138 8.064C150.789 8.42667 151.295 8.928 151.658 9.568C152.031 10.208 152.218 10.9493 152.218 11.792C152.218 12.624 152.031 13.3653 151.658 14.016C151.295 14.656 150.789 15.1627 150.138 15.536C149.487 15.8987 148.751 16.08 147.93 16.08ZM147.93 15.072C148.538 15.072 149.077 14.9387 149.546 14.672C150.015 14.3947 150.383 14.0107 150.65 13.52C150.927 13.0187 151.066 12.4427 151.066 11.792C151.066 11.1307 150.927 10.5547 150.65 10.064C150.383 9.57333 150.015 9.19467 149.546 8.928C149.077 8.65067 148.543 8.512 147.946 8.512C147.349 8.512 146.815 8.65067 146.346 8.928C145.877 9.19467 145.503 9.57333 145.226 10.064C144.949 10.5547 144.81 11.1307 144.81 11.792C144.81 12.4427 144.949 13.0187 145.226 13.52C145.503 14.0107 145.877 14.3947 146.346 14.672C146.815 14.9387 147.343 15.072 147.93 15.072ZM157.193 16.08C156.404 16.08 155.796 15.8667 155.369 15.44C154.942 15.0133 154.729 14.4107 154.729 13.632V5.744H155.865V13.568C155.865 14.0587 155.988 14.4373 156.233 14.704C156.489 14.9707 156.852 15.104 157.321 15.104C157.822 15.104 158.238 14.96 158.569 14.672L158.969 15.488C158.745 15.6907 158.473 15.84 158.153 15.936C157.844 16.032 157.524 16.08 157.193 16.08ZM153.225 8.544V7.6H158.425V8.544H153.225ZM166.301 16V14.144L166.253 13.84V10.736C166.253 10.0213 166.05 9.472 165.645 9.088C165.25 8.704 164.658 8.512 163.869 8.512C163.325 8.512 162.808 8.60267 162.317 8.784C161.826 8.96533 161.41 9.20533 161.069 9.504L160.557 8.656C160.984 8.29333 161.496 8.016 162.093 7.824C162.69 7.62133 163.32 7.52 163.981 7.52C165.069 7.52 165.906 7.792 166.493 8.336C167.09 8.86933 167.389 9.68533 167.389 10.784V16H166.301ZM163.405 16.08C162.776 16.08 162.226 15.9787 161.757 15.776C161.298 15.5627 160.946 15.2747 160.701 14.912C160.456 14.5387 160.333 14.112 160.333 13.632C160.333 13.1947 160.434 12.8 160.637 12.448C160.85 12.0853 161.192 11.7973 161.661 11.584C162.141 11.36 162.781 11.248 163.581 11.248H166.477V12.096H163.613C162.802 12.096 162.237 12.24 161.917 12.528C161.608 12.816 161.453 13.1733 161.453 13.6C161.453 14.08 161.64 14.464 162.013 14.752C162.386 15.04 162.909 15.184 163.581 15.184C164.221 15.184 164.77 15.04 165.229 14.752C165.698 14.4533 166.04 14.0267 166.253 13.472L166.509 14.256C166.296 14.8107 165.922 15.2533 165.389 15.584C164.866 15.9147 164.205 16.08 163.405 16.08ZM174.763 7.52C175.445 7.52 176.043 7.65333 176.555 7.92C177.077 8.176 177.483 8.57067 177.771 9.104C178.069 9.63733 178.219 10.3093 178.219 11.12V16H177.083V11.232C177.083 10.3467 176.859 9.68 176.411 9.232C175.973 8.77333 175.355 8.544 174.555 8.544C173.957 8.544 173.435 8.66667 172.987 8.912C172.549 9.14667 172.208 9.49333 171.963 9.952C171.728 10.4 171.611 10.944 171.611 11.584V16H170.475V7.6H171.563V9.904L171.387 9.472C171.653 8.864 172.08 8.38933 172.667 8.048C173.253 7.696 173.952 7.52 174.763 7.52ZM183.943 16.08C183.154 16.08 182.546 15.8667 182.119 15.44C181.692 15.0133 181.479 14.4107 181.479 13.632V5.744H182.615V13.568C182.615 14.0587 182.738 14.4373 182.983 14.704C183.239 14.9707 183.602 15.104 184.071 15.104C184.572 15.104 184.988 14.96 185.319 14.672L185.719 15.488C185.495 15.6907 185.223 15.84 184.903 15.936C184.594 16.032 184.274 16.08 183.943 16.08ZM179.975 8.544V7.6H185.175V8.544H179.975ZM191.058 16.08C190.184 16.08 189.416 15.8987 188.754 15.536C188.093 15.1627 187.576 14.656 187.202 14.016C186.829 13.3653 186.642 12.624 186.642 11.792C186.642 10.96 186.818 10.224 187.17 9.584C187.533 8.944 188.024 8.44267 188.642 8.08C189.272 7.70667 189.976 7.52 190.754 7.52C191.544 7.52 192.242 7.70133 192.85 8.064C193.469 8.416 193.954 8.91733 194.306 9.568C194.658 10.208 194.834 10.9493 194.834 11.792C194.834 11.8453 194.829 11.904 194.818 11.968C194.818 12.0213 194.818 12.08 194.818 12.144H187.506V11.296H194.21L193.762 11.632C193.762 11.024 193.629 10.4853 193.362 10.016C193.106 9.536 192.754 9.16267 192.306 8.896C191.858 8.62933 191.341 8.496 190.754 8.496C190.178 8.496 189.661 8.62933 189.202 8.896C188.744 9.16267 188.386 9.536 188.13 10.016C187.874 10.496 187.746 11.0453 187.746 11.664V11.84C187.746 12.48 187.885 13.0453 188.162 13.536C188.45 14.016 188.845 14.3947 189.346 14.672C189.858 14.9387 190.44 15.072 191.09 15.072C191.602 15.072 192.077 14.9813 192.514 14.8C192.962 14.6187 193.346 14.3413 193.666 13.968L194.306 14.704C193.933 15.152 193.464 15.4933 192.898 15.728C192.344 15.9627 191.73 16.08 191.058 16.08Z" fill="#888B8D"/>
<circle cx="241.5" cy="10.5" r="5" fill="#9497A1"/>
<path d="M253.324 16V4.8H254.3L259.42 13.536H258.908L263.98 4.8H264.956V16H263.82V6.576H264.092L259.42 14.576H258.86L254.156 6.576H254.46V16H253.324ZM268.365 16V7.6H269.501V16H268.365ZM268.941 5.744C268.707 5.744 268.509 5.664 268.349 5.504C268.189 5.344 268.109 5.152 268.109 4.928C268.109 4.704 268.189 4.51733 268.349 4.368C268.509 4.208 268.707 4.128 268.941 4.128C269.176 4.128 269.373 4.20267 269.533 4.352C269.693 4.50133 269.773 4.688 269.773 4.912C269.773 5.14667 269.693 5.344 269.533 5.504C269.384 5.664 269.187 5.744 268.941 5.744ZM276.23 16.08C275.355 16.08 274.587 15.8987 273.926 15.536C273.265 15.1627 272.747 14.656 272.374 14.016C272.001 13.3653 271.814 12.624 271.814 11.792C271.814 10.96 271.99 10.224 272.342 9.584C272.705 8.944 273.195 8.44267 273.814 8.08C274.443 7.70667 275.147 7.52 275.926 7.52C276.715 7.52 277.414 7.70133 278.022 8.064C278.641 8.416 279.126 8.91733 279.478 9.568C279.83 10.208 280.006 10.9493 280.006 11.792C280.006 11.8453 280.001 11.904 279.99 11.968C279.99 12.0213 279.99 12.08 279.99 12.144H272.678V11.296H279.382L278.934 11.632C278.934 11.024 278.801 10.4853 278.534 10.016C278.278 9.536 277.926 9.16267 277.478 8.896C277.03 8.62933 276.513 8.496 275.926 8.496C275.35 8.496 274.833 8.62933 274.374 8.896C273.915 9.16267 273.558 9.536 273.302 10.016C273.046 10.496 272.918 11.0453 272.918 11.664V11.84C272.918 12.48 273.057 13.0453 273.334 13.536C273.622 14.016 274.017 14.3947 274.518 14.672C275.03 14.9387 275.611 15.072 276.262 15.072C276.774 15.072 277.249 14.9813 277.686 14.8C278.134 14.6187 278.518 14.3413 278.838 13.968L279.478 14.704C279.105 15.152 278.635 15.4933 278.07 15.728C277.515 15.9627 276.902 16.08 276.23 16.08ZM292.814 7.52C293.497 7.52 294.089 7.65333 294.59 7.92C295.102 8.176 295.497 8.57067 295.774 9.104C296.062 9.63733 296.206 10.3093 296.206 11.12V16H295.07V11.232C295.07 10.3467 294.857 9.68 294.43 9.232C294.014 8.77333 293.422 8.544 292.654 8.544C292.078 8.544 291.577 8.66667 291.15 8.912C290.734 9.14667 290.409 9.49333 290.174 9.952C289.95 10.4 289.838 10.944 289.838 11.584V16H288.702V11.232C288.702 10.3467 288.489 9.68 288.062 9.232C287.636 8.77333 287.038 8.544 286.27 8.544C285.705 8.544 285.209 8.66667 284.782 8.912C284.356 9.14667 284.025 9.49333 283.79 9.952C283.566 10.4 283.454 10.944 283.454 11.584V16H282.318V7.6H283.406V9.872L283.23 9.472C283.486 8.864 283.897 8.38933 284.462 8.048C285.038 7.696 285.716 7.52 286.494 7.52C287.316 7.52 288.014 7.728 288.59 8.144C289.166 8.54933 289.54 9.16267 289.71 9.984L289.262 9.808C289.508 9.12533 289.94 8.576 290.558 8.16C291.188 7.73333 291.94 7.52 292.814 7.52ZM303.623 16.08C302.887 16.08 302.226 15.9147 301.639 15.584C301.052 15.2427 300.588 14.752 300.247 14.112C299.906 13.472 299.735 12.6987 299.735 11.792C299.735 10.8747 299.906 10.1013 300.247 9.472C300.599 8.832 301.068 8.34667 301.655 8.016C302.242 7.68533 302.898 7.52 303.623 7.52C304.423 7.52 305.138 7.70133 305.767 8.064C306.407 8.416 306.908 8.912 307.271 9.552C307.634 10.192 307.815 10.9387 307.815 11.792C307.815 12.6347 307.634 13.3813 307.271 14.032C306.908 14.672 306.407 15.1733 305.767 15.536C305.138 15.8987 304.423 16.08 303.623 16.08ZM299.287 16V4.128H300.423V10.08L300.263 11.776L300.375 13.472V16H299.287ZM303.543 15.072C304.14 15.072 304.674 14.9387 305.143 14.672C305.612 14.3947 305.986 14.0107 306.263 13.52C306.54 13.0187 306.679 12.4427 306.679 11.792C306.679 11.1307 306.54 10.5547 306.263 10.064C305.986 9.57333 305.612 9.19467 305.143 8.928C304.674 8.65067 304.14 8.512 303.543 8.512C302.946 8.512 302.407 8.65067 301.927 8.928C301.458 9.19467 301.084 9.57333 300.807 10.064C300.54 10.5547 300.407 11.1307 300.407 11.792C300.407 12.4427 300.54 13.0187 300.807 13.52C301.084 14.0107 301.458 14.3947 301.927 14.672C302.407 14.9387 302.946 15.072 303.543 15.072ZM310.131 16V7.6H311.219V9.888L311.107 9.488C311.342 8.848 311.736 8.36267 312.291 8.032C312.846 7.69067 313.534 7.52 314.355 7.52V8.624C314.312 8.624 314.27 8.624 314.227 8.624C314.184 8.61333 314.142 8.608 314.099 8.608C313.214 8.608 312.52 8.88 312.019 9.424C311.518 9.95733 311.267 10.72 311.267 11.712V16H310.131ZM319.774 16.08C318.963 16.08 318.232 15.8987 317.582 15.536C316.942 15.1627 316.435 14.656 316.062 14.016C315.688 13.3653 315.502 12.624 315.502 11.792C315.502 10.9493 315.688 10.208 316.062 9.568C316.435 8.928 316.942 8.42667 317.582 8.064C318.222 7.70133 318.952 7.52 319.774 7.52C320.606 7.52 321.342 7.70133 321.982 8.064C322.632 8.42667 323.139 8.928 323.502 9.568C323.875 10.208 324.062 10.9493 324.062 11.792C324.062 12.624 323.875 13.3653 323.502 14.016C323.139 14.656 322.632 15.1627 321.982 15.536C321.331 15.8987 320.595 16.08 319.774 16.08ZM319.774 15.072C320.382 15.072 320.92 14.9387 321.39 14.672C321.859 14.3947 322.227 14.0107 322.494 13.52C322.771 13.0187 322.91 12.4427 322.91 11.792C322.91 11.1307 322.771 10.5547 322.494 10.064C322.227 9.57333 321.859 9.19467 321.39 8.928C320.92 8.65067 320.387 8.512 319.79 8.512C319.192 8.512 318.659 8.65067 318.19 8.928C317.72 9.19467 317.347 9.57333 317.07 10.064C316.792 10.5547 316.654 11.1307 316.654 11.792C316.654 12.4427 316.792 13.0187 317.07 13.52C317.347 14.0107 317.72 14.3947 318.19 14.672C318.659 14.9387 319.187 15.072 319.774 15.072ZM328.637 16.08C327.944 16.08 327.288 15.984 326.669 15.792C326.05 15.5893 325.565 15.3387 325.213 15.04L325.725 14.144C326.066 14.4 326.504 14.624 327.037 14.816C327.57 14.9973 328.13 15.088 328.717 15.088C329.517 15.088 330.093 14.9653 330.445 14.72C330.797 14.464 330.973 14.128 330.973 13.712C330.973 13.4027 330.872 13.1627 330.669 12.992C330.477 12.8107 330.221 12.6773 329.901 12.592C329.581 12.496 329.224 12.416 328.829 12.352C328.434 12.288 328.04 12.2133 327.645 12.128C327.261 12.0427 326.909 11.92 326.589 11.76C326.269 11.5893 326.008 11.36 325.805 11.072C325.613 10.784 325.517 10.4 325.517 9.92C325.517 9.46133 325.645 9.05067 325.901 8.688C326.157 8.32533 326.53 8.04267 327.021 7.84C327.522 7.62667 328.13 7.52 328.845 7.52C329.389 7.52 329.933 7.59467 330.477 7.744C331.021 7.88267 331.469 8.06933 331.821 8.304L331.325 9.216C330.952 8.96 330.552 8.77867 330.125 8.672C329.698 8.55467 329.272 8.496 328.845 8.496C328.088 8.496 327.528 8.62933 327.165 8.896C326.813 9.152 326.637 9.48267 326.637 9.888C326.637 10.208 326.733 10.4587 326.925 10.64C327.128 10.8213 327.389 10.9653 327.709 11.072C328.04 11.168 328.397 11.248 328.781 11.312C329.176 11.376 329.565 11.456 329.949 11.552C330.344 11.6373 330.701 11.76 331.021 11.92C331.352 12.0693 331.613 12.288 331.805 12.576C332.008 12.8533 332.109 13.2213 332.109 13.68C332.109 14.1707 331.97 14.5973 331.693 14.96C331.426 15.312 331.032 15.5893 330.509 15.792C329.997 15.984 329.373 16.08 328.637 16.08ZM341.725 16.08C340.925 16.08 340.205 15.8987 339.565 15.536C338.936 15.1733 338.44 14.672 338.077 14.032C337.714 13.3813 337.533 12.6347 337.533 11.792C337.533 10.9387 337.714 10.192 338.077 9.552C338.44 8.912 338.936 8.416 339.565 8.064C340.205 7.70133 340.925 7.52 341.725 7.52C342.461 7.52 343.117 7.68533 343.693 8.016C344.28 8.34667 344.744 8.832 345.085 9.472C345.437 10.1013 345.613 10.8747 345.613 11.792C345.613 12.6987 345.442 13.472 345.101 14.112C344.76 14.752 344.296 15.2427 343.709 15.584C343.133 15.9147 342.472 16.08 341.725 16.08ZM341.805 15.072C342.402 15.072 342.936 14.9387 343.405 14.672C343.885 14.3947 344.258 14.0107 344.525 13.52C344.802 13.0187 344.941 12.4427 344.941 11.792C344.941 11.1307 344.802 10.5547 344.525 10.064C344.258 9.57333 343.885 9.19467 343.405 8.928C342.936 8.65067 342.402 8.512 341.805 8.512C341.218 8.512 340.69 8.65067 340.221 8.928C339.752 9.19467 339.378 9.57333 339.101 10.064C338.824 10.5547 338.685 11.1307 338.685 11.792C338.685 12.4427 338.824 13.0187 339.101 13.52C339.378 14.0107 339.752 14.3947 340.221 14.672C340.69 14.9387 341.218 15.072 341.805 15.072ZM344.973 16V13.472L345.085 11.776L344.925 10.08V4.128H346.061V16H344.973ZM352.793 16.08C351.918 16.08 351.15 15.8987 350.489 15.536C349.827 15.1627 349.31 14.656 348.937 14.016C348.563 13.3653 348.377 12.624 348.377 11.792C348.377 10.96 348.553 10.224 348.905 9.584C349.267 8.944 349.758 8.44267 350.377 8.08C351.006 7.70667 351.71 7.52 352.489 7.52C353.278 7.52 353.977 7.70133 354.585 8.064C355.203 8.416 355.689 8.91733 356.041 9.568C356.393 10.208 356.569 10.9493 356.569 11.792C356.569 11.8453 356.563 11.904 356.553 11.968C356.553 12.0213 356.553 12.08 356.553 12.144H349.241V11.296H355.945L355.497 11.632C355.497 11.024 355.363 10.4853 355.097 10.016C354.841 9.536 354.489 9.16267 354.041 8.896C353.593 8.62933 353.075 8.496 352.489 8.496C351.913 8.496 351.395 8.62933 350.937 8.896C350.478 9.16267 350.121 9.536 349.865 10.016C349.609 10.496 349.481 11.0453 349.481 11.664V11.84C349.481 12.48 349.619 13.0453 349.897 13.536C350.185 14.016 350.579 14.3947 351.081 14.672C351.593 14.9387 352.174 15.072 352.825 15.072C353.337 15.072 353.811 14.9813 354.249 14.8C354.697 14.6187 355.081 14.3413 355.401 13.968L356.041 14.704C355.667 15.152 355.198 15.4933 354.633 15.728C354.078 15.9627 353.465 16.08 352.793 16.08ZM358.881 16V4.128H360.017V16H358.881ZM370.853 16.08C370.021 16.08 369.275 15.8987 368.613 15.536C367.963 15.1627 367.451 14.656 367.077 14.016C366.704 13.3653 366.517 12.624 366.517 11.792C366.517 10.9493 366.704 10.208 367.077 9.568C367.451 8.928 367.963 8.42667 368.613 8.064C369.275 7.70133 370.021 7.52 370.853 7.52C371.568 7.52 372.213 7.65867 372.789 7.936C373.365 8.21333 373.819 8.62933 374.149 9.184L373.301 9.76C373.013 9.33333 372.656 9.01867 372.229 8.816C371.803 8.61333 371.339 8.512 370.837 8.512C370.24 8.512 369.701 8.65067 369.221 8.928C368.741 9.19467 368.363 9.57333 368.085 10.064C367.808 10.5547 367.669 11.1307 367.669 11.792C367.669 12.4533 367.808 13.0293 368.085 13.52C368.363 14.0107 368.741 14.3947 369.221 14.672C369.701 14.9387 370.24 15.072 370.837 15.072C371.339 15.072 371.803 14.9707 372.229 14.768C372.656 14.5653 373.013 14.256 373.301 13.84L374.149 14.416C373.819 14.96 373.365 15.376 372.789 15.664C372.213 15.9413 371.568 16.08 370.853 16.08ZM379.664 16.08C378.854 16.08 378.123 15.8987 377.472 15.536C376.832 15.1627 376.326 14.656 375.952 14.016C375.579 13.3653 375.392 12.624 375.392 11.792C375.392 10.9493 375.579 10.208 375.952 9.568C376.326 8.928 376.832 8.42667 377.472 8.064C378.112 7.70133 378.843 7.52 379.664 7.52C380.496 7.52 381.232 7.70133 381.872 8.064C382.523 8.42667 383.03 8.928 383.392 9.568C383.766 10.208 383.952 10.9493 383.952 11.792C383.952 12.624 383.766 13.3653 383.392 14.016C383.03 14.656 382.523 15.1627 381.872 15.536C381.222 15.8987 380.486 16.08 379.664 16.08ZM379.664 15.072C380.272 15.072 380.811 14.9387 381.28 14.672C381.75 14.3947 382.118 14.0107 382.384 13.52C382.662 13.0187 382.8 12.4427 382.8 11.792C382.8 11.1307 382.662 10.5547 382.384 10.064C382.118 9.57333 381.75 9.19467 381.28 8.928C380.811 8.65067 380.278 8.512 379.68 8.512C379.083 8.512 378.55 8.65067 378.08 8.928C377.611 9.19467 377.238 9.57333 376.96 10.064C376.683 10.5547 376.544 11.1307 376.544 11.792C376.544 12.4427 376.683 13.0187 376.96 13.52C377.238 14.0107 377.611 14.3947 378.08 14.672C378.55 14.9387 379.078 15.072 379.664 15.072ZM390.56 7.52C391.242 7.52 391.84 7.65333 392.352 7.92C392.874 8.176 393.28 8.57067 393.568 9.104C393.866 9.63733 394.016 10.3093 394.016 11.12V16H392.88V11.232C392.88 10.3467 392.656 9.68 392.208 9.232C391.77 8.77333 391.152 8.544 390.352 8.544C389.754 8.544 389.232 8.66667 388.784 8.912C388.346 9.14667 388.005 9.49333 387.76 9.952C387.525 10.4 387.408 10.944 387.408 11.584V16H386.272V7.6H387.36V9.904L387.184 9.472C387.45 8.864 387.877 8.38933 388.464 8.048C389.05 7.696 389.749 7.52 390.56 7.52ZM399.34 16.08C398.647 16.08 397.991 15.984 397.372 15.792C396.753 15.5893 396.268 15.3387 395.916 15.04L396.428 14.144C396.769 14.4 397.207 14.624 397.74 14.816C398.273 14.9973 398.833 15.088 399.42 15.088C400.22 15.088 400.796 14.9653 401.148 14.72C401.5 14.464 401.676 14.128 401.676 13.712C401.676 13.4027 401.575 13.1627 401.372 12.992C401.18 12.8107 400.924 12.6773 400.604 12.592C400.284 12.496 399.927 12.416 399.532 12.352C399.137 12.288 398.743 12.2133 398.348 12.128C397.964 12.0427 397.612 11.92 397.292 11.76C396.972 11.5893 396.711 11.36 396.508 11.072C396.316 10.784 396.22 10.4 396.22 9.92C396.22 9.46133 396.348 9.05067 396.604 8.688C396.86 8.32533 397.233 8.04267 397.724 7.84C398.225 7.62667 398.833 7.52 399.548 7.52C400.092 7.52 400.636 7.59467 401.18 7.744C401.724 7.88267 402.172 8.06933 402.524 8.304L402.028 9.216C401.655 8.96 401.255 8.77867 400.828 8.672C400.401 8.55467 399.975 8.496 399.548 8.496C398.791 8.496 398.231 8.62933 397.868 8.896C397.516 9.152 397.34 9.48267 397.34 9.888C397.34 10.208 397.436 10.4587 397.628 10.64C397.831 10.8213 398.092 10.9653 398.412 11.072C398.743 11.168 399.1 11.248 399.484 11.312C399.879 11.376 400.268 11.456 400.652 11.552C401.047 11.6373 401.404 11.76 401.724 11.92C402.055 12.0693 402.316 12.288 402.508 12.576C402.711 12.8533 402.812 13.2213 402.812 13.68C402.812 14.1707 402.673 14.5973 402.396 14.96C402.129 15.312 401.735 15.5893 401.212 15.792C400.7 15.984 400.076 16.08 399.34 16.08ZM408.465 16.08C407.59 16.08 406.822 15.8987 406.161 15.536C405.499 15.1627 404.982 14.656 404.609 14.016C404.235 13.3653 404.049 12.624 404.049 11.792C404.049 10.96 404.225 10.224 404.577 9.584C404.939 8.944 405.43 8.44267 406.049 8.08C406.678 7.70667 407.382 7.52 408.161 7.52C408.95 7.52 409.649 7.70133 410.257 8.064C410.875 8.416 411.361 8.91733 411.713 9.568C412.065 10.208 412.241 10.9493 412.241 11.792C412.241 11.8453 412.235 11.904 412.225 11.968C412.225 12.0213 412.225 12.08 412.225 12.144H404.913V11.296H411.617L411.169 11.632C411.169 11.024 411.035 10.4853 410.769 10.016C410.513 9.536 410.161 9.16267 409.713 8.896C409.265 8.62933 408.747 8.496 408.161 8.496C407.585 8.496 407.067 8.62933 406.609 8.896C406.15 9.16267 405.793 9.536 405.537 10.016C405.281 10.496 405.153 11.0453 405.153 11.664V11.84C405.153 12.48 405.291 13.0453 405.569 13.536C405.857 14.016 406.251 14.3947 406.753 14.672C407.265 14.9387 407.846 15.072 408.497 15.072C409.009 15.072 409.483 14.9813 409.921 14.8C410.369 14.6187 410.753 14.3413 411.073 13.968L411.713 14.704C411.339 15.152 410.87 15.4933 410.305 15.728C409.75 15.9627 409.137 16.08 408.465 16.08ZM413.305 19.184C412.963 19.184 412.638 19.136 412.329 19.04C412.009 18.9547 411.742 18.8213 411.529 18.64L411.929 17.776C412.27 18.064 412.707 18.208 413.241 18.208C413.689 18.208 414.03 18.0747 414.265 17.808C414.51 17.5413 414.633 17.1467 414.633 16.624V7.6H415.769V16.624C415.769 17.4027 415.555 18.0213 415.129 18.48C414.713 18.9493 414.105 19.184 413.305 19.184ZM415.209 5.744C414.974 5.744 414.777 5.664 414.617 5.504C414.457 5.344 414.377 5.152 414.377 4.928C414.377 4.704 414.457 4.51733 414.617 4.368C414.777 4.208 414.974 4.128 415.209 4.128C415.443 4.128 415.641 4.20267 415.801 4.352C415.961 4.50133 416.041 4.688 416.041 4.912C416.041 5.14667 415.961 5.344 415.801 5.504C415.651 5.664 415.454 5.744 415.209 5.744ZM422.367 16.08C421.557 16.08 420.826 15.8987 420.175 15.536C419.535 15.1627 419.029 14.656 418.655 14.016C418.282 13.3653 418.095 12.624 418.095 11.792C418.095 10.9493 418.282 10.208 418.655 9.568C419.029 8.928 419.535 8.42667 420.175 8.064C420.815 7.70133 421.546 7.52 422.367 7.52C423.199 7.52 423.935 7.70133 424.575 8.064C425.226 8.42667 425.733 8.928 426.095 9.568C426.469 10.208 426.655 10.9493 426.655 11.792C426.655 12.624 426.469 13.3653 426.095 14.016C425.733 14.656 425.226 15.1627 424.575 15.536C423.925 15.8987 423.189 16.08 422.367 16.08ZM422.367 15.072C422.975 15.072 423.514 14.9387 423.983 14.672C424.453 14.3947 424.821 14.0107 425.087 13.52C425.365 13.0187 425.503 12.4427 425.503 11.792C425.503 11.1307 425.365 10.5547 425.087 10.064C424.821 9.57333 424.453 9.19467 423.983 8.928C423.514 8.65067 422.981 8.512 422.383 8.512C421.786 8.512 421.253 8.65067 420.783 8.928C420.314 9.19467 419.941 9.57333 419.663 10.064C419.386 10.5547 419.247 11.1307 419.247 11.792C419.247 12.4427 419.386 13.0187 419.663 13.52C419.941 14.0107 420.314 14.3947 420.783 14.672C421.253 14.9387 421.781 15.072 422.367 15.072Z" fill="#888B8D"/>
</svg>
