<svg width="774" height="382" viewBox="0 0 774 382" fill="none" xmlns="http://www.w3.org/2000/svg">
<path d="M40.0077 266.5H749.528" stroke="#EBE9F1" stroke-linecap="square"/>
<path d="M40.0077 351.5H749.528" stroke="#EBE9F1" stroke-linecap="square"/>
<path d="M40.0077 96.5H749.528" stroke="#EBE9F1" stroke-linecap="square"/>
<path d="M40.0077 10.5H749.528" stroke="#EBE9F1" stroke-linecap="square"/>
<path d="M40.0073 10.5V357.5" stroke="#EBE9F1" stroke-linecap="square"/>
<path d="M158.261 10.5V357.5" stroke="#EBE9F1" stroke-linecap="square"/>
<path d="M344.729 10.5V357.5" stroke="#EBE9F1" stroke-linecap="square"/>
<path d="M530.983 10.5V357.5" stroke="#EBE9F1" stroke-linecap="square"/>
<path d="M750.236 10.5V357.5" stroke="#EBE9F1" stroke-linecap="square"/>
<g clip-path="url(#clip0_1219_6427)">
<path d="M4.26328 96.12C3.56728 96.12 2.96328 96.016 2.45128 95.808C1.93928 95.6 1.54328 95.308 1.26328 94.932C0.983281 94.548 0.843281 94.1 0.843281 93.588C0.843281 93.076 0.979281 92.644 1.25128 92.292C1.52328 91.94 1.91528 91.672 2.42728 91.488C2.93928 91.304 3.55128 91.212 4.26328 91.212C4.97528 91.212 5.58728 91.304 6.09928 91.488C6.61928 91.672 7.01528 91.944 7.28728 92.304C7.56728 92.656 7.70728 93.084 7.70728 93.588C7.70728 94.1 7.56328 94.548 7.27528 94.932C6.99528 95.308 6.59528 95.6 6.07528 95.808C5.56328 96.016 4.95928 96.12 4.26328 96.12ZM4.26328 94.896C4.83928 94.896 5.29528 94.776 5.63128 94.536C5.96728 94.296 6.13528 93.964 6.13528 93.54C6.13528 93.124 5.96728 92.796 5.63128 92.556C5.29528 92.316 4.83928 92.196 4.26328 92.196C3.68728 92.196 3.23528 92.316 2.90728 92.556C2.57928 92.796 2.41528 93.124 2.41528 93.54C2.41528 93.964 2.57928 94.296 2.90728 94.536C3.23528 94.776 3.68728 94.896 4.26328 94.896ZM4.26328 92.028C3.61528 92.028 3.05928 91.944 2.59528 91.776C2.13128 91.6 1.77128 91.348 1.51528 91.02C1.26728 90.684 1.14328 90.284 1.14328 89.82C1.14328 89.34 1.27128 88.928 1.52728 88.584C1.79128 88.232 2.15928 87.96 2.63128 87.768C3.10328 87.576 3.64728 87.48 4.26328 87.48C4.88728 87.48 5.43528 87.576 5.90728 87.768C6.37928 87.96 6.74728 88.232 7.01128 88.584C7.27528 88.928 7.40728 89.34 7.40728 89.82C7.40728 90.284 7.27928 90.684 7.02328 91.02C6.77528 91.348 6.41528 91.6 5.94328 91.776C5.47128 91.944 4.91128 92.028 4.26328 92.028ZM4.26328 91.068C4.75928 91.068 5.15128 90.964 5.43928 90.756C5.72728 90.54 5.87128 90.252 5.87128 89.892C5.87128 89.516 5.72328 89.224 5.42728 89.016C5.13128 88.808 4.74328 88.704 4.26328 88.704C3.78328 88.704 3.39928 88.808 3.11128 89.016C2.82328 89.224 2.67928 89.516 2.67928 89.892C2.67928 90.252 2.81928 90.54 3.09928 90.756C3.38728 90.964 3.77528 91.068 4.26328 91.068ZM9.77259 96.084C9.50059 96.084 9.26859 95.992 9.07659 95.808C8.88459 95.616 8.78859 95.376 8.78859 95.088C8.78859 94.784 8.88459 94.544 9.07659 94.368C9.26859 94.184 9.50059 94.092 9.77259 94.092C10.0446 94.092 10.2766 94.184 10.4686 94.368C10.6606 94.544 10.7566 94.784 10.7566 95.088C10.7566 95.376 10.6606 95.616 10.4686 95.808C10.2766 95.992 10.0446 96.084 9.77259 96.084ZM15.1297 96.12C14.4657 96.12 13.8657 95.952 13.3297 95.616C12.8017 95.28 12.3857 94.792 12.0817 94.152C11.7777 93.504 11.6257 92.72 11.6257 91.8C11.6257 90.88 11.7777 90.1 12.0817 89.46C12.3857 88.812 12.8017 88.32 13.3297 87.984C13.8657 87.648 14.4657 87.48 15.1297 87.48C15.8017 87.48 16.4017 87.648 16.9297 87.984C17.4577 88.32 17.8737 88.812 18.1777 89.46C18.4897 90.1 18.6457 90.88 18.6457 91.8C18.6457 92.72 18.4897 93.504 18.1777 94.152C17.8737 94.792 17.4577 95.28 16.9297 95.616C16.4017 95.952 15.8017 96.12 15.1297 96.12ZM15.1297 94.764C15.5217 94.764 15.8617 94.66 16.1497 94.452C16.4377 94.236 16.6617 93.908 16.8217 93.468C16.9897 93.028 17.0737 92.472 17.0737 91.8C17.0737 91.12 16.9897 90.564 16.8217 90.132C16.6617 89.692 16.4377 89.368 16.1497 89.16C15.8617 88.944 15.5217 88.836 15.1297 88.836C14.7537 88.836 14.4177 88.944 14.1217 89.16C13.8337 89.368 13.6057 89.692 13.4377 90.132C13.2777 90.564 13.1977 91.12 13.1977 91.8C13.1977 92.472 13.2777 93.028 13.4377 93.468C13.6057 93.908 13.8337 94.236 14.1217 94.452C14.4177 94.66 14.7537 94.764 15.1297 94.764ZM23.0719 96.12C22.3759 96.12 21.7719 96.016 21.2599 95.808C20.7479 95.6 20.3519 95.308 20.0719 94.932C19.7919 94.548 19.6519 94.1 19.6519 93.588C19.6519 93.076 19.7879 92.644 20.0599 92.292C20.3319 91.94 20.7239 91.672 21.2359 91.488C21.7479 91.304 22.3599 91.212 23.0719 91.212C23.7839 91.212 24.3959 91.304 24.9079 91.488C25.4279 91.672 25.8239 91.944 26.0959 92.304C26.3759 92.656 26.5159 93.084 26.5159 93.588C26.5159 94.1 26.3719 94.548 26.0839 94.932C25.8039 95.308 25.4039 95.6 24.8839 95.808C24.3719 96.016 23.7679 96.12 23.0719 96.12ZM23.0719 94.896C23.6479 94.896 24.1039 94.776 24.4399 94.536C24.7759 94.296 24.9439 93.964 24.9439 93.54C24.9439 93.124 24.7759 92.796 24.4399 92.556C24.1039 92.316 23.6479 92.196 23.0719 92.196C22.4959 92.196 22.0439 92.316 21.7159 92.556C21.3879 92.796 21.2239 93.124 21.2239 93.54C21.2239 93.964 21.3879 94.296 21.7159 94.536C22.0439 94.776 22.4959 94.896 23.0719 94.896ZM23.0719 92.028C22.4239 92.028 21.8679 91.944 21.4039 91.776C20.9399 91.6 20.5799 91.348 20.3239 91.02C20.0759 90.684 19.9519 90.284 19.9519 89.82C19.9519 89.34 20.0799 88.928 20.3359 88.584C20.5999 88.232 20.9679 87.96 21.4399 87.768C21.9119 87.576 22.4559 87.48 23.0719 87.48C23.6959 87.48 24.2439 87.576 24.7159 87.768C25.1879 87.96 25.5559 88.232 25.8199 88.584C26.0839 88.928 26.2159 89.34 26.2159 89.82C26.2159 90.284 26.0879 90.684 25.8319 91.02C25.5839 91.348 25.2239 91.6 24.7519 91.776C24.2799 91.944 23.7199 92.028 23.0719 92.028ZM23.0719 91.068C23.5679 91.068 23.9599 90.964 24.2479 90.756C24.5359 90.54 24.6799 90.252 24.6799 89.892C24.6799 89.516 24.5319 89.224 24.2359 89.016C23.9399 88.808 23.5519 88.704 23.0719 88.704C22.5919 88.704 22.2079 88.808 21.9199 89.016C21.6319 89.224 21.4879 89.516 21.4879 89.892C21.4879 90.252 21.6279 90.54 21.9079 90.756C22.1959 90.964 22.5839 91.068 23.0719 91.068Z" fill="#888B8D"/>
<path d="M0.0564375 265.092V264.012L4.19644 258.6H5.86444L1.78444 264.012L1.00444 263.772H7.66444V265.092H0.0564375ZM4.66444 267V265.092L4.71244 263.772V262.08H6.17644V267H4.66444ZM9.49134 267.084C9.21934 267.084 8.98734 266.992 8.79534 266.808C8.60334 266.616 8.50734 266.376 8.50734 266.088C8.50734 265.784 8.60334 265.544 8.79534 265.368C8.98734 265.184 9.21934 265.092 9.49134 265.092C9.76334 265.092 9.99534 265.184 10.1873 265.368C10.3793 265.544 10.4753 265.784 10.4753 266.088C10.4753 266.376 10.3793 266.616 10.1873 266.808C9.99534 266.992 9.76334 267.084 9.49134 267.084ZM11.3182 265.092V264.012L15.4582 258.6H17.1262L13.0462 264.012L12.2662 263.772H18.9262V265.092H11.3182ZM15.9262 267V265.092L15.9742 263.772V262.08H17.4382V267H15.9262ZM23.0719 267.12C22.3759 267.12 21.7719 267.016 21.2599 266.808C20.7479 266.6 20.3519 266.308 20.0719 265.932C19.7919 265.548 19.6519 265.1 19.6519 264.588C19.6519 264.076 19.7879 263.644 20.0599 263.292C20.3319 262.94 20.7239 262.672 21.2359 262.488C21.7479 262.304 22.3599 262.212 23.0719 262.212C23.7839 262.212 24.3959 262.304 24.9079 262.488C25.4279 262.672 25.8239 262.944 26.0959 263.304C26.3759 263.656 26.5159 264.084 26.5159 264.588C26.5159 265.1 26.3719 265.548 26.0839 265.932C25.8039 266.308 25.4039 266.6 24.8839 266.808C24.3719 267.016 23.7679 267.12 23.0719 267.12ZM23.0719 265.896C23.6479 265.896 24.1039 265.776 24.4399 265.536C24.7759 265.296 24.9439 264.964 24.9439 264.54C24.9439 264.124 24.7759 263.796 24.4399 263.556C24.1039 263.316 23.6479 263.196 23.0719 263.196C22.4959 263.196 22.0439 263.316 21.7159 263.556C21.3879 263.796 21.2239 264.124 21.2239 264.54C21.2239 264.964 21.3879 265.296 21.7159 265.536C22.0439 265.776 22.4959 265.896 23.0719 265.896ZM23.0719 263.028C22.4239 263.028 21.8679 262.944 21.4039 262.776C20.9399 262.6 20.5799 262.348 20.3239 262.02C20.0759 261.684 19.9519 261.284 19.9519 260.82C19.9519 260.34 20.0799 259.928 20.3359 259.584C20.5999 259.232 20.9679 258.96 21.4399 258.768C21.9119 258.576 22.4559 258.48 23.0719 258.48C23.6959 258.48 24.2439 258.576 24.7159 258.768C25.1879 258.96 25.5559 259.232 25.8199 259.584C26.0839 259.928 26.2159 260.34 26.2159 260.82C26.2159 261.284 26.0879 261.684 25.8319 262.02C25.5839 262.348 25.2239 262.6 24.7519 262.776C24.2799 262.944 23.7199 263.028 23.0719 263.028ZM23.0719 262.068C23.5679 262.068 23.9599 261.964 24.2479 261.756C24.5359 261.54 24.6799 261.252 24.6799 260.892C24.6799 260.516 24.5319 260.224 24.2359 260.016C23.9399 259.808 23.5519 259.704 23.0719 259.704C22.5919 259.704 22.2079 259.808 21.9199 260.016C21.6319 260.224 21.4879 260.516 21.4879 260.892C21.4879 261.252 21.6279 261.54 21.9079 261.756C22.1959 261.964 22.5839 262.068 23.0719 262.068Z" fill="#888B8D"/>
<path d="M102.012 377V375.956L105.348 372.788C105.628 372.524 105.836 372.292 105.972 372.092C106.108 371.892 106.196 371.708 106.236 371.54C106.284 371.364 106.308 371.2 106.308 371.048C106.308 370.664 106.176 370.368 105.912 370.16C105.648 369.944 105.26 369.836 104.748 369.836C104.34 369.836 103.968 369.908 103.632 370.052C103.304 370.196 103.02 370.416 102.78 370.712L101.688 369.872C102.016 369.432 102.456 369.092 103.008 368.852C103.568 368.604 104.192 368.48 104.88 368.48C105.488 368.48 106.016 368.58 106.464 368.78C106.92 368.972 107.268 369.248 107.508 369.608C107.756 369.968 107.88 370.396 107.88 370.892C107.88 371.164 107.844 371.436 107.772 371.708C107.7 371.972 107.564 372.252 107.364 372.548C107.164 372.844 106.872 373.176 106.488 373.544L103.62 376.268L103.296 375.68H108.204V377H102.012ZM108.996 377V375.956L112.332 372.788C112.612 372.524 112.82 372.292 112.956 372.092C113.092 371.892 113.18 371.708 113.22 371.54C113.268 371.364 113.292 371.2 113.292 371.048C113.292 370.664 113.16 370.368 112.896 370.16C112.632 369.944 112.244 369.836 111.732 369.836C111.324 369.836 110.952 369.908 110.616 370.052C110.288 370.196 110.004 370.416 109.764 370.712L108.672 369.872C109 369.432 109.44 369.092 109.992 368.852C110.552 368.604 111.176 368.48 111.864 368.48C112.472 368.48 113 368.58 113.448 368.78C113.904 368.972 114.252 369.248 114.492 369.608C114.74 369.968 114.864 370.396 114.864 370.892C114.864 371.164 114.828 371.436 114.756 371.708C114.684 371.972 114.548 372.252 114.348 372.548C114.148 372.844 113.856 373.176 113.472 373.544L110.604 376.268L110.28 375.68H115.188V377H108.996ZM122.573 377.084C121.957 377.084 121.401 376.948 120.905 376.676C120.417 376.396 120.033 376.012 119.753 375.524C119.473 375.036 119.333 374.46 119.333 373.796C119.333 373.132 119.473 372.556 119.753 372.068C120.033 371.58 120.417 371.2 120.905 370.928C121.401 370.656 121.957 370.52 122.573 370.52C123.109 370.52 123.589 370.64 124.013 370.88C124.437 371.112 124.773 371.468 125.021 371.948C125.269 372.428 125.393 373.044 125.393 373.796C125.393 374.54 125.273 375.156 125.033 375.644C124.793 376.124 124.461 376.484 124.037 376.724C123.613 376.964 123.125 377.084 122.573 377.084ZM122.753 375.8C123.113 375.8 123.433 375.72 123.713 375.56C124.001 375.4 124.229 375.168 124.397 374.864C124.573 374.56 124.661 374.204 124.661 373.796C124.661 373.38 124.573 373.024 124.397 372.728C124.229 372.424 124.001 372.192 123.713 372.032C123.433 371.872 123.113 371.792 122.753 371.792C122.393 371.792 122.069 371.872 121.781 372.032C121.501 372.192 121.273 372.424 121.097 372.728C120.929 373.024 120.845 373.38 120.845 373.796C120.845 374.204 120.929 374.56 121.097 374.864C121.273 375.168 121.501 375.4 121.781 375.56C122.069 375.72 122.393 375.8 122.753 375.8ZM124.697 377V375.488L124.757 373.784L124.637 372.08V368.096H126.125V377H124.697ZM131.111 377.084C130.399 377.084 129.775 376.944 129.239 376.664C128.711 376.376 128.299 375.984 128.003 375.488C127.715 374.992 127.571 374.428 127.571 373.796C127.571 373.156 127.711 372.592 127.991 372.104C128.279 371.608 128.671 371.22 129.167 370.94C129.671 370.66 130.243 370.52 130.883 370.52C131.507 370.52 132.063 370.656 132.551 370.928C133.039 371.2 133.423 371.584 133.703 372.08C133.983 372.576 134.123 373.16 134.123 373.832C134.123 373.896 134.119 373.968 134.111 374.048C134.111 374.128 134.107 374.204 134.099 374.276H128.759V373.28H133.307L132.719 373.592C132.727 373.224 132.651 372.9 132.491 372.62C132.331 372.34 132.111 372.12 131.831 371.96C131.559 371.8 131.243 371.72 130.883 371.72C130.515 371.72 130.191 371.8 129.911 371.96C129.639 372.12 129.423 372.344 129.263 372.632C129.111 372.912 129.035 373.244 129.035 373.628V373.868C129.035 374.252 129.123 374.592 129.299 374.888C129.475 375.184 129.723 375.412 130.043 375.572C130.363 375.732 130.731 375.812 131.147 375.812C131.507 375.812 131.831 375.756 132.119 375.644C132.407 375.532 132.663 375.356 132.887 375.116L133.691 376.04C133.403 376.376 133.039 376.636 132.599 376.82C132.167 376.996 131.671 377.084 131.111 377.084ZM138.22 379.412C137.94 379.412 137.676 379.38 137.428 379.316C137.172 379.26 136.956 379.168 136.78 379.04L137.212 377.924C137.444 378.092 137.736 378.176 138.088 378.176C138.36 378.176 138.572 378.088 138.724 377.912C138.876 377.744 138.952 377.492 138.952 377.156V370.592H140.452V377.12C140.452 377.824 140.256 378.38 139.864 378.788C139.48 379.204 138.932 379.412 138.22 379.412ZM139.696 369.536C139.416 369.536 139.184 369.448 139 369.272C138.824 369.096 138.736 368.884 138.736 368.636C138.736 368.38 138.824 368.168 139 368C139.184 367.824 139.416 367.736 139.696 367.736C139.976 367.736 140.204 367.82 140.38 367.988C140.564 368.148 140.656 368.352 140.656 368.6C140.656 368.864 140.568 369.088 140.392 369.272C140.216 369.448 139.984 369.536 139.696 369.536ZM145.132 377.084C144.588 377.084 144.108 376.984 143.692 376.784C143.276 376.576 142.952 376.264 142.72 375.848C142.488 375.424 142.372 374.892 142.372 374.252V370.592H143.872V374.048C143.872 374.624 144 375.056 144.256 375.344C144.52 375.624 144.892 375.764 145.372 375.764C145.724 375.764 146.028 375.692 146.284 375.548C146.548 375.404 146.752 375.188 146.896 374.9C147.048 374.612 147.124 374.256 147.124 373.832V370.592H148.624V377H147.196V375.272L147.448 375.8C147.232 376.216 146.916 376.536 146.5 376.76C146.084 376.976 145.628 377.084 145.132 377.084ZM150.588 377V368.096H152.088V377H150.588ZM160.085 377.084C159.469 377.084 158.913 376.948 158.417 376.676C157.929 376.396 157.545 376.012 157.265 375.524C156.985 375.036 156.845 374.46 156.845 373.796C156.845 373.132 156.985 372.556 157.265 372.068C157.545 371.58 157.929 371.2 158.417 370.928C158.913 370.656 159.469 370.52 160.085 370.52C160.621 370.52 161.101 370.64 161.525 370.88C161.949 371.112 162.285 371.468 162.533 371.948C162.781 372.428 162.905 373.044 162.905 373.796C162.905 374.54 162.785 375.156 162.545 375.644C162.305 376.124 161.973 376.484 161.549 376.724C161.125 376.964 160.637 377.084 160.085 377.084ZM160.265 375.8C160.625 375.8 160.945 375.72 161.225 375.56C161.513 375.4 161.741 375.168 161.909 374.864C162.085 374.56 162.173 374.204 162.173 373.796C162.173 373.38 162.085 373.024 161.909 372.728C161.741 372.424 161.513 372.192 161.225 372.032C160.945 371.872 160.625 371.792 160.265 371.792C159.905 371.792 159.581 371.872 159.293 372.032C159.013 372.192 158.785 372.424 158.609 372.728C158.441 373.024 158.357 373.38 158.357 373.796C158.357 374.204 158.441 374.56 158.609 374.864C158.785 375.168 159.013 375.4 159.293 375.56C159.581 375.72 159.905 375.8 160.265 375.8ZM162.209 377V375.488L162.269 373.784L162.149 372.08V368.096H163.637V377H162.209ZM168.623 377.084C167.911 377.084 167.287 376.944 166.751 376.664C166.223 376.376 165.811 375.984 165.515 375.488C165.227 374.992 165.083 374.428 165.083 373.796C165.083 373.156 165.223 372.592 165.503 372.104C165.791 371.608 166.183 371.22 166.679 370.94C167.183 370.66 167.755 370.52 168.395 370.52C169.019 370.52 169.575 370.656 170.063 370.928C170.551 371.2 170.935 371.584 171.215 372.08C171.495 372.576 171.635 373.16 171.635 373.832C171.635 373.896 171.631 373.968 171.623 374.048C171.623 374.128 171.619 374.204 171.611 374.276H166.271V373.28H170.819L170.231 373.592C170.239 373.224 170.163 372.9 170.003 372.62C169.843 372.34 169.623 372.12 169.343 371.96C169.071 371.8 168.755 371.72 168.395 371.72C168.027 371.72 167.703 371.8 167.423 371.96C167.151 372.12 166.935 372.344 166.775 372.632C166.623 372.912 166.547 373.244 166.547 373.628V373.868C166.547 374.252 166.635 374.592 166.811 374.888C166.987 375.184 167.235 375.412 167.555 375.572C167.875 375.732 168.243 375.812 168.659 375.812C169.019 375.812 169.343 375.756 169.631 375.644C169.919 375.532 170.175 375.356 170.399 375.116L171.203 376.04C170.915 376.376 170.551 376.636 170.111 376.82C169.679 376.996 169.183 377.084 168.623 377.084ZM175.828 377V375.956L179.164 372.788C179.444 372.524 179.652 372.292 179.788 372.092C179.924 371.892 180.012 371.708 180.052 371.54C180.1 371.364 180.124 371.2 180.124 371.048C180.124 370.664 179.992 370.368 179.728 370.16C179.464 369.944 179.076 369.836 178.564 369.836C178.156 369.836 177.784 369.908 177.448 370.052C177.12 370.196 176.836 370.416 176.596 370.712L175.504 369.872C175.832 369.432 176.272 369.092 176.824 368.852C177.384 368.604 178.008 368.48 178.696 368.48C179.304 368.48 179.832 368.58 180.28 368.78C180.736 368.972 181.084 369.248 181.324 369.608C181.572 369.968 181.696 370.396 181.696 370.892C181.696 371.164 181.66 371.436 181.588 371.708C181.516 371.972 181.38 372.252 181.18 372.548C180.98 372.844 180.688 373.176 180.304 373.544L177.436 376.268L177.112 375.68H182.02V377H175.828ZM186.425 377.12C185.761 377.12 185.161 376.952 184.625 376.616C184.097 376.28 183.681 375.792 183.377 375.152C183.073 374.504 182.921 373.72 182.921 372.8C182.921 371.88 183.073 371.1 183.377 370.46C183.681 369.812 184.097 369.32 184.625 368.984C185.161 368.648 185.761 368.48 186.425 368.48C187.097 368.48 187.697 368.648 188.225 368.984C188.753 369.32 189.169 369.812 189.473 370.46C189.785 371.1 189.941 371.88 189.941 372.8C189.941 373.72 189.785 374.504 189.473 375.152C189.169 375.792 188.753 376.28 188.225 376.616C187.697 376.952 187.097 377.12 186.425 377.12ZM186.425 375.764C186.817 375.764 187.157 375.66 187.445 375.452C187.733 375.236 187.957 374.908 188.117 374.468C188.285 374.028 188.369 373.472 188.369 372.8C188.369 372.12 188.285 371.564 188.117 371.132C187.957 370.692 187.733 370.368 187.445 370.16C187.157 369.944 186.817 369.836 186.425 369.836C186.049 369.836 185.713 369.944 185.417 370.16C185.129 370.368 184.901 370.692 184.733 371.132C184.573 371.564 184.493 372.12 184.493 372.8C184.493 373.472 184.573 374.028 184.733 374.468C184.901 374.908 185.129 375.236 185.417 375.452C185.713 375.66 186.049 375.764 186.425 375.764ZM190.875 377V375.956L194.211 372.788C194.491 372.524 194.699 372.292 194.835 372.092C194.971 371.892 195.059 371.708 195.099 371.54C195.147 371.364 195.171 371.2 195.171 371.048C195.171 370.664 195.039 370.368 194.775 370.16C194.511 369.944 194.123 369.836 193.611 369.836C193.203 369.836 192.831 369.908 192.495 370.052C192.167 370.196 191.883 370.416 191.643 370.712L190.551 369.872C190.879 369.432 191.319 369.092 191.871 368.852C192.431 368.604 193.055 368.48 193.743 368.48C194.351 368.48 194.879 368.58 195.327 368.78C195.783 368.972 196.131 369.248 196.371 369.608C196.619 369.968 196.743 370.396 196.743 370.892C196.743 371.164 196.707 371.436 196.635 371.708C196.563 371.972 196.427 372.252 196.227 372.548C196.027 372.844 195.735 373.176 195.351 373.544L192.483 376.268L192.159 375.68H197.067V377H190.875ZM197.672 375.092V374.012L201.812 368.6H203.48L199.4 374.012L198.62 373.772H205.28V375.092H197.672ZM202.28 377V375.092L202.328 373.772V372.08H203.792V377H202.28Z" fill="#888B8D"/>
<path d="M297.59 377V375.956L300.926 372.788C301.206 372.524 301.414 372.292 301.55 372.092C301.686 371.892 301.774 371.708 301.814 371.54C301.862 371.364 301.886 371.2 301.886 371.048C301.886 370.664 301.754 370.368 301.49 370.16C301.226 369.944 300.838 369.836 300.326 369.836C299.918 369.836 299.546 369.908 299.21 370.052C298.882 370.196 298.598 370.416 298.358 370.712L297.266 369.872C297.594 369.432 298.034 369.092 298.586 368.852C299.146 368.604 299.77 368.48 300.458 368.48C301.066 368.48 301.594 368.58 302.042 368.78C302.498 368.972 302.846 369.248 303.086 369.608C303.334 369.968 303.458 370.396 303.458 370.892C303.458 371.164 303.422 371.436 303.35 371.708C303.278 371.972 303.142 372.252 302.942 372.548C302.742 372.844 302.45 373.176 302.066 373.544L299.198 376.268L298.874 375.68H303.782V377H297.59ZM308.054 377.12C307.358 377.12 306.754 377.016 306.242 376.808C305.73 376.6 305.334 376.308 305.054 375.932C304.774 375.548 304.634 375.1 304.634 374.588C304.634 374.076 304.77 373.644 305.042 373.292C305.314 372.94 305.706 372.672 306.218 372.488C306.73 372.304 307.342 372.212 308.054 372.212C308.766 372.212 309.378 372.304 309.89 372.488C310.41 372.672 310.806 372.944 311.078 373.304C311.358 373.656 311.498 374.084 311.498 374.588C311.498 375.1 311.354 375.548 311.066 375.932C310.786 376.308 310.386 376.6 309.866 376.808C309.354 377.016 308.75 377.12 308.054 377.12ZM308.054 375.896C308.63 375.896 309.086 375.776 309.422 375.536C309.758 375.296 309.926 374.964 309.926 374.54C309.926 374.124 309.758 373.796 309.422 373.556C309.086 373.316 308.63 373.196 308.054 373.196C307.478 373.196 307.026 373.316 306.698 373.556C306.37 373.796 306.206 374.124 306.206 374.54C306.206 374.964 306.37 375.296 306.698 375.536C307.026 375.776 307.478 375.896 308.054 375.896ZM308.054 373.028C307.406 373.028 306.85 372.944 306.386 372.776C305.922 372.6 305.562 372.348 305.306 372.02C305.058 371.684 304.934 371.284 304.934 370.82C304.934 370.34 305.062 369.928 305.318 369.584C305.582 369.232 305.95 368.96 306.422 368.768C306.894 368.576 307.438 368.48 308.054 368.48C308.678 368.48 309.226 368.576 309.698 368.768C310.17 368.96 310.538 369.232 310.802 369.584C311.066 369.928 311.198 370.34 311.198 370.82C311.198 371.284 311.07 371.684 310.814 372.02C310.566 372.348 310.206 372.6 309.734 372.776C309.262 372.944 308.702 373.028 308.054 373.028ZM308.054 372.068C308.55 372.068 308.942 371.964 309.23 371.756C309.518 371.54 309.662 371.252 309.662 370.892C309.662 370.516 309.514 370.224 309.218 370.016C308.922 369.808 308.534 369.704 308.054 369.704C307.574 369.704 307.19 369.808 306.902 370.016C306.614 370.224 306.47 370.516 306.47 370.892C306.47 371.252 306.61 371.54 306.89 371.756C307.178 371.964 307.566 372.068 308.054 372.068ZM318.995 377.084C318.379 377.084 317.823 376.948 317.327 376.676C316.839 376.396 316.455 376.012 316.175 375.524C315.895 375.036 315.755 374.46 315.755 373.796C315.755 373.132 315.895 372.556 316.175 372.068C316.455 371.58 316.839 371.2 317.327 370.928C317.823 370.656 318.379 370.52 318.995 370.52C319.531 370.52 320.011 370.64 320.435 370.88C320.859 371.112 321.195 371.468 321.443 371.948C321.691 372.428 321.815 373.044 321.815 373.796C321.815 374.54 321.695 375.156 321.455 375.644C321.215 376.124 320.883 376.484 320.459 376.724C320.035 376.964 319.547 377.084 318.995 377.084ZM319.175 375.8C319.535 375.8 319.855 375.72 320.135 375.56C320.423 375.4 320.651 375.168 320.819 374.864C320.995 374.56 321.083 374.204 321.083 373.796C321.083 373.38 320.995 373.024 320.819 372.728C320.651 372.424 320.423 372.192 320.135 372.032C319.855 371.872 319.535 371.792 319.175 371.792C318.815 371.792 318.491 371.872 318.203 372.032C317.923 372.192 317.695 372.424 317.519 372.728C317.351 373.024 317.267 373.38 317.267 373.796C317.267 374.204 317.351 374.56 317.519 374.864C317.695 375.168 317.923 375.4 318.203 375.56C318.491 375.72 318.815 375.8 319.175 375.8ZM321.119 377V375.488L321.179 373.784L321.059 372.08V368.096H322.547V377H321.119ZM327.533 377.084C326.821 377.084 326.197 376.944 325.661 376.664C325.133 376.376 324.721 375.984 324.425 375.488C324.137 374.992 323.993 374.428 323.993 373.796C323.993 373.156 324.133 372.592 324.413 372.104C324.701 371.608 325.093 371.22 325.589 370.94C326.093 370.66 326.665 370.52 327.305 370.52C327.929 370.52 328.485 370.656 328.973 370.928C329.461 371.2 329.845 371.584 330.125 372.08C330.405 372.576 330.545 373.16 330.545 373.832C330.545 373.896 330.541 373.968 330.533 374.048C330.533 374.128 330.529 374.204 330.521 374.276H325.181V373.28H329.729L329.141 373.592C329.149 373.224 329.073 372.9 328.913 372.62C328.753 372.34 328.533 372.12 328.253 371.96C327.981 371.8 327.665 371.72 327.305 371.72C326.937 371.72 326.613 371.8 326.333 371.96C326.061 372.12 325.845 372.344 325.685 372.632C325.533 372.912 325.457 373.244 325.457 373.628V373.868C325.457 374.252 325.545 374.592 325.721 374.888C325.897 375.184 326.145 375.412 326.465 375.572C326.785 375.732 327.153 375.812 327.569 375.812C327.929 375.812 328.253 375.756 328.541 375.644C328.829 375.532 329.085 375.356 329.309 375.116L330.113 376.04C329.825 376.376 329.461 376.636 329.021 376.82C328.589 376.996 328.093 377.084 327.533 377.084ZM334.642 379.412C334.362 379.412 334.098 379.38 333.85 379.316C333.594 379.26 333.378 379.168 333.202 379.04L333.634 377.924C333.866 378.092 334.158 378.176 334.51 378.176C334.782 378.176 334.994 378.088 335.146 377.912C335.298 377.744 335.374 377.492 335.374 377.156V370.592H336.874V377.12C336.874 377.824 336.678 378.38 336.286 378.788C335.902 379.204 335.354 379.412 334.642 379.412ZM336.118 369.536C335.838 369.536 335.606 369.448 335.422 369.272C335.246 369.096 335.158 368.884 335.158 368.636C335.158 368.38 335.246 368.168 335.422 368C335.606 367.824 335.838 367.736 336.118 367.736C336.398 367.736 336.626 367.82 336.802 367.988C336.986 368.148 337.078 368.352 337.078 368.6C337.078 368.864 336.99 369.088 336.814 369.272C336.638 369.448 336.406 369.536 336.118 369.536ZM341.553 377.084C341.009 377.084 340.529 376.984 340.113 376.784C339.697 376.576 339.373 376.264 339.141 375.848C338.909 375.424 338.793 374.892 338.793 374.252V370.592H340.293V374.048C340.293 374.624 340.421 375.056 340.677 375.344C340.941 375.624 341.313 375.764 341.793 375.764C342.145 375.764 342.449 375.692 342.705 375.548C342.969 375.404 343.173 375.188 343.317 374.9C343.469 374.612 343.545 374.256 343.545 373.832V370.592H345.045V377H343.617V375.272L343.869 375.8C343.653 376.216 343.337 376.536 342.921 376.76C342.505 376.976 342.049 377.084 341.553 377.084ZM347.009 377V368.096H348.509V377H347.009ZM356.507 377.084C355.891 377.084 355.335 376.948 354.839 376.676C354.351 376.396 353.967 376.012 353.687 375.524C353.407 375.036 353.267 374.46 353.267 373.796C353.267 373.132 353.407 372.556 353.687 372.068C353.967 371.58 354.351 371.2 354.839 370.928C355.335 370.656 355.891 370.52 356.507 370.52C357.043 370.52 357.523 370.64 357.947 370.88C358.371 371.112 358.707 371.468 358.955 371.948C359.203 372.428 359.327 373.044 359.327 373.796C359.327 374.54 359.207 375.156 358.967 375.644C358.727 376.124 358.395 376.484 357.971 376.724C357.547 376.964 357.059 377.084 356.507 377.084ZM356.687 375.8C357.047 375.8 357.367 375.72 357.647 375.56C357.935 375.4 358.163 375.168 358.331 374.864C358.507 374.56 358.595 374.204 358.595 373.796C358.595 373.38 358.507 373.024 358.331 372.728C358.163 372.424 357.935 372.192 357.647 372.032C357.367 371.872 357.047 371.792 356.687 371.792C356.327 371.792 356.003 371.872 355.715 372.032C355.435 372.192 355.207 372.424 355.031 372.728C354.863 373.024 354.779 373.38 354.779 373.796C354.779 374.204 354.863 374.56 355.031 374.864C355.207 375.168 355.435 375.4 355.715 375.56C356.003 375.72 356.327 375.8 356.687 375.8ZM358.631 377V375.488L358.691 373.784L358.571 372.08V368.096H360.059V377H358.631ZM365.045 377.084C364.333 377.084 363.709 376.944 363.173 376.664C362.645 376.376 362.233 375.984 361.937 375.488C361.649 374.992 361.505 374.428 361.505 373.796C361.505 373.156 361.645 372.592 361.925 372.104C362.213 371.608 362.605 371.22 363.101 370.94C363.605 370.66 364.177 370.52 364.817 370.52C365.441 370.52 365.997 370.656 366.485 370.928C366.973 371.2 367.357 371.584 367.637 372.08C367.917 372.576 368.057 373.16 368.057 373.832C368.057 373.896 368.053 373.968 368.045 374.048C368.045 374.128 368.041 374.204 368.033 374.276H362.693V373.28H367.241L366.653 373.592C366.661 373.224 366.585 372.9 366.425 372.62C366.265 372.34 366.045 372.12 365.765 371.96C365.493 371.8 365.177 371.72 364.817 371.72C364.449 371.72 364.125 371.8 363.845 371.96C363.573 372.12 363.357 372.344 363.197 372.632C363.045 372.912 362.969 373.244 362.969 373.628V373.868C362.969 374.252 363.057 374.592 363.233 374.888C363.409 375.184 363.657 375.412 363.977 375.572C364.297 375.732 364.665 375.812 365.081 375.812C365.441 375.812 365.765 375.756 366.053 375.644C366.341 375.532 366.597 375.356 366.821 375.116L367.625 376.04C367.337 376.376 366.973 376.636 366.533 376.82C366.101 376.996 365.605 377.084 365.045 377.084ZM372.25 377V375.956L375.586 372.788C375.866 372.524 376.074 372.292 376.21 372.092C376.346 371.892 376.434 371.708 376.474 371.54C376.522 371.364 376.546 371.2 376.546 371.048C376.546 370.664 376.414 370.368 376.15 370.16C375.886 369.944 375.498 369.836 374.986 369.836C374.578 369.836 374.206 369.908 373.87 370.052C373.542 370.196 373.258 370.416 373.018 370.712L371.926 369.872C372.254 369.432 372.694 369.092 373.246 368.852C373.806 368.604 374.43 368.48 375.118 368.48C375.726 368.48 376.254 368.58 376.702 368.78C377.158 368.972 377.506 369.248 377.746 369.608C377.994 369.968 378.118 370.396 378.118 370.892C378.118 371.164 378.082 371.436 378.01 371.708C377.938 371.972 377.802 372.252 377.602 372.548C377.402 372.844 377.11 373.176 376.726 373.544L373.858 376.268L373.534 375.68H378.442V377H372.25ZM382.846 377.12C382.182 377.12 381.582 376.952 381.046 376.616C380.518 376.28 380.102 375.792 379.798 375.152C379.494 374.504 379.342 373.72 379.342 372.8C379.342 371.88 379.494 371.1 379.798 370.46C380.102 369.812 380.518 369.32 381.046 368.984C381.582 368.648 382.182 368.48 382.846 368.48C383.518 368.48 384.118 368.648 384.646 368.984C385.174 369.32 385.59 369.812 385.894 370.46C386.206 371.1 386.362 371.88 386.362 372.8C386.362 373.72 386.206 374.504 385.894 375.152C385.59 375.792 385.174 376.28 384.646 376.616C384.118 376.952 383.518 377.12 382.846 377.12ZM382.846 375.764C383.238 375.764 383.578 375.66 383.866 375.452C384.154 375.236 384.378 374.908 384.538 374.468C384.706 374.028 384.79 373.472 384.79 372.8C384.79 372.12 384.706 371.564 384.538 371.132C384.378 370.692 384.154 370.368 383.866 370.16C383.578 369.944 383.238 369.836 382.846 369.836C382.47 369.836 382.134 369.944 381.838 370.16C381.55 370.368 381.322 370.692 381.154 371.132C380.994 371.564 380.914 372.12 380.914 372.8C380.914 373.472 380.994 374.028 381.154 374.468C381.322 374.908 381.55 375.236 381.838 375.452C382.134 375.66 382.47 375.764 382.846 375.764ZM387.297 377V375.956L390.633 372.788C390.913 372.524 391.121 372.292 391.257 372.092C391.393 371.892 391.481 371.708 391.521 371.54C391.569 371.364 391.593 371.2 391.593 371.048C391.593 370.664 391.461 370.368 391.197 370.16C390.933 369.944 390.545 369.836 390.033 369.836C389.625 369.836 389.253 369.908 388.917 370.052C388.589 370.196 388.305 370.416 388.065 370.712L386.973 369.872C387.301 369.432 387.741 369.092 388.293 368.852C388.853 368.604 389.477 368.48 390.165 368.48C390.773 368.48 391.301 368.58 391.749 368.78C392.205 368.972 392.553 369.248 392.793 369.608C393.041 369.968 393.165 370.396 393.165 370.892C393.165 371.164 393.129 371.436 393.057 371.708C392.985 371.972 392.849 372.252 392.649 372.548C392.449 372.844 392.157 373.176 391.773 373.544L388.905 376.268L388.581 375.68H393.489V377H387.297ZM394.094 375.092V374.012L398.234 368.6H399.902L395.822 374.012L395.042 373.772H401.702V375.092H394.094ZM398.702 377V375.092L398.75 373.772V372.08H400.214V377H398.702Z" fill="#888B8D"/>
<path d="M487.789 377.12C487.197 377.12 486.617 377.036 486.049 376.868C485.489 376.692 485.017 376.452 484.633 376.148L485.293 374.936C485.597 375.184 485.965 375.384 486.397 375.536C486.837 375.688 487.293 375.764 487.765 375.764C488.317 375.764 488.749 375.648 489.061 375.416C489.381 375.184 489.541 374.872 489.541 374.48C489.541 374.216 489.473 373.984 489.337 373.784C489.209 373.584 488.977 373.432 488.641 373.328C488.313 373.224 487.861 373.172 487.285 373.172H485.257L485.689 368.6H490.621V369.908H486.265L487.081 369.164L486.757 372.584L485.941 371.852H487.633C488.465 371.852 489.133 371.964 489.637 372.188C490.149 372.404 490.521 372.708 490.753 373.1C490.993 373.484 491.113 373.924 491.113 374.42C491.113 374.908 490.993 375.356 490.753 375.764C490.513 376.172 490.145 376.5 489.649 376.748C489.161 376.996 488.541 377.12 487.789 377.12ZM498.497 377.084C497.881 377.084 497.325 376.948 496.829 376.676C496.341 376.396 495.957 376.012 495.677 375.524C495.397 375.036 495.257 374.46 495.257 373.796C495.257 373.132 495.397 372.556 495.677 372.068C495.957 371.58 496.341 371.2 496.829 370.928C497.325 370.656 497.881 370.52 498.497 370.52C499.033 370.52 499.513 370.64 499.937 370.88C500.361 371.112 500.697 371.468 500.945 371.948C501.193 372.428 501.317 373.044 501.317 373.796C501.317 374.54 501.197 375.156 500.957 375.644C500.717 376.124 500.385 376.484 499.961 376.724C499.537 376.964 499.049 377.084 498.497 377.084ZM498.677 375.8C499.037 375.8 499.357 375.72 499.637 375.56C499.925 375.4 500.153 375.168 500.321 374.864C500.497 374.56 500.585 374.204 500.585 373.796C500.585 373.38 500.497 373.024 500.321 372.728C500.153 372.424 499.925 372.192 499.637 372.032C499.357 371.872 499.037 371.792 498.677 371.792C498.317 371.792 497.993 371.872 497.705 372.032C497.425 372.192 497.197 372.424 497.021 372.728C496.853 373.024 496.769 373.38 496.769 373.796C496.769 374.204 496.853 374.56 497.021 374.864C497.197 375.168 497.425 375.4 497.705 375.56C497.993 375.72 498.317 375.8 498.677 375.8ZM500.621 377V375.488L500.681 373.784L500.561 372.08V368.096H502.049V377H500.621ZM507.035 377.084C506.323 377.084 505.699 376.944 505.163 376.664C504.635 376.376 504.223 375.984 503.927 375.488C503.639 374.992 503.495 374.428 503.495 373.796C503.495 373.156 503.635 372.592 503.915 372.104C504.203 371.608 504.595 371.22 505.091 370.94C505.595 370.66 506.167 370.52 506.807 370.52C507.431 370.52 507.987 370.656 508.475 370.928C508.963 371.2 509.347 371.584 509.627 372.08C509.907 372.576 510.047 373.16 510.047 373.832C510.047 373.896 510.043 373.968 510.035 374.048C510.035 374.128 510.031 374.204 510.023 374.276H504.683V373.28H509.231L508.643 373.592C508.651 373.224 508.575 372.9 508.415 372.62C508.255 372.34 508.035 372.12 507.755 371.96C507.483 371.8 507.167 371.72 506.807 371.72C506.439 371.72 506.115 371.8 505.835 371.96C505.563 372.12 505.347 372.344 505.187 372.632C505.035 372.912 504.959 373.244 504.959 373.628V373.868C504.959 374.252 505.047 374.592 505.223 374.888C505.399 375.184 505.647 375.412 505.967 375.572C506.287 375.732 506.655 375.812 507.071 375.812C507.431 375.812 507.755 375.756 508.043 375.644C508.331 375.532 508.587 375.356 508.811 375.116L509.615 376.04C509.327 376.376 508.963 376.636 508.523 376.82C508.091 376.996 507.595 377.084 507.035 377.084ZM518.752 377V375.704L518.668 375.428V373.16C518.668 372.72 518.536 372.38 518.272 372.14C518.008 371.892 517.608 371.768 517.072 371.768C516.712 371.768 516.356 371.824 516.004 371.936C515.66 372.048 515.368 372.204 515.128 372.404L514.54 371.312C514.884 371.048 515.292 370.852 515.764 370.724C516.244 370.588 516.74 370.52 517.252 370.52C518.18 370.52 518.896 370.744 519.4 371.192C519.912 371.632 520.168 372.316 520.168 373.244V377H518.752ZM516.736 377.084C516.256 377.084 515.836 377.004 515.476 376.844C515.116 376.676 514.836 376.448 514.636 376.16C514.444 375.864 514.348 375.532 514.348 375.164C514.348 374.804 514.432 374.48 514.6 374.192C514.776 373.904 515.06 373.676 515.452 373.508C515.844 373.34 516.364 373.256 517.012 373.256H518.872V374.252H517.12C516.608 374.252 516.264 374.336 516.088 374.504C515.912 374.664 515.824 374.864 515.824 375.104C515.824 375.376 515.932 375.592 516.148 375.752C516.364 375.912 516.664 375.992 517.048 375.992C517.416 375.992 517.744 375.908 518.032 375.74C518.328 375.572 518.54 375.324 518.668 374.996L518.92 375.896C518.776 376.272 518.516 376.564 518.14 376.772C517.772 376.98 517.304 377.084 516.736 377.084ZM525.009 379.412C524.417 379.412 523.837 379.332 523.269 379.172C522.709 379.02 522.249 378.796 521.889 378.5L522.561 377.372C522.841 377.604 523.193 377.788 523.617 377.924C524.049 378.068 524.485 378.14 524.925 378.14C525.629 378.14 526.145 377.976 526.473 377.648C526.801 377.328 526.965 376.844 526.965 376.196V375.056L527.085 373.604L527.037 372.152V370.592H528.465V376.028C528.465 377.188 528.169 378.04 527.577 378.584C526.985 379.136 526.129 379.412 525.009 379.412ZM524.817 376.712C524.209 376.712 523.657 376.584 523.161 376.328C522.673 376.064 522.285 375.7 521.997 375.236C521.717 374.772 521.577 374.228 521.577 373.604C521.577 372.988 521.717 372.448 521.997 371.984C522.285 371.52 522.673 371.16 523.161 370.904C523.657 370.648 524.209 370.52 524.817 370.52C525.361 370.52 525.849 370.628 526.281 370.844C526.713 371.06 527.057 371.396 527.313 371.852C527.577 372.308 527.709 372.892 527.709 373.604C527.709 374.316 527.577 374.904 527.313 375.368C527.057 375.824 526.713 376.164 526.281 376.388C525.849 376.604 525.361 376.712 524.817 376.712ZM525.045 375.44C525.421 375.44 525.757 375.364 526.053 375.212C526.349 375.052 526.577 374.836 526.737 374.564C526.905 374.284 526.989 373.964 526.989 373.604C526.989 373.244 526.905 372.928 526.737 372.656C526.577 372.376 526.349 372.164 526.053 372.02C525.757 371.868 525.421 371.792 525.045 371.792C524.669 371.792 524.329 371.868 524.025 372.02C523.729 372.164 523.497 372.376 523.329 372.656C523.169 372.928 523.089 373.244 523.089 373.604C523.089 373.964 523.169 374.284 523.329 374.564C523.497 374.836 523.729 375.052 524.025 375.212C524.329 375.364 524.669 375.44 525.045 375.44ZM533.317 377.084C532.661 377.084 532.077 376.944 531.565 376.664C531.053 376.376 530.649 375.984 530.353 375.488C530.057 374.992 529.909 374.428 529.909 373.796C529.909 373.156 530.057 372.592 530.353 372.104C530.649 371.608 531.053 371.22 531.565 370.94C532.077 370.66 532.661 370.52 533.317 370.52C533.981 370.52 534.569 370.66 535.081 370.94C535.601 371.22 536.005 371.604 536.293 372.092C536.589 372.58 536.737 373.148 536.737 373.796C536.737 374.428 536.589 374.992 536.293 375.488C536.005 375.984 535.601 376.376 535.081 376.664C534.569 376.944 533.981 377.084 533.317 377.084ZM533.317 375.8C533.685 375.8 534.013 375.72 534.301 375.56C534.589 375.4 534.813 375.168 534.973 374.864C535.141 374.56 535.225 374.204 535.225 373.796C535.225 373.38 535.141 373.024 534.973 372.728C534.813 372.424 534.589 372.192 534.301 372.032C534.013 371.872 533.689 371.792 533.329 371.792C532.961 371.792 532.633 371.872 532.345 372.032C532.065 372.192 531.841 372.424 531.673 372.728C531.505 373.024 531.421 373.38 531.421 373.796C531.421 374.204 531.505 374.56 531.673 374.864C531.841 375.168 532.065 375.4 532.345 375.56C532.633 375.72 532.957 375.8 533.317 375.8ZM544.2 377.084C543.584 377.084 543.028 376.948 542.532 376.676C542.044 376.396 541.66 376.012 541.38 375.524C541.1 375.036 540.96 374.46 540.96 373.796C540.96 373.132 541.1 372.556 541.38 372.068C541.66 371.58 542.044 371.2 542.532 370.928C543.028 370.656 543.584 370.52 544.2 370.52C544.736 370.52 545.216 370.64 545.64 370.88C546.064 371.112 546.4 371.468 546.648 371.948C546.896 372.428 547.02 373.044 547.02 373.796C547.02 374.54 546.9 375.156 546.66 375.644C546.42 376.124 546.088 376.484 545.664 376.724C545.24 376.964 544.752 377.084 544.2 377.084ZM544.38 375.8C544.74 375.8 545.06 375.72 545.34 375.56C545.628 375.4 545.856 375.168 546.024 374.864C546.2 374.56 546.288 374.204 546.288 373.796C546.288 373.38 546.2 373.024 546.024 372.728C545.856 372.424 545.628 372.192 545.34 372.032C545.06 371.872 544.74 371.792 544.38 371.792C544.02 371.792 543.696 371.872 543.408 372.032C543.128 372.192 542.9 372.424 542.724 372.728C542.556 373.024 542.472 373.38 542.472 373.796C542.472 374.204 542.556 374.56 542.724 374.864C542.9 375.168 543.128 375.4 543.408 375.56C543.696 375.72 544.02 375.8 544.38 375.8ZM546.324 377V375.488L546.384 373.784L546.264 372.08V368.096H547.752V377H546.324ZM552.738 377.084C552.026 377.084 551.402 376.944 550.866 376.664C550.338 376.376 549.926 375.984 549.63 375.488C549.342 374.992 549.198 374.428 549.198 373.796C549.198 373.156 549.338 372.592 549.618 372.104C549.906 371.608 550.298 371.22 550.794 370.94C551.298 370.66 551.87 370.52 552.51 370.52C553.134 370.52 553.69 370.656 554.178 370.928C554.666 371.2 555.05 371.584 555.33 372.08C555.61 372.576 555.75 373.16 555.75 373.832C555.75 373.896 555.746 373.968 555.738 374.048C555.738 374.128 555.734 374.204 555.726 374.276H550.386V373.28H554.934L554.346 373.592C554.354 373.224 554.278 372.9 554.118 372.62C553.958 372.34 553.738 372.12 553.458 371.96C553.186 371.8 552.87 371.72 552.51 371.72C552.142 371.72 551.818 371.8 551.538 371.96C551.266 372.12 551.05 372.344 550.89 372.632C550.738 372.912 550.662 373.244 550.662 373.628V373.868C550.662 374.252 550.75 374.592 550.926 374.888C551.102 375.184 551.35 375.412 551.67 375.572C551.99 375.732 552.358 375.812 552.774 375.812C553.134 375.812 553.458 375.756 553.746 375.644C554.034 375.532 554.29 375.356 554.514 375.116L555.318 376.04C555.03 376.376 554.666 376.636 554.226 376.82C553.794 376.996 553.298 377.084 552.738 377.084ZM559.943 377V375.956L563.279 372.788C563.559 372.524 563.767 372.292 563.903 372.092C564.039 371.892 564.127 371.708 564.167 371.54C564.215 371.364 564.239 371.2 564.239 371.048C564.239 370.664 564.107 370.368 563.843 370.16C563.579 369.944 563.191 369.836 562.679 369.836C562.271 369.836 561.899 369.908 561.563 370.052C561.235 370.196 560.951 370.416 560.711 370.712L559.619 369.872C559.947 369.432 560.387 369.092 560.939 368.852C561.499 368.604 562.123 368.48 562.811 368.48C563.419 368.48 563.947 368.58 564.395 368.78C564.851 368.972 565.199 369.248 565.439 369.608C565.687 369.968 565.811 370.396 565.811 370.892C565.811 371.164 565.775 371.436 565.703 371.708C565.631 371.972 565.495 372.252 565.295 372.548C565.095 372.844 564.803 373.176 564.419 373.544L561.551 376.268L561.227 375.68H566.135V377H559.943ZM570.54 377.12C569.876 377.12 569.276 376.952 568.74 376.616C568.212 376.28 567.796 375.792 567.492 375.152C567.188 374.504 567.036 373.72 567.036 372.8C567.036 371.88 567.188 371.1 567.492 370.46C567.796 369.812 568.212 369.32 568.74 368.984C569.276 368.648 569.876 368.48 570.54 368.48C571.212 368.48 571.812 368.648 572.34 368.984C572.868 369.32 573.284 369.812 573.588 370.46C573.9 371.1 574.056 371.88 574.056 372.8C574.056 373.72 573.9 374.504 573.588 375.152C573.284 375.792 572.868 376.28 572.34 376.616C571.812 376.952 571.212 377.12 570.54 377.12ZM570.54 375.764C570.932 375.764 571.272 375.66 571.56 375.452C571.848 375.236 572.072 374.908 572.232 374.468C572.4 374.028 572.484 373.472 572.484 372.8C572.484 372.12 572.4 371.564 572.232 371.132C572.072 370.692 571.848 370.368 571.56 370.16C571.272 369.944 570.932 369.836 570.54 369.836C570.164 369.836 569.828 369.944 569.532 370.16C569.244 370.368 569.016 370.692 568.848 371.132C568.688 371.564 568.608 372.12 568.608 372.8C568.608 373.472 568.688 374.028 568.848 374.468C569.016 374.908 569.244 375.236 569.532 375.452C569.828 375.66 570.164 375.764 570.54 375.764ZM574.99 377V375.956L578.326 372.788C578.606 372.524 578.814 372.292 578.95 372.092C579.086 371.892 579.174 371.708 579.214 371.54C579.262 371.364 579.286 371.2 579.286 371.048C579.286 370.664 579.154 370.368 578.89 370.16C578.626 369.944 578.238 369.836 577.726 369.836C577.318 369.836 576.946 369.908 576.61 370.052C576.282 370.196 575.998 370.416 575.758 370.712L574.666 369.872C574.994 369.432 575.434 369.092 575.986 368.852C576.546 368.604 577.17 368.48 577.858 368.48C578.466 368.48 578.994 368.58 579.442 368.78C579.898 368.972 580.246 369.248 580.486 369.608C580.734 369.968 580.858 370.396 580.858 370.892C580.858 371.164 580.822 371.436 580.75 371.708C580.678 371.972 580.542 372.252 580.342 372.548C580.142 372.844 579.85 373.176 579.466 373.544L576.598 376.268L576.274 375.68H581.182V377H574.99ZM581.787 375.092V374.012L585.927 368.6H587.595L583.515 374.012L582.735 373.772H589.395V375.092H581.787ZM586.395 377V375.092L586.443 373.772V372.08H587.907V377H586.395Z" fill="#888B8D"/>
<path d="M644.575 377V369.2L645.259 369.908H642.799V368.6H646.135V377H644.575ZM647.693 377V375.956L651.029 372.788C651.309 372.524 651.517 372.292 651.653 372.092C651.789 371.892 651.877 371.708 651.917 371.54C651.965 371.364 651.989 371.2 651.989 371.048C651.989 370.664 651.857 370.368 651.593 370.16C651.329 369.944 650.941 369.836 650.429 369.836C650.021 369.836 649.649 369.908 649.313 370.052C648.985 370.196 648.701 370.416 648.461 370.712L647.369 369.872C647.697 369.432 648.137 369.092 648.689 368.852C649.249 368.604 649.873 368.48 650.561 368.48C651.169 368.48 651.697 368.58 652.145 368.78C652.601 368.972 652.949 369.248 653.189 369.608C653.437 369.968 653.561 370.396 653.561 370.892C653.561 371.164 653.525 371.436 653.453 371.708C653.381 371.972 653.245 372.252 653.045 372.548C652.845 372.844 652.553 373.176 652.169 373.544L649.301 376.268L648.977 375.68H653.885V377H647.693ZM661.27 377.084C660.654 377.084 660.098 376.948 659.602 376.676C659.114 376.396 658.73 376.012 658.45 375.524C658.17 375.036 658.03 374.46 658.03 373.796C658.03 373.132 658.17 372.556 658.45 372.068C658.73 371.58 659.114 371.2 659.602 370.928C660.098 370.656 660.654 370.52 661.27 370.52C661.806 370.52 662.286 370.64 662.71 370.88C663.134 371.112 663.47 371.468 663.718 371.948C663.966 372.428 664.09 373.044 664.09 373.796C664.09 374.54 663.97 375.156 663.73 375.644C663.49 376.124 663.158 376.484 662.734 376.724C662.31 376.964 661.822 377.084 661.27 377.084ZM661.45 375.8C661.81 375.8 662.13 375.72 662.41 375.56C662.698 375.4 662.926 375.168 663.094 374.864C663.27 374.56 663.358 374.204 663.358 373.796C663.358 373.38 663.27 373.024 663.094 372.728C662.926 372.424 662.698 372.192 662.41 372.032C662.13 371.872 661.81 371.792 661.45 371.792C661.09 371.792 660.766 371.872 660.478 372.032C660.198 372.192 659.97 372.424 659.794 372.728C659.626 373.024 659.542 373.38 659.542 373.796C659.542 374.204 659.626 374.56 659.794 374.864C659.97 375.168 660.198 375.4 660.478 375.56C660.766 375.72 661.09 375.8 661.45 375.8ZM663.394 377V375.488L663.454 373.784L663.334 372.08V368.096H664.822V377H663.394ZM669.809 377.084C669.097 377.084 668.473 376.944 667.937 376.664C667.409 376.376 666.997 375.984 666.701 375.488C666.413 374.992 666.269 374.428 666.269 373.796C666.269 373.156 666.409 372.592 666.689 372.104C666.977 371.608 667.369 371.22 667.865 370.94C668.369 370.66 668.941 370.52 669.581 370.52C670.205 370.52 670.761 370.656 671.249 370.928C671.737 371.2 672.121 371.584 672.401 372.08C672.681 372.576 672.821 373.16 672.821 373.832C672.821 373.896 672.817 373.968 672.809 374.048C672.809 374.128 672.805 374.204 672.797 374.276H667.457V373.28H672.005L671.417 373.592C671.425 373.224 671.349 372.9 671.189 372.62C671.029 372.34 670.809 372.12 670.529 371.96C670.257 371.8 669.941 371.72 669.581 371.72C669.213 371.72 668.889 371.8 668.609 371.96C668.337 372.12 668.121 372.344 667.961 372.632C667.809 372.912 667.733 373.244 667.733 373.628V373.868C667.733 374.252 667.821 374.592 667.997 374.888C668.173 375.184 668.421 375.412 668.741 375.572C669.061 375.732 669.429 375.812 669.845 375.812C670.205 375.812 670.529 375.756 670.817 375.644C671.105 375.532 671.361 375.356 671.585 375.116L672.389 376.04C672.101 376.376 671.737 376.636 671.297 376.82C670.865 376.996 670.369 377.084 669.809 377.084ZM681.526 377V375.704L681.442 375.428V373.16C681.442 372.72 681.31 372.38 681.046 372.14C680.782 371.892 680.382 371.768 679.846 371.768C679.486 371.768 679.13 371.824 678.778 371.936C678.434 372.048 678.142 372.204 677.902 372.404L677.314 371.312C677.658 371.048 678.066 370.852 678.538 370.724C679.018 370.588 679.514 370.52 680.026 370.52C680.954 370.52 681.67 370.744 682.174 371.192C682.686 371.632 682.942 372.316 682.942 373.244V377H681.526ZM679.51 377.084C679.03 377.084 678.61 377.004 678.25 376.844C677.89 376.676 677.61 376.448 677.41 376.16C677.218 375.864 677.122 375.532 677.122 375.164C677.122 374.804 677.206 374.48 677.374 374.192C677.55 373.904 677.834 373.676 678.226 373.508C678.618 373.34 679.138 373.256 679.786 373.256H681.646V374.252H679.894C679.382 374.252 679.038 374.336 678.862 374.504C678.686 374.664 678.598 374.864 678.598 375.104C678.598 375.376 678.706 375.592 678.922 375.752C679.138 375.912 679.438 375.992 679.822 375.992C680.19 375.992 680.518 375.908 680.806 375.74C681.102 375.572 681.314 375.324 681.442 374.996L681.694 375.896C681.55 376.272 681.29 376.564 680.914 376.772C680.546 376.98 680.078 377.084 679.51 377.084ZM687.783 379.412C687.191 379.412 686.611 379.332 686.043 379.172C685.483 379.02 685.023 378.796 684.663 378.5L685.335 377.372C685.615 377.604 685.967 377.788 686.391 377.924C686.823 378.068 687.259 378.14 687.699 378.14C688.403 378.14 688.919 377.976 689.247 377.648C689.575 377.328 689.739 376.844 689.739 376.196V375.056L689.859 373.604L689.811 372.152V370.592H691.239V376.028C691.239 377.188 690.943 378.04 690.351 378.584C689.759 379.136 688.903 379.412 687.783 379.412ZM687.591 376.712C686.983 376.712 686.431 376.584 685.935 376.328C685.447 376.064 685.059 375.7 684.771 375.236C684.491 374.772 684.351 374.228 684.351 373.604C684.351 372.988 684.491 372.448 684.771 371.984C685.059 371.52 685.447 371.16 685.935 370.904C686.431 370.648 686.983 370.52 687.591 370.52C688.135 370.52 688.623 370.628 689.055 370.844C689.487 371.06 689.831 371.396 690.087 371.852C690.351 372.308 690.483 372.892 690.483 373.604C690.483 374.316 690.351 374.904 690.087 375.368C689.831 375.824 689.487 376.164 689.055 376.388C688.623 376.604 688.135 376.712 687.591 376.712ZM687.819 375.44C688.195 375.44 688.531 375.364 688.827 375.212C689.123 375.052 689.351 374.836 689.511 374.564C689.679 374.284 689.763 373.964 689.763 373.604C689.763 373.244 689.679 372.928 689.511 372.656C689.351 372.376 689.123 372.164 688.827 372.02C688.531 371.868 688.195 371.792 687.819 371.792C687.443 371.792 687.103 371.868 686.799 372.02C686.503 372.164 686.271 372.376 686.103 372.656C685.943 372.928 685.863 373.244 685.863 373.604C685.863 373.964 685.943 374.284 686.103 374.564C686.271 374.836 686.503 375.052 686.799 375.212C687.103 375.364 687.443 375.44 687.819 375.44ZM696.091 377.084C695.435 377.084 694.851 376.944 694.339 376.664C693.827 376.376 693.423 375.984 693.127 375.488C692.831 374.992 692.683 374.428 692.683 373.796C692.683 373.156 692.831 372.592 693.127 372.104C693.423 371.608 693.827 371.22 694.339 370.94C694.851 370.66 695.435 370.52 696.091 370.52C696.755 370.52 697.343 370.66 697.855 370.94C698.375 371.22 698.779 371.604 699.067 372.092C699.363 372.58 699.511 373.148 699.511 373.796C699.511 374.428 699.363 374.992 699.067 375.488C698.779 375.984 698.375 376.376 697.855 376.664C697.343 376.944 696.755 377.084 696.091 377.084ZM696.091 375.8C696.459 375.8 696.787 375.72 697.075 375.56C697.363 375.4 697.587 375.168 697.747 374.864C697.915 374.56 697.999 374.204 697.999 373.796C697.999 373.38 697.915 373.024 697.747 372.728C697.587 372.424 697.363 372.192 697.075 372.032C696.787 371.872 696.463 371.792 696.103 371.792C695.735 371.792 695.407 371.872 695.119 372.032C694.839 372.192 694.615 372.424 694.447 372.728C694.279 373.024 694.195 373.38 694.195 373.796C694.195 374.204 694.279 374.56 694.447 374.864C694.615 375.168 694.839 375.4 695.119 375.56C695.407 375.72 695.731 375.8 696.091 375.8ZM706.973 377.084C706.357 377.084 705.801 376.948 705.305 376.676C704.817 376.396 704.433 376.012 704.153 375.524C703.873 375.036 703.733 374.46 703.733 373.796C703.733 373.132 703.873 372.556 704.153 372.068C704.433 371.58 704.817 371.2 705.305 370.928C705.801 370.656 706.357 370.52 706.973 370.52C707.509 370.52 707.989 370.64 708.413 370.88C708.837 371.112 709.173 371.468 709.421 371.948C709.669 372.428 709.793 373.044 709.793 373.796C709.793 374.54 709.673 375.156 709.433 375.644C709.193 376.124 708.861 376.484 708.437 376.724C708.013 376.964 707.525 377.084 706.973 377.084ZM707.153 375.8C707.513 375.8 707.833 375.72 708.113 375.56C708.401 375.4 708.629 375.168 708.797 374.864C708.973 374.56 709.061 374.204 709.061 373.796C709.061 373.38 708.973 373.024 708.797 372.728C708.629 372.424 708.401 372.192 708.113 372.032C707.833 371.872 707.513 371.792 707.153 371.792C706.793 371.792 706.469 371.872 706.181 372.032C705.901 372.192 705.673 372.424 705.497 372.728C705.329 373.024 705.245 373.38 705.245 373.796C705.245 374.204 705.329 374.56 705.497 374.864C705.673 375.168 705.901 375.4 706.181 375.56C706.469 375.72 706.793 375.8 707.153 375.8ZM709.097 377V375.488L709.157 373.784L709.037 372.08V368.096H710.525V377H709.097ZM715.512 377.084C714.8 377.084 714.176 376.944 713.64 376.664C713.112 376.376 712.7 375.984 712.404 375.488C712.116 374.992 711.972 374.428 711.972 373.796C711.972 373.156 712.112 372.592 712.392 372.104C712.68 371.608 713.072 371.22 713.568 370.94C714.072 370.66 714.644 370.52 715.284 370.52C715.908 370.52 716.464 370.656 716.952 370.928C717.44 371.2 717.824 371.584 718.104 372.08C718.384 372.576 718.524 373.16 718.524 373.832C718.524 373.896 718.52 373.968 718.512 374.048C718.512 374.128 718.508 374.204 718.5 374.276H713.16V373.28H717.708L717.12 373.592C717.128 373.224 717.052 372.9 716.892 372.62C716.732 372.34 716.512 372.12 716.232 371.96C715.96 371.8 715.644 371.72 715.284 371.72C714.916 371.72 714.592 371.8 714.312 371.96C714.04 372.12 713.824 372.344 713.664 372.632C713.512 372.912 713.436 373.244 713.436 373.628V373.868C713.436 374.252 713.524 374.592 713.7 374.888C713.876 375.184 714.124 375.412 714.444 375.572C714.764 375.732 715.132 375.812 715.548 375.812C715.908 375.812 716.232 375.756 716.52 375.644C716.808 375.532 717.064 375.356 717.288 375.116L718.092 376.04C717.804 376.376 717.44 376.636 717 376.82C716.568 376.996 716.072 377.084 715.512 377.084ZM722.717 377V375.956L726.053 372.788C726.333 372.524 726.541 372.292 726.677 372.092C726.813 371.892 726.901 371.708 726.941 371.54C726.989 371.364 727.013 371.2 727.013 371.048C727.013 370.664 726.881 370.368 726.617 370.16C726.353 369.944 725.965 369.836 725.453 369.836C725.045 369.836 724.673 369.908 724.337 370.052C724.009 370.196 723.725 370.416 723.485 370.712L722.393 369.872C722.721 369.432 723.161 369.092 723.713 368.852C724.273 368.604 724.897 368.48 725.585 368.48C726.193 368.48 726.721 368.58 727.169 368.78C727.625 368.972 727.973 369.248 728.213 369.608C728.461 369.968 728.585 370.396 728.585 370.892C728.585 371.164 728.549 371.436 728.477 371.708C728.405 371.972 728.269 372.252 728.069 372.548C727.869 372.844 727.577 373.176 727.193 373.544L724.325 376.268L724.001 375.68H728.909V377H722.717ZM733.313 377.12C732.649 377.12 732.049 376.952 731.513 376.616C730.985 376.28 730.569 375.792 730.265 375.152C729.961 374.504 729.809 373.72 729.809 372.8C729.809 371.88 729.961 371.1 730.265 370.46C730.569 369.812 730.985 369.32 731.513 368.984C732.049 368.648 732.649 368.48 733.313 368.48C733.985 368.48 734.585 368.648 735.113 368.984C735.641 369.32 736.057 369.812 736.361 370.46C736.673 371.1 736.829 371.88 736.829 372.8C736.829 373.72 736.673 374.504 736.361 375.152C736.057 375.792 735.641 376.28 735.113 376.616C734.585 376.952 733.985 377.12 733.313 377.12ZM733.313 375.764C733.705 375.764 734.045 375.66 734.333 375.452C734.621 375.236 734.845 374.908 735.005 374.468C735.173 374.028 735.257 373.472 735.257 372.8C735.257 372.12 735.173 371.564 735.005 371.132C734.845 370.692 734.621 370.368 734.333 370.16C734.045 369.944 733.705 369.836 733.313 369.836C732.937 369.836 732.601 369.944 732.305 370.16C732.017 370.368 731.789 370.692 731.621 371.132C731.461 371.564 731.381 372.12 731.381 372.8C731.381 373.472 731.461 374.028 731.621 374.468C731.789 374.908 732.017 375.236 732.305 375.452C732.601 375.66 732.937 375.764 733.313 375.764ZM737.764 377V375.956L741.1 372.788C741.38 372.524 741.588 372.292 741.724 372.092C741.86 371.892 741.948 371.708 741.988 371.54C742.036 371.364 742.06 371.2 742.06 371.048C742.06 370.664 741.928 370.368 741.664 370.16C741.4 369.944 741.012 369.836 740.5 369.836C740.092 369.836 739.72 369.908 739.384 370.052C739.056 370.196 738.772 370.416 738.532 370.712L737.44 369.872C737.768 369.432 738.208 369.092 738.76 368.852C739.32 368.604 739.944 368.48 740.632 368.48C741.24 368.48 741.768 368.58 742.216 368.78C742.672 368.972 743.02 369.248 743.26 369.608C743.508 369.968 743.632 370.396 743.632 370.892C743.632 371.164 743.596 371.436 743.524 371.708C743.452 371.972 743.316 372.252 743.116 372.548C742.916 372.844 742.624 373.176 742.24 373.544L739.372 376.268L739.048 375.68H743.956V377H737.764ZM744.56 375.092V374.012L748.7 368.6H750.368L746.288 374.012L745.508 373.772H752.168V375.092H744.56ZM749.168 377V375.092L749.216 373.772V372.08H750.68V377H749.168Z" fill="#888B8D"/>
</g>
<path d="M36 260.906L66 249.552L130 260.906H182L224 260.906L288 249.552L344 239L394 249.552L442 260.906L492 260.906L534 271H592L660 271H748" stroke="#FFEC43" stroke-width="4"/>
<defs>
<clipPath id="clip0_1219_6427">
<rect width="773.25" height="382" fill="white"/>
</clipPath>
</defs>
</svg>
