<svg width="546" height="514" viewBox="0 0 546 514" fill="none" xmlns="http://www.w3.org/2000/svg">
<path d="M10.9433 278.146C10.9433 278.146 14.0396 374.112 94.1494 438.077C174.261 502.041 285.269 506.622 375.136 512.698C465.003 518.775 534.028 467.901 544.432 390.998C554.835 314.096 486.166 291.521 448.908 203.981C411.651 116.442 414.965 87.6662 336.134 33.8265C257.301 -20.0146 133.98 13.0466 69.3237 105.283C4.66572 197.52 10.9433 278.146 10.9433 278.146Z" fill="#272B67"/>
<path opacity="0.7" d="M10.9433 278.146C10.9433 278.146 14.0396 374.112 94.1494 438.077C174.261 502.041 285.269 506.622 375.136 512.698C465.003 518.775 534.028 467.901 544.432 390.998C554.835 314.096 486.166 291.521 448.908 203.981C411.651 116.442 414.965 87.6662 336.134 33.8265C257.301 -20.0146 133.98 13.0466 69.3237 105.283C4.66572 197.52 10.9433 278.146 10.9433 278.146Z" fill="white"/>
<path d="M526.384 297.596H0.113281" stroke="#263238" stroke-width="1.0816" stroke-miterlimit="10"/>
<path d="M495.825 30.2408C495.825 30.2408 495.825 23.6799 486.639 14.4936C477.452 5.30726 471.547 0.059082 471.547 0.059082C471.547 0.059082 466.955 15.1506 475.484 24.3369C484.013 33.5232 495.824 42.0525 495.824 42.0525L495.825 30.2408Z" fill="#272B67"/>
<path d="M482.493 71.2181C482.493 71.2181 482.493 64.6572 473.307 55.4709C464.12 46.2846 458.215 41.0364 458.215 41.0364C458.215 41.0364 453.623 56.1279 462.152 65.3142C470.683 74.5005 482.493 83.0298 482.493 83.0298V71.2181Z" fill="#272B67"/>
<path d="M495.248 41.4168C495.248 41.4168 495.94 34.8918 506.046 26.7283C516.151 18.5647 522.578 13.9683 522.578 13.9683C522.578 13.9683 525.55 29.4601 516.098 37.6941C506.644 45.9268 494 53.162 494 53.162L495.248 41.4168Z" fill="#272B67"/>
<path d="M479.142 89.8102C479.142 89.8102 480.517 83.3943 491.424 76.3373C502.332 69.2803 509.205 65.3848 509.205 65.3848C509.205 65.3848 510.534 81.104 500.269 88.298C490.004 95.492 476.668 101.359 476.668 101.359L479.142 89.8102Z" fill="#272B67"/>
<path d="M482.168 142.574C482.168 142.574 482.168 136.013 491.354 126.827C500.541 117.64 506.446 112.391 506.446 112.391C506.446 112.391 511.038 127.482 502.509 136.669C493.98 145.855 482.168 154.384 482.168 154.384V142.574Z" fill="#272B67"/>
<path d="M482.017 155.454C482.017 155.454 482.949 148.959 475.162 138.56C467.375 128.162 462.275 122.126 462.275 122.126C462.275 122.126 455.584 136.412 462.722 146.717C469.86 157.022 480.338 167.143 480.338 167.143L482.017 155.454Z" fill="#272B67"/>
<path d="M472.957 193.621C472.957 193.621 472.957 187.06 482.143 177.873C491.33 168.687 497.235 163.438 497.235 163.438C497.235 163.438 501.827 178.529 493.298 187.715C484.769 196.902 472.957 205.431 472.957 205.431V193.621Z" fill="#272B67"/>
<path d="M479.09 228.226C479.09 228.226 477.428 221.879 483.989 210.666C490.548 199.453 494.932 192.88 494.932 192.88C494.932 192.88 503.198 206.316 497.273 217.363C491.348 228.409 482.083 239.652 482.083 239.652L479.09 228.226Z" fill="#272B67"/>
<path d="M496.659 28.5596C496.122 35.5727 495.324 42.8291 494.142 48.9325C490.512 67.6935 481.433 79.7978 477.802 96.7433C474.171 113.689 484.596 135.521 481.804 157.285C479.012 179.05 470.54 191.155 472.961 205.68C475.382 220.205 488.091 259.542 488.091 259.542" stroke="#263238" stroke-width="1.0816" stroke-miterlimit="10" stroke-linecap="round" stroke-linejoin="round"/>
<path d="M495.156 45.7764L505.055 38.1794" stroke="#263238" stroke-width="1.0816" stroke-miterlimit="10" stroke-linecap="round" stroke-linejoin="round"/>
<path d="M495.617 37.029L491.473 29.6621" stroke="#263238" stroke-width="1.0816" stroke-miterlimit="10" stroke-linecap="round" stroke-linejoin="round"/>
<path d="M478.352 95.9654C478.352 95.9654 486.64 89.749 495.157 83.5339" stroke="#263238" stroke-width="1.0816" stroke-miterlimit="10" stroke-linecap="round" stroke-linejoin="round"/>
<path d="M482.494 83.0285C482.494 83.0285 475.589 69.4891 467.762 60.5103" stroke="#263238" stroke-width="1.0816" stroke-miterlimit="10" stroke-linecap="round" stroke-linejoin="round"/>
<path d="M482.496 151.908C482.496 151.908 488.943 139.246 500.222 128.195" stroke="#263238" stroke-width="1.0816" stroke-miterlimit="10" stroke-linecap="round" stroke-linejoin="round"/>
<path d="M480.884 161.117C480.884 161.117 476.74 151.218 471.905 144.081C467.071 136.944 466.379 136.024 466.379 136.024" stroke="#263238" stroke-width="1.0816" stroke-miterlimit="10" stroke-linecap="round" stroke-linejoin="round"/>
<path d="M472.961 205.68C472.961 205.68 476.281 197.262 480.425 190.586C484.569 183.909 490.094 177.924 490.094 177.924" stroke="#263238" stroke-width="1.0816" stroke-miterlimit="10" stroke-linecap="round" stroke-linejoin="round"/>
<path d="M482.083 239.652C482.083 239.652 481.112 231.794 484.566 225.118C488.019 218.441 491.933 209.694 493.543 206.24" stroke="#263238" stroke-width="1.0816" stroke-miterlimit="10" stroke-linecap="round" stroke-linejoin="round"/>
<path d="M435.67 117.898C435.67 117.898 434.959 113.783 439.722 107.027C444.484 100.269 447.618 96.3364 447.618 96.3364C447.618 96.3364 452.136 105.302 447.785 111.988C443.434 118.674 436.954 125.305 436.954 125.305L435.67 117.898Z" fill="#272B67"/>
<path d="M448.479 142.147C448.479 142.147 447.768 138.032 452.53 131.274C457.293 124.517 460.426 120.584 460.426 120.584C460.426 120.584 464.944 129.548 460.593 136.235C456.241 142.921 449.761 149.552 449.761 149.552L448.479 142.147Z" fill="#272B67"/>
<path d="M437.247 124.844C437.247 124.844 436.104 120.827 428.881 116.805C421.658 112.782 417.129 110.598 417.129 110.598C417.129 110.598 416.947 120.635 423.769 124.773C430.59 128.909 439.306 132.073 439.306 132.073L437.247 124.844Z" fill="#272B67"/>
<path d="M452.6 153.441C452.6 153.441 451.041 149.567 443.436 146.326C435.83 143.085 431.098 141.387 431.098 141.387C431.098 141.387 431.97 151.389 439.188 154.786C446.406 158.183 455.406 160.414 455.406 160.414L452.6 153.441Z" fill="#272B67"/>
<path d="M456.431 186.858C456.431 186.858 455.719 182.743 448.961 177.98C442.204 173.217 437.93 170.566 437.93 170.566C437.93 170.566 436.688 180.528 443.035 185.363C449.38 190.197 457.713 194.264 457.713 194.264L456.431 186.858Z" fill="#272B67"/>
<path d="M457.925 194.917C457.925 194.917 456.635 190.946 460.389 183.58C464.144 176.215 466.686 171.876 466.686 171.876C466.686 171.876 472.433 180.108 469.076 187.344C465.719 194.581 460.246 202.066 460.246 202.066L457.925 194.917Z" fill="#272B67"/>
<path d="M469.454 228.106C469.454 228.106 469.93 223.958 476.405 218.816C482.879 213.676 486.994 210.786 486.994 210.786C486.994 210.786 488.803 220.661 482.744 225.849C476.684 231.038 468.598 235.574 468.598 235.574L469.454 228.106Z" fill="#272B67"/>
<path d="M467.75 217.868C467.75 217.868 467.038 213.753 460.28 208.99C453.523 204.227 449.251 201.577 449.251 201.577C449.251 201.577 448.008 211.538 454.355 216.373C460.701 221.207 469.033 225.275 469.033 225.275L467.75 217.868Z" fill="#272B67"/>
<path d="M467.658 240.234C467.658 240.234 468.011 236.073 462.68 229.754C457.349 223.435 453.887 219.788 453.887 219.788C453.887 219.788 450.162 229.11 455.078 235.395C459.992 241.679 467.023 247.724 467.023 247.724L467.658 240.234Z" fill="#272B67"/>
<path d="M434.969 116.934C436.067 121.274 437.355 125.737 438.758 129.436C443.071 140.806 450.079 147.411 454.195 157.643C458.312 167.874 454.145 182.697 458.258 196.042C462.372 209.388 468.999 216.058 469.058 225.43C469.117 234.801 465.418 260.849 465.418 260.849" stroke="#263238" stroke-width="1.0816" stroke-miterlimit="10" stroke-linecap="round" stroke-linejoin="round"/>
<path d="M437.779 127.568L430.746 123.878" stroke="#263238" stroke-width="1.0816" stroke-miterlimit="10" stroke-linecap="round" stroke-linejoin="round"/>
<path d="M436.539 122.132L438.337 117.062" stroke="#263238" stroke-width="1.0816" stroke-miterlimit="10" stroke-linecap="round" stroke-linejoin="round"/>
<path d="M453.764 157.216C453.764 157.216 447.892 154.218 441.875 151.244" stroke="#263238" stroke-width="1.0816" stroke-miterlimit="10" stroke-linecap="round" stroke-linejoin="round"/>
<path d="M449.762 149.554C449.762 149.554 452.623 140.314 456.555 133.833" stroke="#263238" stroke-width="1.0816" stroke-miterlimit="10" stroke-linecap="round" stroke-linejoin="round"/>
<path d="M457.238 192.747C457.238 192.747 451.821 185.506 443.547 179.802" stroke="#263238" stroke-width="1.0816" stroke-miterlimit="10" stroke-linecap="round" stroke-linejoin="round"/>
<path d="M459.25 198.346C459.25 198.346 460.774 191.688 463.031 186.689C465.288 181.688 465.621 181.036 465.621 181.036" stroke="#263238" stroke-width="1.0816" stroke-miterlimit="10" stroke-linecap="round" stroke-linejoin="round"/>
<path d="M468.738 232.538C468.738 232.538 473.399 226.824 476.301 224.687C479.201 222.549 481.211 220.416 481.211 220.416" stroke="#263238" stroke-width="1.0816" stroke-miterlimit="10" stroke-linecap="round" stroke-linejoin="round"/>
<path d="M469.057 225.43C469.057 225.43 466.062 220.512 462.738 216.775C459.414 213.039 455.301 209.884 455.301 209.884" stroke="#263238" stroke-width="1.0816" stroke-miterlimit="10" stroke-linecap="round" stroke-linejoin="round"/>
<path d="M467.021 247.724C467.021 247.724 466.777 242.691 463.886 238.879C460.996 235.067 457.592 230.007 456.207 228.016" stroke="#263238" stroke-width="1.0816" stroke-miterlimit="10" stroke-linecap="round" stroke-linejoin="round"/>
<path d="M496.912 305.633H456.474C454.366 305.633 452.657 303.924 452.657 301.816L446.648 256.306H506.739L500.73 301.816C500.729 303.924 499.02 305.633 496.912 305.633Z" fill="#263238"/>
<path d="M506.216 264.144H446.648C444.051 264.144 441.945 262.038 441.945 259.441C441.945 256.843 444.051 254.738 446.648 254.738H506.216C508.814 254.738 510.919 256.843 510.919 259.441C510.919 262.038 508.814 264.144 506.216 264.144Z" fill="#263238"/>
<path d="M448.824 358.954C447.907 358.954 446.973 358.752 446.093 358.324C442.972 356.812 441.669 353.057 443.181 349.939C443.826 348.532 446.778 340.989 438.966 335.989C429.577 329.981 407.745 329.02 400.096 329.133C400.061 329.134 400.024 329.134 399.987 329.134C396.571 329.134 393.772 326.396 393.712 322.967C393.652 319.502 396.41 316.646 399.875 316.584C403.076 316.521 431.472 316.292 445.732 325.418C459.789 334.414 457.598 348.973 454.477 355.415C453.393 357.652 451.153 358.954 448.824 358.954Z" fill="#263238"/>
<path d="M477.765 392.079L476.387 396.763L455.445 362.32L454.895 354.88L477.765 392.079Z" fill="white" stroke="#263238" stroke-width="1.0816" stroke-miterlimit="10" stroke-linecap="round" stroke-linejoin="round"/>
<path d="M476.387 396.763L482.926 393.539L484.102 389.048L477.765 392.079L476.387 396.763Z" fill="white" stroke="#263238" stroke-width="1.0816" stroke-miterlimit="10" stroke-linecap="round" stroke-linejoin="round"/>
<path d="M452.137 351.023L476.385 350.196L484.101 389.048L477.763 392.079L452.137 351.023Z" fill="white" stroke="#263238" stroke-width="1.0816" stroke-miterlimit="10" stroke-linecap="round" stroke-linejoin="round"/>
<path d="M448.832 352.677L473.081 393.457L465.09 397.315L429.27 368.107L448.832 352.677Z" fill="white" stroke="#263238" stroke-width="1.0816" stroke-miterlimit="10" stroke-linecap="round" stroke-linejoin="round"/>
<path d="M465.089 397.315L463.987 401.448L427.891 372.791L429.269 368.107L465.089 397.315Z" fill="white" stroke="#263238" stroke-width="1.0816" stroke-miterlimit="10" stroke-linecap="round" stroke-linejoin="round"/>
<path d="M465.091 397.315L473.081 393.457L471.979 397.591L463.988 401.448L465.091 397.315Z" fill="white" stroke="#263238" stroke-width="1.0816" stroke-miterlimit="10" stroke-linecap="round" stroke-linejoin="round"/>
<path d="M441.305 358.683C441.305 365.471 446.807 370.973 453.595 370.973C460.384 370.973 465.886 365.471 465.886 358.683C465.886 351.895 460.384 346.392 453.595 346.392C446.807 346.392 441.305 351.896 441.305 358.683Z" fill="#272B67" stroke="#263238" stroke-width="1.0816" stroke-miterlimit="10" stroke-linecap="round" stroke-linejoin="round"/>
<path d="M194.598 392.079L195.976 396.764L216.918 362.321L217.468 354.881L194.598 392.079Z" fill="white" stroke="#263238" stroke-width="1.0816" stroke-miterlimit="10" stroke-linecap="round" stroke-linejoin="round"/>
<path d="M195.977 396.763L189.439 393.54L188.262 389.048L194.599 392.079L195.977 396.763Z" fill="white" stroke="#263238" stroke-width="1.0816" stroke-miterlimit="10" stroke-linecap="round" stroke-linejoin="round"/>
<path d="M220.226 351.024L195.977 350.196L188.262 389.048L194.599 392.079L220.226 351.024Z" fill="white" stroke="#263238" stroke-width="1.0816" stroke-miterlimit="10" stroke-linecap="round" stroke-linejoin="round"/>
<path d="M223.534 352.677L199.285 393.457L207.277 397.316L243.098 368.107L223.534 352.677Z" fill="white" stroke="#263238" stroke-width="1.0816" stroke-miterlimit="10" stroke-linecap="round" stroke-linejoin="round"/>
<path d="M207.273 397.316L208.375 401.448L244.472 372.792L243.094 368.107L207.273 397.316Z" fill="white" stroke="#263238" stroke-width="1.0816" stroke-miterlimit="10" stroke-linecap="round" stroke-linejoin="round"/>
<path d="M207.277 397.316L199.285 393.457L200.388 397.591L208.378 401.448L207.277 397.316Z" fill="white" stroke="#263238" stroke-width="1.0816" stroke-miterlimit="10" stroke-linecap="round" stroke-linejoin="round"/>
<path d="M219.558 363.129C217.734 363.129 215.927 362.338 214.686 360.814C212.498 358.126 212.904 354.173 215.593 351.985C265.494 311.379 255.325 250.827 255.216 250.22C254.606 246.809 256.877 243.548 260.289 242.937C263.698 242.323 266.961 244.598 267.572 248.01C268.068 250.784 279.09 316.497 223.516 361.721C222.351 362.668 220.95 363.129 219.558 363.129Z" fill="#263238"/>
<path d="M268.19 257.483C281.766 257.483 292.771 246.478 292.771 232.902C292.771 219.327 281.766 208.321 268.19 208.321C254.615 208.321 243.609 219.327 243.609 232.902C243.609 246.478 254.615 257.483 268.19 257.483Z" fill="#ADADAD" stroke="#263238" stroke-width="1.0816" stroke-miterlimit="10" stroke-linecap="round" stroke-linejoin="round"/>
<path d="M231.058 358.683C231.058 365.471 225.555 370.974 218.767 370.974C211.979 370.974 206.477 365.471 206.477 358.683C206.477 351.895 211.979 346.393 218.767 346.393C225.555 346.393 231.058 351.896 231.058 358.683Z" fill="#272B67" stroke="#263238" stroke-width="1.0816" stroke-miterlimit="10" stroke-linecap="round" stroke-linejoin="round"/>
<path d="M334.014 334.125C355.559 334.125 373.024 317.836 373.024 297.743C373.024 277.649 355.559 261.36 334.014 261.36C312.469 261.36 295.004 277.649 295.004 297.743C295.004 317.836 312.469 334.125 334.014 334.125Z" fill="#ADADAD" stroke="#263238" stroke-width="1.0816" stroke-miterlimit="10" stroke-linecap="round" stroke-linejoin="round"/>
<path d="M313.684 282.2L317.332 296.42C319.548 303.684 326.666 308.3 334.2 307.362C341.729 306.425 347.496 300.212 347.87 292.634L348.579 278.291L313.684 282.2Z" fill="#263238" stroke="#263238" stroke-width="1.0816" stroke-miterlimit="10" stroke-linecap="round" stroke-linejoin="round"/>
<path d="M390.582 210.665C384.262 210.665 380.067 209.296 379.707 209.174L380.711 206.2C380.885 206.257 398.355 211.887 416.134 198.882L417.988 201.414C407.783 208.878 397.798 210.665 390.582 210.665Z" fill="#263238"/>
<path d="M410.182 234.256C395.802 213.221 379.43 214.814 379.27 214.829L378.918 211.711C379.664 211.625 397.346 209.916 412.772 232.484L410.182 234.256Z" fill="#263238"/>
<path d="M406.551 249.108C387.936 243.381 376.734 218.59 376.266 217.537L379.134 216.262C379.243 216.507 390.232 240.805 407.474 246.11L406.551 249.108Z" fill="#263238"/>
<path d="M416.223 200.986L421.247 197.637" stroke="#263238" stroke-width="1.0816" stroke-miterlimit="10"/>
<path d="M410.082 230.579L413.432 237.279" stroke="#263238" stroke-width="1.0816" stroke-miterlimit="10"/>
<path d="M404.219 246.492C404.219 246.492 408.407 247.609 412.314 247.609" stroke="#263238" stroke-width="1.0816" stroke-miterlimit="10"/>
<path d="M263.043 206.046L267.681 238.507L383.19 226.702L382.768 192.977L263.043 206.046Z" fill="white" stroke="#263238" stroke-width="1.0816" stroke-miterlimit="10" stroke-linecap="round" stroke-linejoin="round"/>
<path d="M267.68 238.507L288.336 290.78L377.286 281.927L383.189 226.702L267.68 238.507Z" fill="#E5E5E5" stroke="#263238" stroke-width="1.0816" stroke-miterlimit="10" stroke-linecap="round" stroke-linejoin="round"/>
<path d="M295.549 252.208L303.661 276.158C304.84 279.736 308.381 281.985 312.121 281.528L347.745 277.641C351.45 277.19 354.335 274.207 354.662 270.488L356.877 245.304C357.185 241.789 354.198 238.87 350.689 239.262L300.235 244.905C296.709 245.302 294.44 248.84 295.549 252.208Z" fill="#263238"/>
<mask id="mask0_2611_10119" style="mask-type:luminance" maskUnits="userSpaceOnUse" x="295" y="239" width="62" height="43">
<path d="M295.549 252.208L303.661 276.158C304.84 279.736 308.381 281.985 312.121 281.528L347.745 277.641C351.45 277.19 354.335 274.207 354.662 270.488L356.877 245.304C357.185 241.789 354.198 238.87 350.689 239.262L300.235 244.905C296.709 245.302 294.44 248.84 295.549 252.208Z" fill="white"/>
</mask>
<g mask="url(#mask0_2611_10119)">
<path d="M295.539 265.321L310.258 264.016L314.916 251.348L325.907 271.096L331.497 256.378L334.291 261.036L360.934 257.869" stroke="white" stroke-width="1.0816" stroke-miterlimit="10" stroke-linecap="round" stroke-linejoin="round"/>
</g>
<path d="M295.549 252.208L303.661 276.158C304.84 279.736 308.381 281.985 312.121 281.528L347.745 277.641C351.45 277.19 354.335 274.207 354.662 270.488L356.877 245.304C357.185 241.789 354.198 238.87 350.689 239.262L300.235 244.905C296.709 245.302 294.44 248.84 295.549 252.208Z" stroke="#263238" stroke-width="1.0816" stroke-miterlimit="10" stroke-linecap="round" stroke-linejoin="round"/>
<path d="M369.792 248.423C373.364 248.423 376.26 245.528 376.26 241.956C376.26 238.384 373.364 235.488 369.792 235.488C366.22 235.488 363.324 238.384 363.324 241.956C363.324 245.528 366.22 248.423 369.792 248.423Z" fill="white" stroke="#263238" stroke-width="1.0816" stroke-miterlimit="10" stroke-linecap="round" stroke-linejoin="round"/>
<path d="M375.045 262.169C375.045 265.518 372.33 268.232 368.981 268.232C365.632 268.232 362.918 265.518 362.918 262.169C362.918 258.82 365.632 256.105 368.981 256.105C372.329 256.104 375.045 258.82 375.045 262.169Z" fill="#272B67" stroke="#263238" stroke-width="1.0816" stroke-miterlimit="10" stroke-linecap="round" stroke-linejoin="round"/>
<path d="M291.089 248.983C292.12 252.404 290.183 256.012 286.762 257.043C283.342 258.074 279.733 256.137 278.703 252.717C277.672 249.296 279.608 245.688 283.029 244.657C286.45 243.626 290.058 245.562 291.089 248.983Z" fill="#272B67" stroke="#263238" stroke-width="1.0816" stroke-miterlimit="10" stroke-linecap="round" stroke-linejoin="round"/>
<path d="M295.761 268.684C296.728 271.891 294.913 275.273 291.706 276.24C288.5 277.207 285.117 275.39 284.15 272.185C283.184 268.978 284.999 265.596 288.206 264.629C291.412 263.662 294.794 265.479 295.761 268.684Z" fill="white" stroke="#263238" stroke-width="1.0816" stroke-miterlimit="10" stroke-linecap="round" stroke-linejoin="round"/>
<path d="M310.564 340.189C320.053 340.189 327.745 332.769 327.745 323.615C327.745 314.461 320.053 307.04 310.564 307.04C301.075 307.04 293.383 314.461 293.383 323.615C293.383 332.769 301.075 340.189 310.564 340.189Z" fill="#272B67" stroke="#263238" stroke-width="1.0816" stroke-miterlimit="10" stroke-linecap="round" stroke-linejoin="round"/>
<path d="M285.301 360.806L301.04 325.478C302.438 322.339 305.964 320.742 309.245 321.761C312.618 322.808 314.623 326.268 313.853 329.714L303.491 376.166L285.301 360.806Z" fill="#263238" stroke="#263238" stroke-width="1.0816" stroke-miterlimit="10" stroke-linecap="round" stroke-linejoin="round"/>
<path d="M280.044 306.636L314.405 387.487L273.171 393.146C273.171 393.146 248.512 368.082 231.938 320.38L280.044 306.636Z" fill="#ADADAD" stroke="#263238" stroke-width="1.0816" stroke-miterlimit="10" stroke-linecap="round" stroke-linejoin="round"/>
<path d="M280.043 306.636L281.66 298.955L316.022 381.423L314.405 387.487L280.043 306.636Z" fill="white" stroke="#263238" stroke-width="1.0816" stroke-miterlimit="10" stroke-linecap="round" stroke-linejoin="round"/>
<path d="M281.661 298.955L234.768 313.104L231.938 320.38L280.044 306.636L281.661 298.955Z" fill="white" stroke="#263238" stroke-width="1.0816" stroke-miterlimit="10" stroke-linecap="round" stroke-linejoin="round"/>
<path d="M235.172 328.061L282.469 313.508" stroke="#263238" stroke-width="1.0816" stroke-miterlimit="10" stroke-linecap="round" stroke-linejoin="round"/>
<path d="M238.809 336.55L286.51 323.615" stroke="#263238" stroke-width="1.0816" stroke-miterlimit="10" stroke-linecap="round" stroke-linejoin="round"/>
<path d="M242.449 345.445L290.555 332.509" stroke="#263238" stroke-width="1.0816" stroke-miterlimit="10" stroke-linecap="round" stroke-linejoin="round"/>
<path d="M247.703 356.359L294.596 342.615" stroke="#263238" stroke-width="1.0816" stroke-miterlimit="10" stroke-linecap="round" stroke-linejoin="round"/>
<path d="M252.68 365.032L299.446 352.722" stroke="#263238" stroke-width="1.0816" stroke-miterlimit="10" stroke-linecap="round" stroke-linejoin="round"/>
<path d="M257.812 372.964L303.489 362.019" stroke="#263238" stroke-width="1.0816" stroke-miterlimit="10" stroke-linecap="round" stroke-linejoin="round"/>
<path d="M263.723 380.585L306.319 370.508" stroke="#263238" stroke-width="1.0816" stroke-miterlimit="10" stroke-linecap="round" stroke-linejoin="round"/>
<path d="M267.926 386.807L310.232 379.809" stroke="#263238" stroke-width="1.0816" stroke-miterlimit="10" stroke-linecap="round" stroke-linejoin="round"/>
<path d="M356.333 340.189C365.822 340.189 373.514 332.769 373.514 323.615C373.514 314.461 365.822 307.04 356.333 307.04C346.845 307.04 339.152 314.461 339.152 323.615C339.152 332.769 346.845 340.189 356.333 340.189Z" fill="#272B67" stroke="#263238" stroke-width="1.0816" stroke-miterlimit="10" stroke-linecap="round" stroke-linejoin="round"/>
<path d="M381.599 360.806L365.86 325.48C364.462 322.341 360.937 320.744 357.655 321.762C354.283 322.809 352.277 326.27 353.047 329.716L363.409 376.167L381.599 360.806Z" fill="#263238" stroke="#263238" stroke-width="1.0816" stroke-miterlimit="10" stroke-linecap="round" stroke-linejoin="round"/>
<path d="M386.854 306.636L352.492 387.487L393.726 393.146C393.726 393.146 418.386 368.082 434.96 320.38L386.854 306.636Z" fill="#ADADAD" stroke="#263238" stroke-width="1.0816" stroke-miterlimit="10" stroke-linecap="round" stroke-linejoin="round"/>
<path d="M386.854 306.636L385.237 298.955L350.875 381.423L352.492 387.487L386.854 306.636Z" fill="white" stroke="#263238" stroke-width="1.0816" stroke-miterlimit="10" stroke-linecap="round" stroke-linejoin="round"/>
<path d="M385.238 298.955L432.131 313.104L434.962 320.38L386.856 306.636L385.238 298.955Z" fill="white" stroke="#263238" stroke-width="1.0816" stroke-miterlimit="10" stroke-linecap="round" stroke-linejoin="round"/>
<path d="M431.727 328.061L384.43 313.508" stroke="#263238" stroke-width="1.0816" stroke-miterlimit="10" stroke-linecap="round" stroke-linejoin="round"/>
<path d="M428.09 336.55L380.387 323.615" stroke="#263238" stroke-width="1.0816" stroke-miterlimit="10" stroke-linecap="round" stroke-linejoin="round"/>
<path d="M424.45 345.445L376.344 332.509" stroke="#263238" stroke-width="1.0816" stroke-miterlimit="10" stroke-linecap="round" stroke-linejoin="round"/>
<path d="M419.195 356.359L372.301 342.615" stroke="#263238" stroke-width="1.0816" stroke-miterlimit="10" stroke-linecap="round" stroke-linejoin="round"/>
<path d="M414.216 365.032L367.449 352.722" stroke="#263238" stroke-width="1.0816" stroke-miterlimit="10" stroke-linecap="round" stroke-linejoin="round"/>
<path d="M409.084 372.964L363.406 362.019" stroke="#263238" stroke-width="1.0816" stroke-miterlimit="10" stroke-linecap="round" stroke-linejoin="round"/>
<path d="M403.174 380.585L360.578 370.508" stroke="#263238" stroke-width="1.0816" stroke-miterlimit="10" stroke-linecap="round" stroke-linejoin="round"/>
<path d="M398.974 386.807L356.668 379.809" stroke="#263238" stroke-width="1.0816" stroke-miterlimit="10" stroke-linecap="round" stroke-linejoin="round"/>
<path d="M418.18 237.559L422.646 239.512" stroke="#263238" stroke-width="1.0816" stroke-miterlimit="10"/>
<path d="M415.387 239.233L419.854 246.213" stroke="#263238" stroke-width="1.0816" stroke-miterlimit="10"/>
<path d="M412.876 239.512L412.039 243.98" stroke="#263238" stroke-width="1.0816" stroke-miterlimit="10"/>
<path d="M423.762 210.479H434.649" stroke="#263238" stroke-width="1.0816" stroke-miterlimit="10"/>
<path d="M415.387 211.037L431.021 215.505" stroke="#263238" stroke-width="1.0816" stroke-miterlimit="10"/>
<path d="M421.25 205.174L431.301 203.779" stroke="#263238" stroke-width="1.0816" stroke-miterlimit="10"/>
<path d="M385.238 239.792L388.03 247.889" stroke="#263238" stroke-width="1.0816" stroke-miterlimit="10"/>
<path d="M388.863 239.233L396.681 252.075" stroke="#263238" stroke-width="1.0816" stroke-miterlimit="10"/>
<path d="M391.656 231.696L399.195 234.208" stroke="#263238" stroke-width="1.0816" stroke-miterlimit="10"/>
<path d="M433.253 227.509L430.731 230.247L432.557 233.493L429.172 231.941L426.649 234.679L427.08 230.98L423.695 229.428L427.346 228.695L427.777 224.997L429.603 228.242L433.253 227.509Z" fill="#272B67" stroke="#263238" stroke-width="0.5408" stroke-miterlimit="10" stroke-linecap="round" stroke-linejoin="round"/>
<path d="M437.163 190.657L434.641 193.396L436.466 196.641L433.082 195.089L430.559 197.827L430.99 194.13L427.605 192.577L431.256 191.844L431.687 188.145L433.512 191.39L437.163 190.657Z" fill="#272B67" stroke="#263238" stroke-width="0.5408" stroke-miterlimit="10" stroke-linecap="round" stroke-linejoin="round"/>
<path d="M396.405 255.147L393.882 257.886L395.708 261.132L392.323 259.578L389.802 262.318L390.233 258.619L386.848 257.067L390.498 256.333L390.929 252.635L392.754 255.881L396.405 255.147Z" fill="#272B67" stroke="#263238" stroke-width="0.5408" stroke-miterlimit="10" stroke-linecap="round" stroke-linejoin="round"/>
<path d="M275.9 194.242C286.261 194.242 294.66 185.937 294.66 175.692C294.66 165.448 286.261 157.143 275.9 157.143C265.54 157.143 257.141 165.448 257.141 175.692C257.141 185.937 265.54 194.242 275.9 194.242Z" fill="#ADADAD" stroke="#263238" stroke-width="1.0816" stroke-miterlimit="10" stroke-linecap="round" stroke-linejoin="round"/>
<path d="M357.681 189.184C368.042 189.184 376.441 180.879 376.441 170.634C376.441 160.39 368.042 152.085 357.681 152.085C347.321 152.085 338.922 160.39 338.922 170.634C338.922 180.879 347.321 189.184 357.681 189.184Z" fill="#ADADAD" stroke="#263238" stroke-width="1.0816" stroke-miterlimit="10" stroke-linecap="round" stroke-linejoin="round"/>
<path d="M319.955 232.183C332.993 232.183 343.563 222.085 343.563 209.629C343.563 197.172 332.993 187.074 319.955 187.074C306.917 187.074 296.348 197.172 296.348 209.629C296.348 222.085 306.917 232.183 319.955 232.183Z" fill="#272B67" stroke="#263238" stroke-width="1.0816" stroke-miterlimit="10" stroke-linecap="round" stroke-linejoin="round"/>
<path d="M302.668 198.036L305.925 212.352C307.941 219.673 314.931 224.483 322.488 223.752C330.039 223.022 335.974 216.969 336.556 209.404L337.658 195.086L302.668 198.036Z" fill="#263238" stroke="#263238" stroke-width="1.0816" stroke-miterlimit="10" stroke-linecap="round" stroke-linejoin="round"/>
<path d="M281.17 137.751L272.316 173.163L360.425 165.997L347.356 132.271L281.17 137.751Z" fill="white" stroke="#263238" stroke-width="1.0816" stroke-miterlimit="10" stroke-linecap="round" stroke-linejoin="round"/>
<path d="M272.316 173.163L287.915 211.948L357.052 205.202L360.425 165.997L272.316 173.163Z" fill="#E5E5E5" stroke="#263238" stroke-width="1.0816" stroke-miterlimit="10" stroke-linecap="round" stroke-linejoin="round"/>
<path d="M311.937 188.982C311.707 194.488 306.895 198.828 301.133 199.263C295.338 199.7 289.727 196.103 288.5 190.638C287.098 184.395 291.833 178.254 299.214 177.778C306.541 177.306 312.199 182.703 311.937 188.982Z" fill="#272B67" stroke="#263238" stroke-width="1.0816" stroke-miterlimit="10" stroke-linecap="round" stroke-linejoin="round"/>
<path d="M307.536 189.293C307.563 192.788 304.567 195.648 300.835 195.923C297.09 196.2 293.59 193.8 292.988 190.321C292.335 186.544 295.305 182.998 299.654 182.705C303.986 182.415 307.508 185.501 307.536 189.293Z" fill="white" stroke="#263238" stroke-width="1.0816" stroke-miterlimit="10" stroke-linecap="round" stroke-linejoin="round"/>
<path d="M351.142 185.187C350.912 190.693 346.1 195.033 340.339 195.468C334.544 195.906 328.933 192.308 327.707 186.843C326.305 180.6 331.04 174.459 338.421 173.983C345.748 173.512 351.406 178.908 351.142 185.187Z" fill="#272B67" stroke="#263238" stroke-width="1.0816" stroke-miterlimit="10" stroke-linecap="round" stroke-linejoin="round"/>
<path d="M346.743 185.499C346.77 188.994 343.774 191.853 340.042 192.13C336.297 192.407 332.797 190.007 332.195 186.528C331.542 182.751 334.512 179.205 338.863 178.912C343.193 178.621 346.715 181.707 346.743 185.499Z" fill="white" stroke="#263238" stroke-width="1.0816" stroke-miterlimit="10" stroke-linecap="round" stroke-linejoin="round"/>
<path d="M312.361 204.968C310.768 204.968 309.405 203.761 309.242 202.143C309.07 200.418 310.329 198.881 312.053 198.708L328.914 197.022C330.641 196.838 332.177 198.107 332.35 199.832C332.523 201.556 331.263 203.094 329.54 203.267L312.678 204.954C312.571 204.963 312.465 204.968 312.361 204.968Z" fill="#263238" stroke="#263238" stroke-width="1.0816" stroke-miterlimit="10" stroke-linecap="round" stroke-linejoin="round"/>
<path d="M289.162 148.804C289.162 152.323 286.309 155.176 282.79 155.176C279.271 155.176 276.418 152.323 276.418 148.804C276.418 145.284 279.271 142.432 282.79 142.432C286.309 142.432 289.162 145.284 289.162 148.804Z" fill="#272B67" stroke="#263238" stroke-width="1.0816" stroke-miterlimit="10" stroke-linecap="round" stroke-linejoin="round"/>
<path d="M284.296 145.096C284.296 148.103 281.858 150.541 278.851 150.541C275.844 150.541 273.406 148.103 273.406 145.096C273.406 142.089 275.844 139.651 278.851 139.651C281.858 139.651 284.296 142.089 284.296 145.096Z" fill="#272B67" stroke="#263238" stroke-width="1.0816" stroke-miterlimit="10" stroke-linecap="round" stroke-linejoin="round"/>
<path d="M277.808 139.302C277.808 141.67 275.888 143.589 273.521 143.589C271.154 143.589 269.234 141.67 269.234 139.302C269.234 136.935 271.154 135.016 273.521 135.016C275.887 135.016 277.808 136.935 277.808 139.302Z" fill="#272B67" stroke="#263238" stroke-width="1.0816" stroke-miterlimit="10" stroke-linecap="round" stroke-linejoin="round"/>
<path d="M272.478 137.797L262.746 128.759" stroke="#263238" stroke-width="1.0816" stroke-miterlimit="10" stroke-linecap="round" stroke-linejoin="round"/>
<path d="M338.98 144.4C338.98 147.919 341.833 150.772 345.352 150.772C348.872 150.772 351.725 147.919 351.725 144.4C351.725 140.881 348.872 138.028 345.352 138.028C341.833 138.028 338.98 140.881 338.98 144.4Z" fill="#272B67" stroke="#263238" stroke-width="1.0816" stroke-miterlimit="10" stroke-linecap="round" stroke-linejoin="round"/>
<path d="M343.844 140.693C343.844 143.7 346.282 146.138 349.289 146.138C352.296 146.138 354.734 143.7 354.734 140.693C354.734 137.686 352.296 135.248 349.289 135.248C346.283 135.248 343.844 137.686 343.844 140.693Z" fill="#272B67" stroke="#263238" stroke-width="1.0816" stroke-miterlimit="10" stroke-linecap="round" stroke-linejoin="round"/>
<path d="M350.336 134.9C350.336 137.267 352.255 139.186 354.623 139.186C356.99 139.186 358.909 137.267 358.909 134.9C358.909 132.532 356.99 130.613 354.623 130.613C352.255 130.613 350.336 132.532 350.336 134.9Z" fill="#272B67" stroke="#263238" stroke-width="1.0816" stroke-miterlimit="10" stroke-linecap="round" stroke-linejoin="round"/>
<path d="M355.664 133.394L365.396 124.357" stroke="#263238" stroke-width="1.0816" stroke-miterlimit="10" stroke-linecap="round" stroke-linejoin="round"/>
<path d="M341.395 367.321C341.395 370.39 339.363 372.877 336.856 372.877C334.349 372.877 332.316 370.39 332.316 367.321C332.316 364.253 334.349 361.766 336.856 361.766C339.363 361.766 341.395 364.253 341.395 367.321Z" fill="white" stroke="#263238" stroke-width="1.0816" stroke-miterlimit="10" stroke-linecap="round" stroke-linejoin="round"/>
<path d="M350.387 371.97C350.274 371.97 350.158 371.962 350.043 371.946L337.423 370.1C336.137 369.911 335.248 368.716 335.435 367.43C335.624 366.144 336.82 365.257 338.104 365.442L350.723 367.288C352.011 367.477 352.901 368.671 352.712 369.957C352.54 371.128 351.536 371.97 350.387 371.97Z" fill="white" stroke="#263238" stroke-width="1.0816" stroke-miterlimit="10"/>
<path d="M173.989 393.31C172.345 390.719 172.728 387.531 174.846 386.187C176.963 384.844 180.011 385.856 181.654 388.447C183.298 391.038 182.913 394.226 180.797 395.569C178.681 396.913 175.633 395.9 173.989 393.31Z" fill="white" stroke="#263238" stroke-width="1.0816" stroke-miterlimit="10" stroke-linecap="round" stroke-linejoin="round"/>
<path d="M163.904 394.203C163.999 394.142 164.1 394.088 164.207 394.04L175.851 388.838C177.037 388.309 178.43 388.841 178.959 390.027C179.488 391.214 178.954 392.603 177.77 393.137L166.126 398.338C164.938 398.869 163.546 398.337 163.016 397.151C162.536 396.069 162.933 394.819 163.904 394.203Z" fill="white" stroke="#263238" stroke-width="1.0816" stroke-miterlimit="10"/>
<path d="M475.411 333.727C473.767 331.136 474.151 327.948 476.267 326.605C478.384 325.261 481.433 326.274 483.075 328.864C484.719 331.455 484.336 334.643 482.219 335.987C480.103 337.328 477.054 336.318 475.411 333.727Z" fill="white" stroke="#263238" stroke-width="1.0816" stroke-miterlimit="10" stroke-linecap="round" stroke-linejoin="round"/>
<path d="M465.325 334.619C465.421 334.558 465.522 334.504 465.629 334.456L477.273 329.254C478.459 328.725 479.852 329.257 480.381 330.443C480.91 331.629 480.376 333.019 479.192 333.553L467.548 338.754C466.36 339.285 464.968 338.753 464.438 337.567C463.958 336.485 464.355 335.235 465.325 334.619Z" fill="white" stroke="#263238" stroke-width="1.0816" stroke-miterlimit="10"/>
<path d="M250.474 395.815C245.166 395.815 240.863 398.362 240.863 401.504C240.863 404.645 245.166 407.191 250.474 407.191C255.782 407.191 260.084 404.644 260.084 401.504C260.084 398.362 255.782 395.815 250.474 395.815ZM250.474 404.446C247.729 404.446 245.504 403.129 245.504 401.504C245.504 399.878 247.729 398.562 250.474 398.562C253.219 398.562 255.444 399.878 255.444 401.504C255.444 403.129 253.219 404.446 250.474 404.446Z" fill="white" stroke="#263238" stroke-width="1.0816" stroke-miterlimit="10"/>
<path d="M337.031 396.725L330.464 394.12L323.896 396.725L322.273 402.58L326.818 407.275H334.108L338.652 402.58L337.031 396.725ZM332.314 404.206H328.612L326.305 401.822L327.128 398.848L330.462 397.524L333.798 398.848L334.621 401.822L332.314 404.206Z" fill="white" stroke="#263238" stroke-width="1.0816" stroke-miterlimit="10" stroke-linecap="round" stroke-linejoin="round"/>
<path d="M461.461 311.759L454.893 309.154L448.326 311.759L446.703 317.615L451.248 322.31H458.537L463.082 317.615L461.461 311.759ZM456.745 319.241H453.043L450.736 316.856L451.559 313.882L454.895 312.559L458.23 313.882L459.054 316.856L456.745 319.241Z" fill="white" stroke="#263238" stroke-width="1.0816" stroke-miterlimit="10" stroke-linecap="round" stroke-linejoin="round"/>
<path d="M380.93 410.082C380.75 410.082 380.567 410.052 380.388 409.984C380.17 409.903 379.046 409.43 378.223 408.143C377.5 407.011 376.882 405.006 378.052 401.885C378.94 399.518 380.761 397.858 383.177 397.212C386.055 396.444 389.464 397.222 391.864 399.2C392.534 399.751 392.628 400.74 392.076 401.408C391.527 402.076 390.539 402.171 389.869 401.621C388.249 400.289 385.884 399.733 383.99 400.241C382.991 400.51 381.661 401.202 380.991 402.988C379.815 406.12 381.232 406.929 381.527 407.059C382.304 407.401 382.689 408.309 382.37 409.095C382.123 409.707 381.547 410.082 380.93 410.082Z" fill="white" stroke="#263238" stroke-width="1.0816" stroke-miterlimit="10" stroke-linecap="round" stroke-linejoin="round"/>
<path d="M413.358 415.858C412.875 415.858 412.383 415.784 411.899 415.626L386.372 407.32C383.901 406.515 382.55 403.86 383.353 401.387C384.158 398.917 386.814 397.562 389.286 398.367L414.813 406.673C417.284 407.478 418.635 410.133 417.832 412.606C417.185 414.593 415.341 415.858 413.358 415.858Z" fill="white" stroke="#263238" stroke-width="1.0816" stroke-miterlimit="10" stroke-linecap="round" stroke-linejoin="round"/>
<path d="M385.598 407.098C385.598 407.098 386.611 400.614 394.715 400.412" stroke="#263238" stroke-width="1.0816" stroke-miterlimit="10" stroke-linecap="round" stroke-linejoin="round"/>
<path d="M391.07 408.517C391.07 408.517 392.084 402.034 400.187 401.831" stroke="#263238" stroke-width="1.0816" stroke-miterlimit="10" stroke-linecap="round" stroke-linejoin="round"/>
<path d="M395.934 410.339C395.934 410.339 396.947 403.856 405.051 403.653" stroke="#263238" stroke-width="1.0816" stroke-miterlimit="10" stroke-linecap="round" stroke-linejoin="round"/>
<path d="M400.996 411.758C400.996 411.758 402.01 405.276 410.113 405.072" stroke="#263238" stroke-width="1.0816" stroke-miterlimit="10" stroke-linecap="round" stroke-linejoin="round"/>
<path d="M406.062 413.581C406.062 413.581 407.076 407.099 415.18 406.896" stroke="#263238" stroke-width="1.0816" stroke-miterlimit="10" stroke-linecap="round" stroke-linejoin="round"/>
<path d="M413.344 415.756C413.164 415.756 412.981 415.725 412.802 415.658C412.584 415.576 411.46 415.104 410.637 413.817C409.914 412.685 409.297 410.679 410.466 407.559C411.354 405.192 413.175 403.532 415.591 402.886C418.47 402.118 421.878 402.896 424.278 404.874C424.947 405.423 425.042 406.414 424.49 407.082C423.942 407.749 422.954 407.845 422.283 407.295C420.663 405.963 418.298 405.407 416.404 405.915C415.405 406.184 414.075 406.876 413.405 408.66C412.23 411.793 413.646 412.601 413.941 412.732C414.718 413.073 415.103 413.982 414.784 414.768C414.537 415.38 413.961 415.756 413.344 415.756Z" fill="white" stroke="#263238" stroke-width="1.0816" stroke-miterlimit="10" stroke-linecap="round" stroke-linejoin="round"/>
</svg>
