<svg width="30" height="30" viewBox="0 0 30 30" fill="none" xmlns="http://www.w3.org/2000/svg">
<g clip-path="url(#clip0_2003_696)">
<path d="M29.0625 15C29.0625 8.85937 25.1719 3.65625 19.6875 1.73438V28.2656C25.1719 26.3437 29.0625 21.1406 29.0625 15Z" fill="#ED4C5C"/>
<path d="M0.9375 15C0.9375 21.1406 4.875 26.3437 10.3125 28.2656V1.73438C4.875 3.65625 0.9375 8.85937 0.9375 15Z" fill="#75A843"/>
<path d="M19.6875 1.73438C18.2344 1.21875 16.6406 0.9375 15 0.9375C13.3594 0.9375 11.7656 1.21875 10.3125 1.73438V28.2656C11.7656 28.7812 13.3594 29.0625 15 29.0625C16.6406 29.0625 18.2344 28.7812 19.6875 28.2656V1.73438Z" fill="white"/>
<path d="M19.078 14.8594C19.0311 14.7188 18.9843 14.9062 18.9843 14.9531C18.9843 14.8125 18.9374 14.7188 18.8436 14.5781C18.703 14.7188 18.6561 14.9063 18.6561 15.0938C18.6093 14.9531 18.5624 14.8125 18.4218 14.7656C18.5155 14.9062 18.4686 15 18.4686 15.1406C18.4686 15.3281 18.6093 15.4688 18.6093 15.6563C18.6093 15.8438 18.5155 15.9844 18.3749 16.125V15.9844C17.9061 16.1719 17.9999 16.4063 17.9999 16.8281C17.9999 17.25 17.7655 17.1562 17.4843 17.3906C17.5311 17.2969 17.5311 17.1563 17.4843 17.0625C17.4843 17.3438 17.1093 17.3437 17.0624 17.5781C17.0155 17.6719 17.0624 17.8594 16.9218 17.9063C16.828 17.9531 16.6874 18.0469 16.6874 18.1406C16.5936 18.0938 16.4999 18.0937 16.3593 18.0937C16.4061 18.0469 16.453 18.0469 16.4999 18C16.0311 17.7656 15.8905 18.2812 15.4686 18.3281C15.328 18.3281 14.9999 18.1406 14.9999 18.3281C15.4218 18.3281 15.6093 18.7031 15.9374 18.7031C16.2186 18.7031 16.453 18.4688 16.7343 18.4688C16.6874 18.4688 16.5468 18.375 16.4061 18.375C16.6405 18.2344 16.7811 17.9531 17.0624 17.9531C17.5311 17.9531 17.7655 17.8594 17.9061 17.3906C17.8593 17.3906 17.8124 17.3906 17.7655 17.4375C17.7655 17.25 17.953 17.0156 18.1405 16.9219C18.6093 16.8281 18.5624 16.4531 18.8436 16.125C18.7499 16.125 18.6561 16.1719 18.5624 16.2656C18.5624 15.9844 18.5155 15.7031 18.7499 15.5156C19.2186 15.2812 19.1718 15.1875 19.078 14.8594ZM10.9218 14.8594C10.828 15.2344 10.7811 15.3281 11.1561 15.5625C11.4374 15.75 11.3436 16.0312 11.3436 16.3125C11.2499 16.2187 11.203 16.1719 11.0624 16.1719C11.3436 16.4531 11.2968 16.875 11.7655 16.9688C11.9061 17.0625 12.1405 17.2969 12.1405 17.4844C12.0936 17.4844 12.0468 17.4375 11.9999 17.4375C12.1405 17.9063 12.3749 18 12.8436 18C13.1249 18 13.2655 18.2812 13.4999 18.4219C13.3593 18.4219 13.2186 18.4687 13.1718 18.5156C13.453 18.5156 13.6874 18.7969 13.9686 18.75C14.2968 18.75 14.5311 18.375 14.9061 18.375C14.9061 18.1875 14.578 18.375 14.4374 18.375C14.0624 18.2813 13.9218 17.8125 13.4061 18C13.453 18.0469 13.4999 18.0937 13.5468 18.0937C13.453 18.0937 13.3124 18.0469 13.2186 18.1406C13.1718 18.0469 13.078 17.9531 12.9843 17.9063C12.8905 17.8125 12.8905 17.6719 12.8436 17.5781C12.7499 17.3437 12.4218 17.2969 12.4218 17.0625C12.3749 17.1563 12.3749 17.2969 12.4218 17.3906C12.1405 17.1562 11.9061 17.25 11.9061 16.8281C11.9061 16.4531 11.9999 16.1719 11.5311 15.9844V16.125C11.3905 15.9844 11.2968 15.8906 11.2968 15.6563C11.2968 15.4688 11.4843 15.3281 11.4374 15.1406C11.4374 15 11.3905 14.9062 11.4843 14.7656C11.3436 14.8125 11.2968 14.9531 11.2499 15.0938C11.2499 14.9063 11.203 14.7188 11.0624 14.5781C11.0155 14.6719 10.9686 14.8125 10.9218 14.9531C10.9686 14.8594 10.9218 14.7188 10.9218 14.8594Z" fill="#75A843"/>
<path d="M16.2656 17.6719C16.1719 17.6719 16.125 17.5781 16.0781 17.5313C16.0781 17.4375 16.4531 17.3438 16.5 17.3438V17.25C15.8906 17.4375 14.0625 17.5781 13.6875 16.9219C13.5 17.2031 13.1719 17.0156 12.8438 16.7812C12.8906 16.875 13.0781 17.3438 13.0781 17.2969C13.1719 17.3438 13.7813 17.4844 13.7813 17.625L13.6406 17.7656C14.625 18.0938 15.2344 18.1875 16.2656 17.6719Z" fill="#428BC1"/>
<path d="M15.6563 17.672C15.7031 17.6251 15.7031 17.5782 15.7031 17.4845L15.6563 17.3438C15.75 17.2501 15.6562 17.0157 15.5156 17.0626C15.4219 17.1095 15.4688 17.1095 15.375 17.0626C15.3281 17.0626 15.3281 17.0157 15.2812 17.0157H14.4375C14.3437 17.0157 14.3437 16.9688 14.25 16.9688C14.1562 16.922 14.1094 17.0157 14.0625 17.0626C14.0625 17.1563 14.1094 17.1563 14.1094 17.2032C14.1094 17.2501 14.0625 17.297 14.0625 17.3907C14.0625 17.4845 14.1094 17.5313 14.1563 17.5782C13.9688 17.7188 14.1563 17.9532 14.3438 17.8126C14.3906 17.9063 14.5312 17.9063 14.6719 17.9063H15.1875C15.2813 17.9063 15.4687 17.9532 15.5156 17.8126C15.6562 18.047 15.8438 17.7657 15.6563 17.672Z" fill="#ED4C5C"/>
<path d="M17.1562 16.4531C16.7812 15.9843 16.5937 16.6874 16.1718 16.6406C16.2656 16.0781 15.4218 16.2656 15.1875 16.4062C15.2343 16.3593 15.2812 16.2656 15.3281 16.1718C15.1406 16.1718 14.9062 16.2656 14.7656 16.1249C14.4843 15.9374 14.1093 15.8437 13.875 16.1718C13.6875 15.8906 13.1718 15.6093 12.8906 15.8906C12.8906 15.6093 12.6093 15.1874 12.2812 15.2343C11.9062 15.2812 12.0468 15.7499 12.2343 15.9374C12.375 16.0781 12.5625 16.1249 12.75 16.1249C12.75 16.2187 12.7968 16.2656 12.8437 16.3124C13.0781 16.4999 13.5468 16.5468 13.7812 16.3593C13.7812 16.8281 14.7187 16.8281 14.9531 16.5937C14.8593 16.8281 14.7656 17.2968 15.0937 17.2968C15.375 17.2968 15.2812 17.0156 15.5156 16.9218C15.7031 16.8281 15.9375 16.7812 16.125 16.8749C16.4531 17.0624 17.4843 17.0156 17.1562 16.4531Z" fill="#428BC1"/>
<path d="M13.3126 15.2812C13.2657 15.1874 13.172 15.0937 13.172 15.0937C12.9845 15.1405 12.9845 14.9999 12.9376 14.8593C12.8907 14.6249 12.5626 14.5312 12.5626 14.3437C12.5626 14.1562 12.7501 13.9687 12.6095 13.7812C12.4688 13.5937 12.2345 13.4999 12.2345 13.5937C12.1876 13.6874 12.422 13.6874 12.422 13.9218C12.422 14.203 12.1407 14.4374 12.4688 14.6718C12.6563 14.953 12.6563 15.4687 12.9845 15.4687C13.1251 15.4687 13.2657 15.4218 13.3126 15.2812Z" fill="#75A843"/>
<path d="M14.0158 15.0468C13.922 14.8593 14.0158 14.578 13.8283 14.4374C13.5939 14.2499 13.1252 14.6249 13.0783 14.1562C13.0783 14.0624 13.5939 13.4999 13.6877 13.453C13.8283 13.2655 13.7814 12.9374 13.6408 12.8437C13.4533 12.7499 13.4064 12.8437 13.2658 13.0312C13.3127 13.078 13.5002 13.1718 13.5002 13.2187C13.3595 13.5468 12.9377 13.5937 12.8439 13.9218C12.7502 14.1562 12.797 14.5312 13.0314 14.6718C13.172 14.7655 13.2658 14.7655 13.4064 14.7655C13.8283 14.7187 13.5939 14.8124 13.6408 14.9062C13.6408 14.9999 13.7814 15.328 14.0158 15.0468ZM12.6095 12.7499C12.6095 13.0312 12.8908 12.9843 13.0783 12.9374C13.0783 12.8437 13.0783 12.7499 13.1252 12.6562C13.0314 12.703 12.8908 12.703 12.8439 12.6562C12.7033 12.5624 13.172 12.3749 13.1252 12.3749C13.1252 12.3749 12.6564 12.6093 12.8439 12.328C12.8908 12.2343 12.9845 12.1405 13.0314 12.0468C13.0783 11.953 12.8908 12.0468 12.8908 12.0468C12.8439 12.0468 12.797 12.0468 12.7502 12.0937C12.4689 12.328 12.5627 12.4687 12.6095 12.7499Z" fill="#75A843"/>
<path d="M17.5781 12.75C17.3437 12.4219 16.4531 11.3438 15.1874 11.25C15.0468 11.25 14.6718 11.3906 14.5312 11.4375C14.1093 11.7187 14.9999 11.9531 15.0468 12.1406C15.0468 12.2344 15.0937 12.2812 15.0937 12.375C14.9531 12.1406 14.8124 12 14.7656 11.9062C14.5312 12 14.1562 11.8594 14.1093 11.625C14.0624 11.7187 14.0624 11.7656 13.9687 11.8594C13.9687 11.7187 13.9218 11.7187 13.8749 11.625C13.8749 11.7656 13.8749 11.9531 13.7343 12C13.7812 11.9063 13.7343 11.8125 13.6874 11.7188C13.6874 11.8594 13.6874 11.9531 13.5937 12.0469C13.6406 11.9531 13.5468 11.9063 13.5468 11.8125C13.4999 12.1875 12.9843 12.3281 13.4999 12.4688C13.6874 12.5156 13.7812 12.4687 13.9687 12.5625C14.0156 12.6094 14.1093 12.7031 14.1093 12.6563C14.1093 12.7031 13.9218 12.8906 14.0624 12.9375C14.0156 12.9844 13.8749 13.2656 13.8749 13.2656C14.0156 13.2656 13.9218 13.3594 13.8281 13.4531C13.6874 13.6875 13.8281 13.9219 13.8749 14.2031C13.8749 14.1094 14.0156 14.25 14.0156 14.3906C14.0156 14.5781 14.2031 14.6719 14.2499 14.8125C14.0156 14.5781 13.9687 14.8125 14.2499 14.9531C14.0156 14.9531 13.9687 15.0938 14.2031 15.1875C13.6406 15.1875 14.1093 15.4219 14.2031 15.4688C14.5781 15.5625 14.8593 15.2813 14.8593 15.2344C14.8593 15.2344 15.6093 15.9844 15.6562 15.9844C15.7031 15.9844 16.0781 15.7969 16.1718 15.8906C16.2656 16.0313 16.3593 15.8906 16.4531 15.9375C16.5468 16.0313 16.9218 15.9375 17.0156 15.8906C17.0624 15.8906 17.5312 15.7969 17.4374 15.7031C17.2031 15.5156 16.9218 15.3281 16.6874 15.1406C16.4531 14.9531 16.2187 14.8125 16.0312 14.625C15.9374 14.5313 15.9374 14.3437 15.8906 14.2031C16.3124 14.625 16.7343 14.8594 16.6874 14.0625C16.9687 14.2969 17.5312 15.6094 17.5781 15.6094C17.7187 15.6094 17.5781 14.2031 17.5781 14.0625C17.7656 14.25 17.7656 15.7969 17.8124 15.7969C18.0468 15.8438 18.3749 13.7813 17.5781 12.75Z" fill="#89664C"/>
<path d="M14.2031 15.1405C14.1563 15.1405 13.9219 14.8124 13.9219 14.7655C14.0625 15.328 13.5 14.9999 13.6406 14.7655C13.4531 14.7187 12.9844 14.9999 13.1719 15.2812C13.0781 15.4687 13.8281 15.328 13.875 15.2343C14.0625 15.6562 14.5313 15.1874 14.2031 15.1405ZM16.4063 16.5468C16.6406 16.2187 15.6563 16.1249 15.75 15.7499C15.6094 15.8437 15.4219 16.1718 15.2344 16.078C15.1406 16.0312 14.7656 16.2655 14.9531 16.4062C14.9531 16.2187 15.0469 16.3593 15.1875 16.3124C15.1406 16.453 15 16.5937 15.2344 16.6874C15.1406 16.4062 15.5156 16.5468 15.4688 16.4062C15.375 16.3124 15.7969 16.3124 15.8438 16.3124C15.9844 16.3124 16.4531 16.453 16.2656 16.5937C16.2656 16.5937 16.3594 16.5937 16.4063 16.5468ZM13.2656 12.5155C13.2188 12.6093 13.0312 12.7499 13.0312 12.8905C13.0312 12.9843 13.2656 13.2187 13.3594 13.078C13.0781 12.8905 13.4063 12.7499 13.5469 12.7499C13.5938 12.7499 13.5938 12.8437 13.5938 12.8437C13.6406 12.8905 14.0156 12.7499 13.9688 12.6562C14.0156 12.4687 13.4063 12.4687 13.2656 12.5155Z" fill="#FFCE31"/>
</g>
<defs>
<clipPath id="clip0_2003_696">
<rect width="30" height="30" fill="white"/>
</clipPath>
</defs>
</svg>
