<svg width="210" height="60" viewBox="0 0 210 60" fill="none" xmlns="http://www.w3.org/2000/svg">
<path d="M177.391 20.4435H177.313L172.795 22.7174L171.982 19.1817L178.019 16.2058H181.921V40.9646H177.391V20.4435Z" fill="#272B67"/>
<path d="M199.557 32.0414C199.278 32.1103 198.994 32.1706 198.714 32.218C198.43 32.2654 198.138 32.2869 197.832 32.2869C196.657 32.2869 195.586 32.0759 194.627 31.6538C193.663 31.2318 192.841 30.6547 192.161 29.9268C191.477 29.199 190.952 28.3334 190.578 27.3343C190.204 26.3351 190.014 25.2714 190.014 24.143C190.014 22.8511 190.255 21.6796 190.737 20.6331C191.219 19.5866 191.877 18.6865 192.708 17.9372C193.542 17.1835 194.523 16.6021 195.651 16.193C196.778 15.7839 198 15.5771 199.316 15.5771C200.633 15.5771 201.825 15.7839 202.965 16.193C204.105 16.6021 205.091 17.1878 205.925 17.9372C206.76 18.6908 207.418 19.5866 207.896 20.6331C208.378 21.6796 208.619 22.8511 208.619 24.143C208.619 25.0345 208.537 25.8528 208.373 26.5935C208.21 27.3343 207.99 28.0319 207.719 28.6908C207.448 29.3498 207.134 29.9785 206.769 30.5771C206.403 31.1758 206.024 31.7916 205.624 32.429L200.164 40.9647H193.719L199.566 32.0457L199.557 32.0414ZM195.294 24.3541C195.294 25.4824 195.664 26.4169 196.404 27.1577C197.144 27.8984 198.112 28.2688 199.312 28.2688C200.513 28.2688 201.476 27.8984 202.221 27.1577C202.961 26.4169 203.331 25.4824 203.331 24.3541C203.331 23.2257 202.961 22.2912 202.221 21.5504C201.481 20.8097 200.513 20.4393 199.312 20.4393C198.112 20.4393 197.148 20.8097 196.404 21.5504C195.664 22.2912 195.294 23.2257 195.294 24.3541Z" fill="#272B67"/>
<path d="M76.8524 28.6262C76.8524 35.2541 71.4054 40.5039 64.5471 40.5039C57.6888 40.5039 52.2073 35.2541 52.2073 28.6262C52.2073 21.9983 57.6543 16.783 64.5471 16.783C71.4398 16.783 76.8524 21.9983 76.8524 28.6262ZM54.9308 28.6262C54.9308 33.8415 59.3022 38.0491 64.5428 38.0491C69.7833 38.0491 74.0902 33.8415 74.0902 28.6262C74.0902 23.4109 69.7876 19.2722 64.5428 19.2722C59.2979 19.2722 54.9308 23.4109 54.9308 28.6262Z" fill="#101820"/>
<path d="M104.552 40.4004L99.6087 32.8638C99.1397 32.8982 98.632 32.9327 98.0942 32.9327H91.8426V40.4047H89.1534V16.8474H98.0942C103.976 16.8474 107.371 19.7415 107.371 24.7544C107.371 28.6261 105.456 31.2832 102.057 32.3599L107.603 40.4047H104.544L104.552 40.4004ZM98.0985 30.4391C102.367 30.4391 104.789 28.5227 104.789 24.819C104.789 21.1153 102.367 19.3323 98.0985 19.3323H91.8469V30.4348H98.0985V30.4391Z" fill="#101820"/>
<path d="M135.376 16.8474V19.3366H127.679V40.4004H124.989V19.3366H117.327V16.8474H135.376Z" fill="#101820"/>
<path d="M163.313 16.8474V19.3366H150.035V27.2436H161.902V29.7027H150.035V37.9112H163.752V40.4004H147.346V16.8474H163.313Z" fill="#101820"/>
<path d="M19.9726 0H0V43.6176H19.9726V0Z" fill="#272B67"/>
<path d="M30.3245 43.5616H44.0325V32.6744L30.3245 19.7114V43.5616Z" fill="#272B67"/>
<path d="M44.0325 19.1818V0.017334H23.8663L44.0325 19.1818Z" fill="#272B67"/>
<path d="M58.3686 52.5538C58.971 53.0534 59.2679 53.7467 59.2679 54.6253C59.2679 55.5038 58.9667 56.1929 58.3686 56.6968C57.7663 57.1963 56.9445 57.4504 55.8947 57.4504H53.894V59.9009H52.7366V51.8044H55.8904C56.9359 51.8044 57.762 52.0542 58.3643 52.5581L58.3686 52.5538ZM57.5382 55.9733C57.9255 55.6589 58.1148 55.211 58.1148 54.6253C58.1148 54.0396 57.9212 53.5917 57.5382 53.2773C57.151 52.9672 56.596 52.8079 55.8645 52.8079H53.9026V56.4384H55.8645C56.596 56.4384 57.1553 56.2833 57.5382 55.969V55.9733Z" fill="#101820"/>
<path d="M66.3757 59.8965L64.6332 57.4116C64.4181 57.4288 64.246 57.4331 64.1255 57.4331H62.1248V59.8965H60.9674V51.8H64.1212C65.1667 51.8 65.9928 52.0498 66.5952 52.5537C67.1975 53.0533 67.4944 53.7466 67.4944 54.6252C67.4944 55.2497 67.3395 55.7837 67.034 56.223C66.7286 56.6622 66.2854 56.9809 65.7175 57.1833L67.6364 59.9008H66.3757V59.8965ZM65.7648 55.9775C66.152 55.6631 66.3413 55.2109 66.3413 54.6252C66.3413 54.0395 66.1477 53.5916 65.7648 53.2772C65.3776 52.9671 64.8225 52.8078 64.0911 52.8078H62.1291V56.4512H64.0911C64.8225 56.4512 65.3819 56.2919 65.7648 55.9775Z" fill="#101820"/>
<path d="M70.8117 59.4529C70.1577 59.0954 69.6414 58.6002 69.2714 57.9671C68.9014 57.334 68.712 56.6277 68.712 55.8525C68.712 55.0773 68.897 54.3668 69.2714 53.738C69.6457 53.1049 70.1577 52.6096 70.8117 52.2522C71.4657 51.8947 72.2014 51.7139 73.0189 51.7139C73.8364 51.7139 74.5592 51.8947 75.2132 52.2522C75.8672 52.6096 76.3792 53.1049 76.7493 53.7337C77.1193 54.3624 77.3043 55.0687 77.3043 55.8569C77.3043 56.645 77.1193 57.3513 76.7493 57.98C76.3792 58.6088 75.8672 59.0997 75.2132 59.4615C74.5592 59.819 73.8278 59.9998 73.0189 59.9998C72.21 59.9998 71.4657 59.819 70.8117 59.4615V59.4529ZM74.6195 58.5571C75.0928 58.2858 75.4671 57.9154 75.7425 57.4417C76.0135 56.968 76.1512 56.4382 76.1512 55.8525C76.1512 55.2668 76.0135 54.7371 75.7425 54.2634C75.4671 53.7897 75.0971 53.4193 74.6195 53.148C74.1462 52.8767 73.6127 52.7432 73.0189 52.7432C72.4252 52.7432 71.8873 52.8767 71.4055 53.148C70.9236 53.4193 70.5449 53.7897 70.2739 54.2634C69.9985 54.7371 69.8651 55.2668 69.8651 55.8525C69.8651 56.4382 70.0028 56.968 70.2739 57.4417C70.5449 57.9154 70.9236 58.2858 71.4055 58.5571C71.8873 58.8284 72.4252 58.9619 73.0189 58.9619C73.6127 58.9619 74.1462 58.8284 74.6195 58.5571Z" fill="#101820"/>
<path d="M86.572 59.8965L86.5591 54.0007L83.6376 58.9146H83.1084L80.187 54.0352V59.8965H79.0769V51.8H80.0235L83.3967 57.4891L86.7226 51.8H87.6691L87.6821 59.8965H86.572Z" fill="#101820"/>
<path d="M91.5501 59.4529C90.8961 59.0954 90.3798 58.6002 90.0098 57.9671C89.6397 57.334 89.4504 56.6277 89.4504 55.8525C89.4504 55.0773 89.6354 54.3668 90.0098 53.738C90.3841 53.1049 90.8961 52.6096 91.5501 52.2522C92.2041 51.8947 92.9398 51.7139 93.7573 51.7139C94.5748 51.7139 95.2976 51.8947 95.9516 52.2522C96.6056 52.6096 97.1176 53.1049 97.4876 53.7337C97.8577 54.3624 98.0427 55.0687 98.0427 55.8569C98.0427 56.645 97.8577 57.3513 97.4876 57.98C97.1176 58.6088 96.6056 59.0997 95.9516 59.4615C95.2976 59.819 94.5662 59.9998 93.7573 59.9998C92.9484 59.9998 92.2041 59.819 91.5501 59.4615V59.4529ZM95.3579 58.5571C95.8312 58.2858 96.2055 57.9154 96.4808 57.4417C96.7519 56.968 96.8896 56.4382 96.8896 55.8525C96.8896 55.2668 96.7519 54.7371 96.4808 54.2634C96.2055 53.7897 95.8355 53.4193 95.3579 53.148C94.8846 52.8767 94.3511 52.7432 93.7573 52.7432C93.1636 52.7432 92.6257 52.8767 92.1438 53.148C91.662 53.4193 91.2833 53.7897 91.0123 54.2634C90.7369 54.7371 90.6035 55.2668 90.6035 55.8525C90.6035 56.4382 90.7412 56.968 91.0123 57.4417C91.2833 57.9154 91.662 58.2858 92.1438 58.5571C92.6257 58.8284 93.1636 58.9619 93.7573 58.9619C94.3511 58.9619 94.8846 58.8284 95.3579 58.5571Z" fill="#101820"/>
<path d="M101.3 52.8078H98.5289V51.8H105.219V52.8078H102.444V59.8965H101.3V52.8078Z" fill="#101820"/>
<path d="M107.805 59.4529C107.151 59.0954 106.635 58.6002 106.265 57.9671C105.895 57.334 105.706 56.6277 105.706 55.8525C105.706 55.0773 105.891 54.3668 106.265 53.738C106.639 53.1049 107.151 52.6096 107.805 52.2522C108.459 51.8947 109.195 51.7139 110.012 51.7139C110.83 51.7139 111.553 51.8947 112.207 52.2522C112.861 52.6096 113.373 53.1049 113.743 53.7337C114.113 54.3624 114.298 55.0687 114.298 55.8569C114.298 56.645 114.113 57.3513 113.743 57.98C113.373 58.6088 112.861 59.0997 112.207 59.4615C111.553 59.819 110.821 59.9998 110.012 59.9998C109.204 59.9998 108.459 59.819 107.805 59.4615V59.4529ZM111.613 58.5571C112.086 58.2858 112.461 57.9154 112.736 57.4417C113.007 56.968 113.145 56.4382 113.145 55.8525C113.145 55.2668 113.007 54.7371 112.736 54.2634C112.461 53.7897 112.091 53.4193 111.613 53.148C111.14 52.8767 110.606 52.7432 110.012 52.7432C109.419 52.7432 108.881 52.8767 108.399 53.148C107.917 53.4193 107.538 53.7897 107.267 54.2634C106.992 54.7371 106.859 55.2668 106.859 55.8525C106.859 56.4382 106.996 56.968 107.267 57.4417C107.538 57.9154 107.917 58.2858 108.399 58.5571C108.881 58.8284 109.419 58.9619 110.012 58.9619C110.606 58.9619 111.14 58.8284 111.613 58.5571Z" fill="#101820"/>
<path d="M121.475 59.8965L119.732 57.4116C119.517 57.4288 119.345 57.4331 119.224 57.4331H117.224V59.8965H116.066V51.8H119.22C120.265 51.8 121.092 52.0498 121.694 52.5537C122.296 53.0533 122.593 53.7466 122.593 54.6252C122.593 55.2497 122.438 55.7837 122.133 56.223C121.827 56.6622 121.384 56.9809 120.816 57.1833L122.735 59.9008H121.475V59.8965ZM120.859 55.9775C121.246 55.6631 121.436 55.2109 121.436 54.6252C121.436 54.0395 121.242 53.5916 120.859 53.2772C120.472 52.9671 119.917 52.8078 119.186 52.8078H117.224V56.4512H119.186C119.917 56.4512 120.476 56.2919 120.859 55.9775Z" fill="#101820"/>
<path d="M129.619 57.8724H125.321L124.43 59.8965H123.239L126.9 51.8H128.044L131.719 59.8965H130.506L129.615 57.8724H129.619ZM129.215 56.9465L127.472 52.9801L125.73 56.9465H129.219H129.215Z" fill="#101820"/>
<path d="M136.03 51.8H139.438C140.294 51.8 141.051 51.968 141.714 52.3082C142.376 52.6485 142.888 53.1222 143.254 53.738C143.62 54.3539 143.805 55.0559 143.805 55.8483C143.805 56.6407 143.624 57.347 143.254 57.9585C142.888 58.5701 142.376 59.0481 141.714 59.3883C141.051 59.7286 140.294 59.8965 139.438 59.8965H136.03V51.8ZM139.369 58.8931C140.023 58.8931 140.599 58.7639 141.094 58.5098C141.593 58.2557 141.976 57.8982 142.243 57.4417C142.514 56.9852 142.648 56.4512 142.648 55.8526C142.648 55.254 142.514 54.7199 142.243 54.2634C141.972 53.8069 141.589 53.4495 141.094 53.1954C140.599 52.9413 140.023 52.8121 139.369 52.8121H137.183V58.8931H139.369Z" fill="#101820"/>
<path d="M151.442 58.8932V59.9009H145.573V51.8044H151.283V52.8122H146.731V55.2971H150.784V56.279H146.731V58.8932H151.446H151.442Z" fill="#101820"/>
<path d="M163.377 51.8V59.8965H162.224V56.2876H157.582V59.8965H156.424V51.8H157.582V55.2798H162.224V51.8H163.377Z" fill="#101820"/>
<path d="M167.25 59.4529C166.596 59.0954 166.079 58.6002 165.709 57.9671C165.339 57.334 165.15 56.6277 165.15 55.8525C165.15 55.0773 165.335 54.3668 165.709 53.738C166.084 53.1049 166.596 52.6096 167.25 52.2522C167.904 51.8947 168.639 51.7139 169.457 51.7139C170.274 51.7139 170.997 51.8947 171.651 52.2522C172.305 52.6096 172.817 53.1049 173.187 53.7337C173.557 54.3624 173.742 55.0687 173.742 55.8569C173.742 56.645 173.557 57.3513 173.187 57.98C172.817 58.6088 172.305 59.0997 171.651 59.4615C170.997 59.819 170.266 59.9998 169.457 59.9998C168.648 59.9998 167.904 59.819 167.25 59.4615V59.4529ZM171.053 58.5571C171.526 58.2858 171.901 57.9154 172.176 57.4417C172.447 56.968 172.585 56.4382 172.585 55.8525C172.585 55.2668 172.447 54.7371 172.176 54.2634C171.901 53.7897 171.531 53.4193 171.053 53.148C170.58 52.8767 170.046 52.7432 169.453 52.7432C168.859 52.7432 168.321 52.8767 167.839 53.148C167.357 53.4193 166.979 53.7897 166.708 54.2634C166.432 54.7371 166.299 55.2668 166.299 55.8525C166.299 56.4382 166.436 56.968 166.708 57.4417C166.979 57.9154 167.357 58.2858 167.839 58.5571C168.321 58.8284 168.859 58.9619 169.453 58.9619C170.046 58.9619 170.58 58.8284 171.053 58.5571Z" fill="#101820"/>
<path d="M176.999 52.8078H174.228V51.8H180.919V52.8078H178.144V59.8965H176.999V52.8078Z" fill="#101820"/>
<path d="M188.044 58.8932V59.9009H182.175V51.8044H187.885V52.8122H183.333V55.2971H187.386V56.279H183.333V58.8932H188.048H188.044Z" fill="#101820"/>
<path d="M189.916 51.8H191.073V58.8888H195.453V59.8965H189.92V51.8H189.916Z" fill="#101820"/>
<path d="M202.647 58.8932V59.9009H196.778V51.8044H202.488V52.8122H197.936V55.2971H201.989V56.279H197.936V58.8932H202.651H202.647Z" fill="#101820"/>
<path d="M205.112 59.707C204.544 59.5176 204.101 59.2721 203.779 58.9706L204.205 58.0705C204.514 58.3461 204.906 58.5744 205.388 58.7467C205.87 58.9189 206.364 59.0051 206.872 59.0051C207.543 59.0051 208.042 58.8931 208.374 58.6648C208.705 58.4366 208.869 58.1351 208.869 57.7561C208.869 57.4805 208.778 57.2523 208.597 57.08C208.417 56.9077 208.193 56.7742 207.926 56.6795C207.659 56.589 207.285 56.4814 206.799 56.3651C206.188 56.2187 205.698 56.0722 205.328 55.9258C204.953 55.7794 204.635 55.5554 204.368 55.2497C204.101 54.9439 203.968 54.5348 203.968 54.018C203.968 53.5873 204.08 53.1954 204.308 52.8509C204.536 52.5064 204.88 52.2264 205.34 52.0197C205.801 51.813 206.377 51.7053 207.061 51.7053C207.539 51.7053 208.008 51.7656 208.473 51.8905C208.933 52.0154 209.333 52.192 209.664 52.4245L209.282 53.3505C208.942 53.1351 208.58 52.9715 208.197 52.8595C207.81 52.7475 207.436 52.6915 207.066 52.6915C206.412 52.6915 205.921 52.8121 205.594 53.049C205.267 53.2859 205.104 53.5959 205.104 53.9749C205.104 54.2505 205.194 54.4788 205.379 54.6511C205.564 54.8233 205.792 54.9611 206.068 55.0559C206.343 55.1506 206.713 55.254 207.182 55.3616C207.789 55.5081 208.279 55.6545 208.649 55.8009C209.019 55.9474 209.338 56.1713 209.6 56.4728C209.867 56.7742 210 57.1791 210 57.6872C210 58.1093 209.884 58.4969 209.652 58.85C209.419 59.2032 209.071 59.4788 208.602 59.6812C208.133 59.8836 207.556 59.987 206.868 59.987C206.261 59.987 205.672 59.8922 205.108 59.7027L205.112 59.707Z" fill="#101820"/>
</svg>
