<svg width="119" height="30" viewBox="0 0 119 30" fill="none" xmlns="http://www.w3.org/2000/svg">
<g clip-path="url(#clip0_2336_1576)">
<path d="M11.5152 22.0166L11.4132 10.1316H16.0753V29.6319H11.851L4.56008 17.8797L4.66397 29.6319H0V10.1316H4.20017L11.5171 22.0166H11.5152Z" fill="white"/>
<path d="M17.6987 20.0924C17.6987 13.7143 22.4907 9.76343 27.7465 9.76343C33.6201 9.76343 37.8202 14.4544 37.8202 19.8817C37.8202 25.309 33.646 30 27.7224 30C21.7987 30 17.7006 25.1249 17.7006 20.1189V20.0924H17.6987ZM22.5686 19.8551C22.5686 22.8326 24.5518 25.6259 27.8244 25.6259C31.2769 25.6259 32.9503 22.4113 32.9503 19.9083C32.9503 17.4053 31.2751 14.1375 27.7725 14.1375C24.2699 14.1375 22.5686 17.0884 22.5686 19.8286V19.8551Z" fill="white"/>
<path d="M39.4175 10.1316H45.6528C48.6415 10.1316 50.4967 10.6857 51.5523 11.5283C53.1497 12.794 53.8713 14.7163 53.8713 16.8512C53.8713 18.3541 53.4595 19.5136 52.9178 20.3827C52.274 21.4112 51.3464 22.0697 50.4448 22.4644L54.3871 29.6319H49.3632L44.3913 20.2252H45.189C46.4264 20.2252 47.482 20.1189 48.1258 19.6977C48.7176 19.3029 49.2074 18.3807 49.2074 17.299C49.2074 16.2174 48.7176 15.4545 48.0738 15.0332C47.5321 14.6917 46.7604 14.5057 46.0906 14.5057H44.2874V29.6319H39.4175V10.1316Z" fill="white"/>
<path d="M58.5334 14.5057H54.7729V10.1316H67.1397V14.5057H63.4033V29.6319H58.5353V14.5057H58.5334Z" fill="white"/>
<path d="M69.0952 10.1316H79.8888V14.5057H73.9633V17.5362H79.7088V21.9103H73.9633V25.2578H79.8888V29.6319H69.0952V10.1316Z" fill="white"/>
<path d="M87.7954 14.3216H84.6787V10.1316H92.6653V29.6319H87.7954V14.3216Z" fill="white"/>
<path d="M97.0955 29.6319L100.548 24.8099C100.806 24.4418 101.064 24.0983 101.296 23.7567C101.27 23.7302 100.678 23.8099 100.316 23.8099C97.5334 23.8099 94.3127 21.6219 94.3127 17.1946C94.3127 12.7674 97.6874 9.76343 101.706 9.76343C104.101 9.76343 106.318 10.6591 107.605 12.3993C108.817 13.7959 109.229 15.798 109.229 17.3009C109.229 19.2764 108.431 21.0165 107.477 22.5195L102.737 29.6338H97.0955V29.6319ZM104.438 16.798C104.438 15.0332 103.047 14.1356 101.811 14.1356C100.42 14.1356 99.1845 15.1888 99.1845 16.7449C99.1845 18.0106 100.086 19.4073 101.811 19.4073C103.409 19.4073 104.438 18.1947 104.438 16.8246V16.798Z" fill="white"/>
<path d="M87.8418 14.1716H84.7251V9.98163H92.7099V29.48H87.8418V14.1716Z" fill="white"/>
<path d="M97.142 29.4801L100.595 24.6581C100.852 24.29 101.11 23.9465 101.342 23.6049C101.316 23.5784 100.724 23.6581 100.363 23.6581C97.5799 23.6581 94.3611 21.4701 94.3611 17.0447C94.3611 12.6194 97.7357 9.61353 101.754 9.61353C104.149 9.61353 106.366 10.5092 107.654 12.2494C108.865 13.646 109.277 15.6481 109.277 17.151C109.277 19.1265 108.477 20.8666 107.526 22.3677L102.786 29.482H97.1439L97.142 29.4801ZM104.485 16.6481C104.485 14.8833 103.094 13.9876 101.858 13.9876C100.467 13.9876 99.231 15.0408 99.231 16.5969C99.231 17.8626 100.133 19.2574 101.858 19.2574C103.455 19.2574 104.485 18.0448 104.485 16.6747V16.6481Z" fill="white"/>
<path d="M109.277 4.97375V0L104.414 0V4.97375H109.277Z" fill="white"/>
<path d="M114.139 4.97374V0L109.277 0V4.97374H114.139Z" fill="white"/>
<path d="M119 4.97375V0L114.138 0V4.97375H119Z" fill="white"/>
<path d="M119.002 9.89624V4.92249H114.139V9.89624H119.002Z" fill="white"/>
<path d="M119 14.8169V9.84314H114.138V14.8169H119Z" fill="white"/>
<path d="M1.03332 3.48601C0.855217 3.38733 0.716077 3.2507 0.614041 3.07611C0.512004 2.89963 0.461914 2.69848 0.461914 2.47076C0.461914 2.24304 0.512004 2.03999 0.614041 1.86351C0.716077 1.68703 0.855217 1.5504 1.03332 1.45172C1.21142 1.35304 1.40992 1.3056 1.62884 1.3056C1.84775 1.3056 2.0444 1.35494 2.22064 1.45172C2.39689 1.5504 2.53603 1.68703 2.63806 1.86351C2.7401 2.03999 2.79019 2.24304 2.79019 2.47076C2.79019 2.69848 2.7401 2.89963 2.63806 3.07611C2.53603 3.2526 2.39689 3.38923 2.22064 3.48601C2.0444 3.58468 1.84775 3.63213 1.62884 3.63213C1.40992 3.63213 1.21142 3.58279 1.03332 3.48601ZM1.97019 3.09889C2.07408 3.04006 2.15571 2.95656 2.21508 2.85029C2.2763 2.74213 2.30598 2.61688 2.30598 2.47266C2.30598 2.32844 2.2763 2.20509 2.21693 2.09692C2.15757 1.98876 2.07594 1.90716 1.9739 1.84833C1.87001 1.7895 1.75499 1.76104 1.62884 1.76104C1.50268 1.76104 1.38395 1.7895 1.28006 1.84833C1.17617 1.90716 1.09454 1.99066 1.03517 2.09692C0.973949 2.20509 0.944266 2.33034 0.944266 2.47266C0.944266 2.61498 0.973949 2.74402 1.03517 2.85029C1.09639 2.95846 1.17802 3.04006 1.28191 3.09889C1.3858 3.15771 1.50083 3.18618 1.62884 3.18618C1.75684 3.18618 1.86816 3.15771 1.97019 3.09889Z" fill="white"/>
<path d="M5.15933 1.35303H6.07765C6.32439 1.35303 6.5229 1.41945 6.67131 1.55228C6.81973 1.68512 6.89208 1.86919 6.89208 2.1064C6.89208 2.3436 6.81788 2.53527 6.67131 2.66431C6.52475 2.79335 6.32625 2.85976 6.0758 2.85976H5.6324V3.58467H5.15747V1.35303H5.15933ZM6.00715 2.45556C6.27616 2.45556 6.40973 2.33981 6.40973 2.10829C6.40973 1.97925 6.37448 1.88817 6.30213 1.83693C6.22978 1.78569 6.13145 1.76102 6.00715 1.76102H5.6324V2.45746H6.00715V2.45556Z" fill="white"/>
<path d="M9.21655 1.35303H10.7304V1.75913H9.69148V2.27718H10.4558V2.6662H9.69148V3.18047H10.7304V3.58657H9.21655V1.35303Z" fill="white"/>
<path d="M13.0681 1.35303H14.0143C14.261 1.35303 14.454 1.41565 14.5931 1.54279C14.7322 1.66994 14.8009 1.85211 14.8009 2.09121C14.8009 2.25631 14.7638 2.39863 14.6877 2.51439C14.6135 2.63015 14.5059 2.71554 14.3686 2.76868L14.7842 3.58657H14.2981L13.9141 2.8294H13.543V3.58657H13.0681V1.35303ZM13.9308 2.4233C14.0514 2.4233 14.146 2.39674 14.2165 2.3436C14.287 2.29047 14.3204 2.20697 14.3204 2.09121C14.3204 1.96976 14.287 1.88437 14.2165 1.83503C14.1478 1.78569 14.0514 1.75913 13.9289 1.75913H13.5412V2.4233H13.9289H13.9308Z" fill="white"/>
<path d="M17.8452 1.35303H18.3109L19.181 3.58467H18.6968L18.5094 3.09887H17.6449L17.4575 3.58467H16.9714L17.8452 1.35303ZM18.3851 2.71364L18.0753 1.8635L17.7655 2.71364H18.3832H18.3851Z" fill="white"/>
<path d="M21.55 1.35303H22.3088C22.5463 1.35303 22.7522 1.39857 22.9303 1.48776C23.1066 1.57695 23.2438 1.70409 23.3385 1.87109C23.4349 2.03618 23.4813 2.23354 23.4813 2.45936C23.4813 2.8294 23.3756 3.11025 23.1641 3.30002C22.9526 3.48978 22.6595 3.58657 22.2829 3.58657H21.55V1.35303ZM22.3088 3.18047C22.5314 3.18047 22.7021 3.11595 22.8209 2.9888C22.9396 2.86166 22.999 2.68518 22.999 2.45936C22.999 2.32463 22.973 2.20507 22.921 2.09881C22.8691 1.99254 22.793 1.90904 22.6929 1.85021C22.5927 1.79139 22.4758 1.76102 22.3404 1.76102H22.025V3.18237H22.3088V3.18047Z" fill="white"/>
<path d="M26.3605 3.48601C26.1824 3.38733 26.0432 3.2507 25.9412 3.07611C25.8392 2.89963 25.7891 2.69848 25.7891 2.47076C25.7891 2.24304 25.8392 2.03999 25.9412 1.86351C26.0432 1.68703 26.1824 1.5504 26.3605 1.45172C26.5386 1.35304 26.7371 1.3056 26.956 1.3056C27.1749 1.3056 27.3716 1.35494 27.5478 1.45172C27.724 1.5504 27.8632 1.68703 27.9652 1.86351C28.0673 2.03999 28.1173 2.24304 28.1173 2.47076C28.1173 2.69848 28.0673 2.89963 27.9652 3.07611C27.8632 3.2526 27.724 3.38923 27.5478 3.48601C27.3716 3.58468 27.1749 3.63213 26.956 3.63213C26.7371 3.63213 26.5386 3.58279 26.3605 3.48601ZM27.2973 3.09889C27.4012 3.04006 27.4829 2.95656 27.5422 2.85029C27.6035 2.74213 27.6331 2.61688 27.6331 2.47266C27.6331 2.32844 27.6035 2.20509 27.5441 2.09692C27.4847 1.98876 27.4031 1.90716 27.3011 1.84833C27.1972 1.7895 27.0821 1.76104 26.956 1.76104C26.8298 1.76104 26.7111 1.7895 26.6072 1.84833C26.5033 1.90716 26.4217 1.99066 26.3623 2.09692C26.3011 2.20509 26.2714 2.33034 26.2714 2.47266C26.2714 2.61498 26.3011 2.74402 26.3623 2.85029C26.4235 2.95846 26.5052 3.04006 26.6091 3.09889C26.713 3.15771 26.828 3.18618 26.956 3.18618C27.084 3.18618 27.1953 3.15771 27.2973 3.09889Z" fill="white"/>
<path d="M30.4866 1.35303H31.4327C31.6795 1.35303 31.8724 1.41565 32.0115 1.54279C32.1507 1.66994 32.2193 1.85211 32.2193 2.09121C32.2193 2.25631 32.1822 2.39863 32.1062 2.51439C32.032 2.63015 31.9244 2.71554 31.7871 2.76868L32.2026 3.58657H31.7166L31.3325 2.8294H30.9615V3.58657H30.4866V1.35303ZM31.3474 2.4233C31.468 2.4233 31.5626 2.39674 31.6331 2.3436C31.7036 2.29047 31.737 2.20697 31.737 2.09121C31.737 1.96976 31.7036 1.88437 31.6331 1.83503C31.5644 1.78569 31.468 1.75913 31.3455 1.75913H30.9578V2.4233H31.3455H31.3474Z" fill="white"/>
<path d="M35.2617 1.35303H35.7274L36.5975 3.58467H36.1133L35.9259 3.09887H35.0614L34.874 3.58467H34.3879L35.2617 1.35303ZM35.8016 2.71364L35.4918 1.8635L35.182 2.71364H35.7997H35.8016Z" fill="white"/>
<path d="M42.1667 1.35303H42.6417V2.24682H43.5934V1.35303H44.0683V3.58467H43.5934V2.64912H42.6417V3.58467H42.1667V1.35303Z" fill="white"/>
<path d="M47.0089 3.48601C46.8308 3.38733 46.6917 3.2507 46.5896 3.07611C46.4876 2.89963 46.4375 2.69848 46.4375 2.47076C46.4375 2.24304 46.4876 2.03999 46.5896 1.86351C46.6917 1.68703 46.8308 1.5504 47.0089 1.45172C47.187 1.35304 47.3855 1.3056 47.6044 1.3056C47.8233 1.3056 48.02 1.35494 48.1962 1.45172C48.3725 1.5504 48.5116 1.68703 48.6137 1.86351C48.7157 2.03999 48.7658 2.24304 48.7658 2.47076C48.7658 2.69848 48.7157 2.89963 48.6137 3.07611C48.5116 3.2526 48.3725 3.38923 48.1962 3.48601C48.02 3.58468 47.8233 3.63213 47.6044 3.63213C47.3855 3.63213 47.187 3.58279 47.0089 3.48601ZM47.9458 3.09889C48.0497 3.04006 48.1313 2.95656 48.1907 2.85029C48.2519 2.74213 48.2816 2.61688 48.2816 2.47266C48.2816 2.32844 48.2519 2.20509 48.1925 2.09692C48.1332 1.98876 48.0515 1.90716 47.9495 1.84833C47.8456 1.7895 47.7306 1.76104 47.6044 1.76104C47.4783 1.76104 47.3595 1.7895 47.2556 1.84833C47.1518 1.90716 47.0701 1.99066 47.0108 2.09692C46.9495 2.20509 46.9199 2.33034 46.9199 2.47266C46.9199 2.61498 46.9495 2.74402 47.0108 2.85029C47.072 2.95846 47.1536 3.04006 47.2575 3.09889C47.3614 3.15771 47.4764 3.18618 47.6044 3.18618C47.7324 3.18618 47.8437 3.15771 47.9458 3.09889Z" fill="white"/>
<path d="M51.4838 1.75913H50.8474V1.35303H52.595V1.75913H51.9587V3.58467H51.4838V1.75913Z" fill="white"/>
<path d="M54.9121 1.35303H56.426V1.75913H55.387V2.27718H56.1514V2.6662H55.387V3.18047H56.426V3.58657H54.9121V1.35303Z" fill="white"/>
<path d="M58.7634 1.35303H59.2384V3.17857H60.2365V3.58467H58.7634V1.35303Z" fill="white"/>
<path d="M62.4998 1.35303H64.0136V1.75913H62.9747V2.27718H63.739V2.6662H62.9747V3.18047H64.0136V3.58657H62.4998V1.35303Z" fill="white"/>
<path d="M66.3512 1.35303H67.2974C67.5441 1.35303 67.7371 1.41565 67.8762 1.54279C68.0153 1.66994 68.084 1.85211 68.084 2.09121C68.084 2.25631 68.0469 2.39863 67.9708 2.51439C67.8966 2.63015 67.789 2.71554 67.6517 2.76868L68.0673 3.58657H67.5794L67.1953 2.8294H66.8243V3.58657H66.3494V1.35303H66.3512ZM67.212 2.4233C67.3326 2.4233 67.4272 2.39674 67.4977 2.3436C67.5682 2.29047 67.6016 2.20697 67.6016 2.09121C67.6016 1.96976 67.5664 1.88437 67.4977 1.83503C67.4291 1.78569 67.3326 1.75913 67.2102 1.75913H66.8224V2.4233H67.2102H67.212Z" fill="white"/>
<path d="M71.1265 1.35303H71.5921L72.4622 3.58467H71.978L71.7906 3.09887H70.9261L70.7387 3.58467H70.2527L71.1265 1.35303ZM71.6682 2.71364L71.3584 1.8635L71.0486 2.71364H71.6663H71.6682Z" fill="white"/>
</g>
<defs>
<clipPath id="clip0_2336_1576">
<rect width="119" height="30" fill="white"/>
</clipPath>
</defs>
</svg>
