<svg width="53" height="54" viewBox="0 0 53 54" fill="none" xmlns="http://www.w3.org/2000/svg">
<g clip-path="url(#clip0_404_6737)">
<path d="M36.4375 4.91667H35.2229C34.7106 2.39917 32.4802 0.5 29.8125 0.5H23.1875C20.5198 0.5 18.2916 2.39917 17.7771 4.91667H16.5625C11.0836 4.91667 6.625 9.37529 6.625 14.8542V43.5625C6.625 49.0414 11.0836 53.5 16.5625 53.5H36.4375C41.9164 53.5 46.375 49.0414 46.375 43.5625V14.8542C46.375 9.37529 41.9164 4.91667 36.4375 4.91667ZM44.1667 43.5625C44.1667 47.8246 40.6996 51.2917 36.4375 51.2917H16.5625C12.3004 51.2917 8.83333 47.8246 8.83333 43.5625V14.8542C8.83333 10.5921 12.3004 7.125 16.5625 7.125H18.7708C19.3803 7.125 19.875 6.63033 19.875 6.02083C19.875 4.19454 21.3612 2.70833 23.1875 2.70833H29.8125C31.6388 2.70833 33.125 4.19454 33.125 6.02083C33.125 6.63033 33.6197 7.125 34.2292 7.125H36.4375C40.6996 7.125 44.1667 10.5921 44.1667 14.8542V43.5625ZM26.5 29.2083C30.1526 29.2083 33.125 26.2359 33.125 22.5833C33.125 18.9307 30.1526 15.9583 26.5 15.9583C22.8474 15.9583 19.875 18.9307 19.875 22.5833C19.875 26.2359 22.8474 29.2083 26.5 29.2083ZM26.5 18.1667C28.9358 18.1667 30.9167 20.1475 30.9167 22.5833C30.9167 25.0191 28.9358 27 26.5 27C24.0642 27 22.0833 25.0191 22.0833 22.5833C22.0833 20.1475 24.0642 18.1667 26.5 18.1667ZM37.5085 39.9828C37.6543 40.5746 37.2943 41.1753 36.7025 41.321C36.612 41.3431 36.5236 41.3542 36.4353 41.3542C35.9406 41.3542 35.4901 41.0185 35.3642 40.5172C34.3727 36.5245 30.645 33.625 26.4978 33.625C22.3505 33.625 18.6229 36.5223 17.6313 40.5172C17.4834 41.109 16.8827 41.4602 16.2931 41.3232C15.7012 41.1775 15.3413 40.5768 15.487 39.985C16.7193 35.0207 21.3502 31.4189 26.4956 31.4189C31.641 31.4189 36.2719 35.0207 37.5041 39.985L37.5085 39.9828Z" fill="#272B67"/>
</g>
<defs>
<clipPath id="clip0_404_6737">
<rect width="53" height="53" fill="white" transform="translate(0 0.5)"/>
</clipPath>
</defs>
</svg>
