<svg width="32" height="47" viewBox="0 0 32 47" fill="none" xmlns="http://www.w3.org/2000/svg">
<path fill-rule="evenodd" clip-rule="evenodd" d="M13.6596 6.44696C14.3714 6.03674 15.1785 5.8208 16 5.8208C16.8215 5.8208 17.6285 6.03672 18.3403 6.4469L18.3434 6.44872L29.6566 12.9134C30.2388 13.2495 30.7404 13.7061 31.1288 14.2506C31.2201 14.3404 31.3009 14.4438 31.3681 14.56C31.4263 14.6607 31.4711 14.7654 31.5031 14.8721C31.8286 15.5214 31.9993 16.2387 32 16.9675V29.8983C31.9992 30.7202 31.7822 31.5289 31.3709 32.2405C30.9596 32.9521 30.3684 33.543 29.6566 33.9539L29.6509 33.9572L18.3434 40.4186L18.3403 40.4204C17.8367 40.7106 17.2853 40.9036 16.7149 40.9917C16.5038 41.111 16.2599 41.1792 16 41.1792C15.7401 41.1792 15.4962 41.111 15.2851 40.9917C14.7146 40.9036 14.1632 40.7106 13.6596 40.4203L13.6566 40.4186L2.34905 33.9572L2.34344 33.9539C1.63165 33.543 1.04044 32.9521 0.629123 32.2405C0.217806 31.5289 0.000843742 30.7217 0 29.8998V16.969C0.000747288 16.2404 0.171352 15.5221 0.49665 14.8727C0.528623 14.7657 0.573488 14.6609 0.631802 14.56C0.699095 14.4437 0.780034 14.3402 0.871425 14.2503C1.25981 13.7059 1.76129 13.2495 2.34344 12.9134L2.34904 12.9101L13.6596 6.44696ZM17.4545 37.576L28.202 31.4346L28.2044 31.4332C28.4734 31.2774 28.6967 31.0538 28.8523 30.7847C29.0083 30.5148 29.0906 30.2086 29.0909 29.8968V17.5577L17.4545 24.2889V37.576ZM14.5455 24.289V37.576L3.79798 31.4346L3.79555 31.4332C3.52665 31.2774 3.30327 31.0538 3.14772 30.7847C2.99182 30.5149 2.90953 30.209 2.90909 29.8975V17.5578L14.5455 24.289ZM16.8889 8.96808L27.5745 15.0741L16 21.7696L4.42545 15.0742L15.1055 8.97131L15.1111 8.96807C15.3814 8.81204 15.6879 8.72989 16 8.72989C16.3121 8.72989 16.6186 8.81205 16.8889 8.96808Z" fill="#272B67"/>
</svg>
