<svg width="50" height="50" viewBox="0 0 50 50" fill="none" xmlns="http://www.w3.org/2000/svg">
<g clip-path="url(#clip0_404_6906)">
<path d="M26.0417 43.75V47.9167H35.4167V50H14.5833V47.9167H23.9583V43.75H0V13.5417C0 10.6708 2.33542 8.33333 5.20833 8.33333H6.25V10.4167H5.20833C3.48542 10.4167 2.08333 11.8187 2.08333 13.5417V41.6667H47.9167V13.5417C47.9167 11.8187 46.5146 10.4167 44.7917 10.4167H43.75V8.33333H44.7917C47.6646 8.33333 50 10.6708 50 13.5417V43.75H26.0417ZM25 18.75C22.7021 18.75 20.8333 16.8813 20.8333 14.5833C20.8333 12.2854 22.7021 10.4167 25 10.4167C27.2979 10.4167 29.1667 12.2854 29.1667 14.5833C29.1667 16.8813 27.2979 18.75 25 18.75ZM25 12.5C23.85 12.5 22.9167 13.4354 22.9167 14.5833C22.9167 15.7312 23.85 16.6667 25 16.6667C26.15 16.6667 27.0833 15.7312 27.0833 14.5833C27.0833 13.4354 26.15 12.5 25 12.5ZM28.125 29.1667H21.875V24.5042C20.4437 24.0542 19.1333 23.2979 18.0146 22.2792L13.9792 24.6354L10.8292 19.2375L14.8708 16.8771C14.675 16.0771 14.5792 15.3187 14.5792 14.5833C14.5792 13.8479 14.675 13.0917 14.8708 12.2896L10.8292 9.92917L13.9792 4.53125L18.0146 6.88542C19.1333 5.86875 20.4437 5.11042 21.875 4.6625V0H28.125V4.6625C29.5562 5.1125 30.8646 5.86875 31.9854 6.88542L36.0208 4.53125L39.1708 9.92917L35.1292 12.2896C35.325 13.0896 35.4208 13.8479 35.4208 14.5833C35.4208 15.3187 35.325 16.075 35.1292 16.8771L39.1708 19.2375L36.0208 24.6354L31.9854 22.2792C30.8687 23.2979 29.5562 24.0542 28.125 24.5042V29.1667ZM23.9583 27.0833H26.0417V22.8771L26.8521 22.6937C28.4604 22.3271 29.9187 21.4875 31.0625 20.2667L31.6292 19.6604L35.2687 21.7854L36.3187 19.9875L32.6604 17.8521L32.9104 17.0583C33.1979 16.1458 33.3312 15.3583 33.3312 14.5854C33.3312 13.8125 33.1979 13.025 32.9104 12.1104L32.6604 11.3187L36.3187 9.18333L35.2687 7.38542L31.6292 9.51042L31.0625 8.90417C29.9167 7.68333 28.4604 6.84375 26.8521 6.47708L26.0417 6.29375V2.08333H23.9583V6.28958L23.1479 6.47292C21.5396 6.83958 20.0812 7.67917 18.9375 8.9L18.3708 9.50625L14.7312 7.38125L13.6812 9.17917L17.3396 11.3146L17.0896 12.1062C16.8021 13.0208 16.6688 13.8083 16.6688 14.5812C16.6688 15.3542 16.8021 16.1417 17.0896 17.0542L17.3396 17.8479L13.6812 19.9833L14.7312 21.7812L18.3708 19.6562L18.9375 20.2625C20.0833 21.4833 21.5396 22.3229 23.1479 22.6896L23.9583 22.8729V27.0792V27.0833Z" fill="#272B67"/>
</g>
<defs>
<clipPath id="clip0_404_6906">
<rect width="50" height="50" fill="white"/>
</clipPath>
</defs>
</svg>
