<svg width="55" height="56" viewBox="0 0 55 56" fill="none" xmlns="http://www.w3.org/2000/svg">
<g clip-path="url(#clip0_404_6746)">
<path d="M53.8542 48.6249H28.6458V44.0416H47.575C50.4052 44.0416 52.7083 41.7522 52.7083 38.938V38.1199C52.7083 31.1693 49.9033 24.7114 44.8113 19.9333C40.3517 15.751 34.6935 13.3951 28.6458 13.1293V7.37492H33.2292C33.8617 7.37492 34.375 6.86159 34.375 6.22909C34.375 5.59659 33.8617 5.08325 33.2292 5.08325H21.7708C21.1383 5.08325 20.625 5.59659 20.625 6.22909C20.625 6.86159 21.1383 7.37492 21.7708 7.37492H26.3542V13.1316C26.1777 13.1385 26.0013 13.1476 25.8248 13.1591C12.6294 14.0047 2.29167 25.3301 2.29167 38.938C2.29167 41.7522 4.59479 44.0416 7.425 44.0416H26.3542V48.6249H1.14583C0.513333 48.6249 0 49.1383 0 49.7708C0 50.4033 0.513333 50.9166 1.14583 50.9166H53.8542C54.4867 50.9166 55 50.4033 55 49.7708C55 49.1383 54.4867 48.6249 53.8542 48.6249ZM4.58333 38.938C4.58333 26.5333 13.9792 16.2139 25.9715 15.4439C26.4779 15.4118 26.9821 15.3958 27.4817 15.3935H27.5206C33.4056 15.3935 38.94 17.5705 43.2438 21.6062C47.8683 25.9443 50.4167 31.8087 50.4167 38.1199V38.938C50.4167 40.4872 49.1425 41.7499 47.575 41.7499H7.425C5.8575 41.7499 4.58333 40.4895 4.58333 38.938Z" fill="#272B67"/>
</g>
<defs>
<clipPath id="clip0_404_6746">
<rect width="55" height="55" fill="white" transform="translate(0 0.5)"/>
</clipPath>
</defs>
</svg>
