<svg width="32" height="35" viewBox="0 0 32 35" fill="none" xmlns="http://www.w3.org/2000/svg">
<path d="M23.1393 2.27495C23.1393 1.85724 23.3052 1.45663 23.6006 1.16126C23.896 0.865888 24.2966 0.699951 24.7143 0.699951H29.9643C30.382 0.699951 30.7826 0.865888 31.078 1.16126C31.3734 1.45663 31.5393 1.85724 31.5393 2.27495V7.52495C31.5393 7.94267 31.3734 8.34327 31.078 8.63864C30.7826 8.93401 30.382 9.09995 29.9643 9.09995C29.5466 9.09995 29.146 8.93401 28.8506 8.63864C28.5552 8.34327 28.3893 7.94267 28.3893 7.52495V6.07595L19.0023 15.4629C18.707 15.7579 18.3067 15.9236 17.8893 15.9236C17.4719 15.9236 17.0716 15.7579 16.7763 15.4629L11.5893 10.276L2.72729 19.1379C2.5831 19.2927 2.40922 19.4168 2.21602 19.5029C2.02282 19.589 1.81426 19.6353 1.60278 19.639C1.39131 19.6427 1.18125 19.6038 0.985133 19.5246C0.789018 19.4454 0.610866 19.3275 0.461307 19.1779C0.311747 19.0284 0.193844 18.8502 0.11463 18.6541C0.0354156 18.458 -0.00348613 18.2479 0.000245114 18.0365C0.00397636 17.825 0.0502646 17.6164 0.136348 17.4232C0.222431 17.23 0.346545 17.0561 0.501288 16.912L10.4763 6.93695C10.7716 6.642 11.1719 6.47634 11.5893 6.47634C12.0067 6.47634 12.407 6.642 12.7023 6.93695L17.8893 12.124L26.1633 3.84995H24.7143C24.2966 3.84995 23.896 3.68401 23.6006 3.38864C23.3052 3.09327 23.1393 2.69267 23.1393 2.27495ZM1.61429 25.9C2.032 25.9 2.43261 26.0659 2.72798 26.3613C3.02335 26.6566 3.18929 27.0572 3.18929 27.475V32.7249C3.18929 33.1427 3.02335 33.5433 2.72798 33.8386C2.43261 34.134 2.032 34.2999 1.61429 34.2999C1.19657 34.2999 0.795964 34.134 0.500594 33.8386C0.205224 33.5433 0.0392876 33.1427 0.0392876 32.7249V27.475C0.0392876 27.0572 0.205224 26.6566 0.500594 26.3613C0.795964 26.0659 1.19657 25.9 1.61429 25.9ZM11.5893 21.1749C11.5893 20.7572 11.4233 20.3566 11.128 20.0613C10.8326 19.7659 10.432 19.6 10.0143 19.6C9.59657 19.6 9.19596 19.7659 8.90059 20.0613C8.60522 20.3566 8.43929 20.7572 8.43929 21.1749V32.7249C8.43929 33.1427 8.60522 33.5433 8.90059 33.8386C9.19596 34.134 9.59657 34.2999 10.0143 34.2999C10.432 34.2999 10.8326 34.134 11.128 33.8386C11.4233 33.5433 11.5893 33.1427 11.5893 32.7249V21.1749ZM18.4143 23.7999C18.832 23.7999 19.2326 23.9659 19.528 24.2613C19.8233 24.5566 19.9893 24.9572 19.9893 25.375V32.7249C19.9893 33.1427 19.8233 33.5433 19.528 33.8386C19.2326 34.134 18.832 34.2999 18.4143 34.2999C17.9966 34.2999 17.596 34.134 17.3006 33.8386C17.0052 33.5433 16.8393 33.1427 16.8393 32.7249V25.375C16.8393 24.9572 17.0052 24.5566 17.3006 24.2613C17.596 23.9659 17.9966 23.7999 18.4143 23.7999ZM28.3893 16.975C28.3893 16.5572 28.2234 16.1566 27.928 15.8613C27.6326 15.5659 27.232 15.4 26.8143 15.4C26.3966 15.4 25.996 15.5659 25.7006 15.8613C25.4052 16.1566 25.2393 16.5572 25.2393 16.975V32.7249C25.2393 33.1427 25.4052 33.5433 25.7006 33.8386C25.996 34.134 26.3966 34.2999 26.8143 34.2999C27.232 34.2999 27.6326 34.134 27.928 33.8386C28.2234 33.5433 28.3893 33.1427 28.3893 32.7249V16.975Z" fill="#272B67"/>
</svg>
