<svg width="65" height="70" viewBox="0 0 65 70" fill="none" xmlns="http://www.w3.org/2000/svg">
<rect x="1" y="0.5" width="62.8333" height="69" rx="11.5" stroke="#F1F3FA"/>
<path d="M16.2917 48.2636H18.0833V25.6169C18.0834 25.0528 18.261 24.503 18.5909 24.0454C18.9208 23.5878 19.3864 23.2456 19.9216 23.0674L34.2549 18.2908C34.6589 18.1562 35.089 18.1196 35.5099 18.1839C35.9308 18.2482 36.3304 18.4115 36.6757 18.6605C37.0211 18.9095 37.3024 19.2369 37.4964 19.6159C37.6904 19.9949 37.7916 20.4146 37.7917 20.8403V48.2636H39.5833V32.1207C39.5834 31.9882 39.6129 31.8574 39.6696 31.7376C39.7263 31.6179 39.8089 31.5122 39.9114 31.4283C40.0139 31.3443 40.1337 31.2841 40.2622 31.252C40.3908 31.2199 40.5248 31.2168 40.6547 31.2427L44.5893 32.0311C45.1983 32.1528 45.7463 32.4817 46.1402 32.9619C46.5342 33.442 46.7496 34.0438 46.75 34.6648V48.2636H48.5417C49.0168 48.2636 49.4726 48.4523 49.8086 48.7883C50.1446 49.1243 50.3333 49.5801 50.3333 50.0552C50.3333 50.5304 50.1446 50.9861 49.8086 51.3221C49.4726 51.6581 49.0168 51.8469 48.5417 51.8469H16.2917C15.8165 51.8469 15.3608 51.6581 15.0248 51.3221C14.6888 50.9861 14.5 50.5304 14.5 50.0552C14.5 49.5801 14.6888 49.1243 15.0248 48.7883C15.3608 48.4523 15.8165 48.2636 16.2917 48.2636Z" fill="#272B67"/>
</svg>
