<svg width="50" height="50" viewBox="0 0 50 50" fill="none" xmlns="http://www.w3.org/2000/svg">
<g clip-path="url(#clip0_404_6897)">
<path d="M14.5953 50C10.7244 50 7.02652 48.4854 4.27027 45.7292C1.1536 42.6125 -0.375562 38.2917 0.0786048 33.8771C0.680688 28.0083 4.92235 22.9854 10.6328 21.3833C13.3453 20.6229 16.0703 20.6458 18.7432 21.45L38.6682 1.525C39.6536 0.541667 40.9599 0 42.3515 0H46.8765C48.5994 0 50.0015 1.40208 50.0015 3.125V7.64792C50.0015 9.03958 49.4599 10.3479 48.4765 11.3313L45.2244 14.5833H39.5849V20.8333H33.3349V26.4729L28.5515 31.2562C29.3557 33.9292 29.3765 36.6542 28.6161 39.3667C27.014 45.0771 21.9953 49.3187 16.1224 49.9229C15.614 49.975 15.1036 50.0021 14.5974 50.0021L14.5953 50ZM14.5869 22.9146C13.4578 22.9146 12.3265 23.0729 11.1953 23.3896C6.30152 24.7625 2.6661 29.0646 2.14944 34.0917C1.75985 37.8792 3.07027 41.5833 5.74319 44.2562C8.4161 46.9292 12.1182 48.2396 15.9099 47.85C20.9369 47.3333 25.239 43.6979 26.6099 38.8042C27.314 36.2958 27.2369 33.7771 26.3786 31.3125L26.164 30.6958L31.2494 25.6104V18.75H37.4994V12.5H44.3599L47.0015 9.85833C47.5911 9.26875 47.9161 8.48333 47.9161 7.64792V3.125C47.9161 2.55 47.4474 2.08333 46.8744 2.08333H42.3494C41.5265 2.08333 40.7224 2.41667 40.139 2.99792L19.3015 23.8333L18.6849 23.6187C17.3328 23.1479 15.9619 22.9125 14.5849 22.9125L14.5869 22.9146ZM10.4161 37.5C10.4161 38.65 11.3494 39.5833 12.4994 39.5833C13.6494 39.5833 14.5828 38.65 14.5828 37.5C14.5828 36.35 13.6494 35.4167 12.4994 35.4167C11.3494 35.4167 10.4161 36.35 10.4161 37.5Z" fill="#272B67"/>
</g>
<defs>
<clipPath id="clip0_404_6897">
<rect width="50" height="50" fill="white"/>
</clipPath>
</defs>
</svg>
