<svg width="64" height="70" viewBox="0 0 64 70" fill="none" xmlns="http://www.w3.org/2000/svg">
<rect x="1" y="0.5" width="62" height="69" rx="11.5" stroke="#F1F3FA"/>
<path fill-rule="evenodd" clip-rule="evenodd" d="M18.3896 33.0661C18.3896 31.5328 18.6916 30.0146 19.2783 28.5981C19.865 27.1816 20.725 25.8945 21.8092 24.8103C22.8934 23.7262 24.1804 22.8662 25.597 22.2794C27.0135 21.6927 28.5317 21.3907 30.0649 21.3907C31.5982 21.3907 33.1164 21.6927 34.5329 22.2794C35.9494 22.8662 37.2365 23.7262 38.3207 24.8103C39.4048 25.8945 40.2648 27.1816 40.8516 28.5981C41.4383 30.0146 41.7403 31.5328 41.7403 33.0661C41.7403 36.1626 40.5102 39.1323 38.3207 41.3218C36.1311 43.5114 33.1614 44.7415 30.0649 44.7415C26.9684 44.7415 23.9988 43.5114 21.8092 41.3218C19.6196 39.1323 18.3896 36.1626 18.3896 33.0661ZM30.0649 17.4989C27.5875 17.4993 25.146 18.0909 22.9432 19.2246C20.7405 20.3583 18.8401 22.0014 17.4 24.0173C15.96 26.0332 15.0219 28.3636 14.6636 30.815C14.3054 33.2663 14.5374 35.7678 15.3403 38.1115C16.1432 40.4551 17.4939 42.5733 19.2801 44.29C21.0663 46.0067 23.2365 47.2723 25.6102 47.9816C27.9838 48.6909 30.4925 48.8234 32.9278 48.3682C35.363 47.9129 37.6544 46.883 39.6115 45.3641L46.2023 51.9549C46.5693 52.3094 47.0608 52.5055 47.571 52.5011C48.0812 52.4966 48.5693 52.292 48.9301 51.9312C49.2908 51.5704 49.4955 51.0823 49.4999 50.5721C49.5044 50.0619 49.3082 49.5704 48.9538 49.2034L42.363 42.6126C44.1495 40.3115 45.2545 37.5553 45.5523 34.6574C45.8501 31.7594 45.3287 28.8361 44.0475 26.2197C42.7663 23.6034 40.7767 21.399 38.3048 19.8574C35.833 18.3157 32.9781 17.4986 30.0649 17.4989ZM30.0649 40.8497C32.1293 40.8497 34.1091 40.0296 35.5688 38.5699C37.0285 37.1102 37.8485 35.1304 37.8485 33.0661C37.8485 31.0017 37.0285 29.022 35.5688 27.5622C34.1091 26.1025 32.1293 25.2825 30.0649 25.2825C28.0006 25.2825 26.0208 26.1025 24.5611 27.5622C23.1014 29.022 22.2814 31.0017 22.2814 33.0661C22.2814 35.1304 23.1014 37.1102 24.5611 38.5699C26.0208 40.0296 28.0006 40.8497 30.0649 40.8497Z" fill="#272B67"/>
</svg>
