<svg width="35" height="47" viewBox="0 0 35 47" fill="none" xmlns="http://www.w3.org/2000/svg">
<path fill-rule="evenodd" clip-rule="evenodd" d="M17.5 20.3404C19.245 20.3404 20.6596 21.755 20.6596 23.5C20.6596 25.245 19.245 26.6596 17.5 26.6596C15.755 26.6596 14.3404 25.245 14.3404 23.5C14.3404 21.755 15.755 20.3404 17.5 20.3404ZM22.766 23.5C22.766 20.5917 20.4083 18.234 17.5 18.234C14.5917 18.234 12.234 20.5917 12.234 23.5C12.234 26.4083 14.5917 28.766 17.5 28.766C20.4083 28.766 22.766 26.4083 22.766 23.5Z" fill="#272B67"/>
<path fill-rule="evenodd" clip-rule="evenodd" d="M17.5 9.10638C17.9655 9.10638 18.412 9.29132 18.7412 9.6205C19.0704 9.94969 19.2553 10.3962 19.2553 10.8617V11.1004L19.2553 11.1046C19.2579 11.7619 19.4527 12.404 19.8156 12.952C20.1785 13.5 20.6938 13.93 21.2979 14.1889C21.3976 14.2316 21.5032 14.2586 21.6108 14.2691C22.1699 14.472 22.7741 14.5238 23.3619 14.4172C24.0245 14.2971 24.6359 13.9812 25.1173 13.5103L25.1256 13.5022L25.2098 13.4179C25.3728 13.2547 25.5669 13.1248 25.7799 13.0365C25.993 12.9482 26.2215 12.9027 26.4521 12.9027C26.6828 12.9027 26.9112 12.9482 27.1243 13.0365C27.3374 13.1248 27.531 13.2543 27.694 13.4175C27.8572 13.5805 27.9875 13.7749 28.0759 13.988C28.1642 14.2011 28.2097 14.4295 28.2097 14.6602C28.2097 14.8909 28.1642 15.1193 28.0759 15.3324C27.9875 15.5455 27.858 15.7391 27.6948 15.9021L27.602 15.995C27.1311 16.4764 26.8152 17.0878 26.6951 17.7504C26.5769 18.4021 26.6534 19.0739 26.9147 19.682C27.1502 20.3035 27.5645 20.8417 28.1055 21.2287C28.6555 21.6221 29.3112 21.8409 29.9873 21.8567L30.0119 21.857H30.1383C30.6038 21.857 31.0503 22.042 31.3795 22.3711C31.7087 22.7003 31.8936 23.1468 31.8936 23.6123C31.8936 24.0779 31.7087 24.5244 31.3795 24.8535C31.0503 25.1827 30.6038 25.3677 30.1383 25.3677H29.8954C29.2381 25.3703 28.596 25.565 28.048 25.928C27.5015 26.2898 27.0725 26.8032 26.8133 27.405C26.5433 28.0198 26.463 28.7012 26.5828 29.3619C26.7029 30.0245 27.0188 30.6359 27.4897 31.1173L27.4978 31.1256L27.5821 31.2098C27.7453 31.3728 27.8752 31.5669 27.9635 31.7799C28.0518 31.993 28.0973 32.2215 28.0973 32.4521C28.0973 32.6828 28.0518 32.9112 27.9635 33.1243C27.8752 33.3374 27.7457 33.531 27.5825 33.694C27.4195 33.8572 27.2251 33.9875 27.012 34.0759C26.7989 34.1642 26.5705 34.2097 26.3398 34.2097C26.1091 34.2097 25.8807 34.1642 25.6676 34.0759C25.4545 33.9875 25.2609 33.858 25.0979 33.6948L25.005 33.602C24.5236 33.1311 23.9122 32.8152 23.2496 32.6951C22.5979 32.5769 21.9261 32.6535 21.318 32.9147C20.6965 33.1503 20.1583 33.5645 19.7713 34.1055C19.3779 34.6555 19.1591 35.3112 19.1433 35.9873L19.143 36.0119V36.1383C19.143 36.6038 18.958 37.0503 18.6289 37.3795C18.2997 37.7087 17.8532 37.8936 17.3877 37.8936C16.9221 37.8936 16.4756 37.7087 16.1465 37.3795C15.8173 37.0503 15.6323 36.6038 15.6323 36.1383V35.8996L15.6323 35.8954C15.6297 35.2381 15.435 34.596 15.072 34.048C14.7102 33.5016 14.197 33.0726 13.5953 32.8135C12.9805 32.5433 12.2989 32.4629 11.6381 32.5828C10.9755 32.7029 10.3641 33.0188 9.88269 33.4897L9.87438 33.4978L9.79017 33.5821C9.62715 33.7453 9.43315 33.8752 9.22006 33.9635C9.00696 34.0518 8.77855 34.0973 8.54787 34.0973C8.3172 34.0973 8.08878 34.0518 7.87569 33.9635C7.6626 33.8752 7.46901 33.7457 7.30598 33.5825C7.14278 33.4195 7.01248 33.2251 6.92415 33.012C6.83581 32.7989 6.79034 32.5705 6.79034 32.3398C6.79034 32.1091 6.83581 31.8807 6.92415 31.6676C7.01248 31.4545 7.14195 31.2609 7.30515 31.0979L7.39804 31.005C7.86893 30.5236 8.18476 29.9122 8.3049 29.2496C8.42472 28.5887 8.34436 27.9072 8.07419 27.2924C7.81502 26.6906 7.38604 26.1774 6.8397 25.8156C6.29171 25.4527 5.64955 25.2579 4.99229 25.2553L4.98809 25.2553L4.8617 25.2553C4.39616 25.2553 3.94969 25.0704 3.62051 24.7412C3.29132 24.412 3.10638 23.9655 3.10638 23.5C3.10638 23.0345 3.29132 22.588 3.62051 22.2588C3.94969 21.9296 4.39616 21.7447 4.8617 21.7447H5.10043L5.10463 21.7447C5.76189 21.7421 6.40405 21.5473 6.95204 21.1844C7.50004 20.8215 7.92996 20.3062 8.18888 19.7021C8.23163 19.6024 8.25863 19.4968 8.2691 19.3892C8.47201 18.8301 8.52383 18.2259 8.41724 17.6381C8.2971 16.9755 7.98122 16.3641 7.51033 15.8827L7.50221 15.8744L7.41791 15.7902C7.25471 15.6272 7.12482 15.4331 7.03649 15.2201C6.94815 15.007 6.90268 14.7785 6.90268 14.5479C6.90268 14.3172 6.94815 14.0888 7.03649 13.8757C7.12482 13.6626 7.25429 13.469 7.4175 13.306C7.58052 13.1428 7.77494 13.0125 7.98803 12.9241C8.20112 12.8358 8.42954 12.7903 8.66021 12.7903C8.89089 12.7903 9.1193 12.8358 9.3324 12.9241C9.54549 13.0125 9.73908 13.142 9.9021 13.3052L9.99498 13.398C10.4764 13.8689 11.0878 14.1848 11.7504 14.3049C12.4112 14.4247 13.0926 14.3444 13.7073 14.0743C14.3092 13.8152 14.8225 13.3861 15.1844 12.8397C15.5473 12.2917 15.7421 11.6496 15.7447 10.9923L15.7447 10.9881V10.8617C15.7447 10.3962 15.9296 9.94969 16.2588 9.6205C16.588 9.29132 17.0345 9.10638 17.5 9.10638ZM7.10851 27.7128L6.14498 28.138C6.24695 28.369 6.27736 28.6253 6.23231 28.8738C6.18755 29.1206 6.07035 29.3485 5.89568 29.5285L5.81655 29.6076C5.45749 29.9663 5.17266 30.3922 4.97833 30.861C4.78399 31.3298 4.68396 31.8323 4.68396 32.3398C4.68396 32.8473 4.78399 33.3498 4.97833 33.8186C5.17259 34.2872 5.45728 34.713 5.81613 35.0715C6.17469 35.4304 6.60045 35.7151 7.06907 35.9093C7.53787 36.1037 8.04038 36.2037 8.54787 36.2037C9.05536 36.2037 9.55787 36.1037 10.0267 35.9093C10.4955 35.715 10.9214 35.4302 11.28 35.0711L11.3592 34.9919C11.5392 34.8173 11.7671 34.7001 12.0139 34.6553C12.2624 34.6103 12.5186 34.6407 12.7497 34.7427L12.76 34.7472C12.9865 34.8443 13.1798 35.0055 13.3159 35.211C13.4516 35.416 13.5246 35.6562 13.526 35.9021V36.1383C13.526 37.1625 13.9328 38.1447 14.657 38.8689C15.3812 39.5931 16.3635 40 17.3877 40C18.4118 40 19.3941 39.5931 20.1183 38.8689C20.8425 38.1447 21.2494 37.1625 21.2494 36.1383V36.0261C21.2573 35.7763 21.3391 35.5343 21.4846 35.3309C21.6321 35.1246 21.8383 34.9675 22.0763 34.8799C22.0971 34.8723 22.1177 34.864 22.138 34.855C22.369 34.7531 22.6253 34.7226 22.8738 34.7677C23.1206 34.8125 23.3485 34.9297 23.5285 35.1043L23.6076 35.1835C23.9663 35.5425 24.3922 35.8273 24.861 36.0217C25.3298 36.216 25.8323 36.316 26.3398 36.316C26.8473 36.316 27.3498 36.216 27.8186 36.0217C28.2874 35.8273 28.7133 35.5425 29.0719 35.1835C29.4306 34.825 29.7151 34.3994 29.9093 33.9309C30.1037 33.4621 30.2037 32.9596 30.2037 32.4521C30.2037 31.9446 30.1037 31.4421 29.9093 30.9733C29.7151 30.5047 29.4304 30.0789 29.0715 29.7204L28.992 29.6408C28.8173 29.4608 28.7001 29.233 28.6553 28.9861C28.6103 28.7376 28.6407 28.4814 28.7427 28.2503L28.7472 28.24C28.8443 28.0135 29.0055 27.8202 29.211 27.6841C29.416 27.5484 29.6562 27.4754 29.9021 27.474H30.1383C31.1625 27.474 32.1447 27.0672 32.8689 26.343C33.5931 25.6188 34 24.6365 34 23.6123C34 22.5882 33.5931 21.6059 32.8689 20.8817C32.1447 20.1575 31.1625 19.7506 30.1383 19.7506H30.0261C29.7763 19.7427 29.5343 19.6609 29.3309 19.5154C29.1246 19.3679 28.9675 19.1617 28.8799 18.9237C28.8723 18.9029 28.864 18.8823 28.855 18.862C28.7531 18.631 28.7226 18.3747 28.7677 18.1262C28.8124 17.8794 28.9297 17.6515 29.1043 17.4715L29.1835 17.3924C29.5423 17.0338 29.8274 16.6076 30.0217 16.139C30.216 15.6702 30.316 15.1677 30.316 14.6602C30.316 14.1527 30.216 13.6502 30.0217 13.1814C29.8274 12.7128 29.5427 12.287 29.1839 11.9285C28.8253 11.5696 28.3995 11.2849 27.9309 11.0907C27.4621 10.8963 26.9596 10.7963 26.4521 10.7963C25.9446 10.7963 25.4421 10.8963 24.9733 11.0907C24.5047 11.2849 24.0789 11.5696 23.7204 11.9285L23.6409 12.008C23.4609 12.1827 23.233 12.2999 22.9861 12.3446C22.7376 12.3897 22.4814 12.3593 22.2503 12.2573C22.1649 12.2196 22.075 12.1935 21.9831 12.1796C21.8188 12.0826 21.6779 11.9493 21.5718 11.789C21.436 11.584 21.363 11.3438 21.3617 11.0979V10.8617C21.3617 9.83751 20.9548 8.85528 20.2306 8.13107C19.5064 7.40686 18.5242 7 17.5 7C16.4758 7 15.4936 7.40686 14.7694 8.13107C14.0452 8.85528 13.6383 9.83751 13.6383 10.8617V10.9856C13.637 11.2315 13.564 11.4716 13.4282 11.6767C13.2921 11.8822 13.0989 12.0434 12.8723 12.1405L12.862 12.1449C12.6309 12.2469 12.3747 12.2774 12.1262 12.2323C11.8794 12.1876 11.6515 12.0704 11.4715 11.8957L11.3924 11.8165C11.0338 11.4577 10.6076 11.1726 10.139 10.9783C9.67021 10.784 9.1677 10.684 8.66021 10.684C8.15272 10.684 7.65021 10.784 7.18141 10.9783C6.71297 11.1725 6.28736 11.4571 5.92889 11.8157C5.56984 12.1744 5.28501 12.6003 5.09067 13.0691C4.89633 13.5379 4.7963 14.0404 4.7963 14.5479C4.7963 15.0554 4.89633 15.5579 5.09067 16.0267C5.28493 16.4953 5.56962 16.921 5.92847 17.2796L6.00804 17.3592C6.1827 17.5391 6.29989 17.767 6.34465 18.0139C6.3897 18.2624 6.35929 18.5186 6.25732 18.7497C6.21961 18.8351 6.19353 18.925 6.17958 19.0169C6.0826 19.1812 5.94927 19.3221 5.78901 19.4282C5.58398 19.564 5.34382 19.637 5.09795 19.6383H4.8617C3.83751 19.6383 2.85528 20.0452 2.13107 20.7694C1.40686 21.4936 1 22.4758 1 23.5C1 24.5242 1.40686 25.5064 2.13107 26.2306C2.85528 26.9548 3.83751 27.3617 4.8617 27.3617H4.98561C5.23148 27.363 5.47164 27.436 5.67667 27.5718C5.88217 27.7079 6.04339 27.9011 6.14048 28.1276L7.10851 27.7128Z" fill="#272B67"/>
<path d="M29.0715 29.7204C29.4304 30.0789 29.7151 30.5047 29.9093 30.9733C30.1037 31.4421 30.2037 31.9446 30.2037 32.4521C30.2037 32.9596 30.1037 33.4621 29.9093 33.9309C29.7151 34.3994 29.4306 34.825 29.0719 35.1835C28.7133 35.5425 28.2874 35.8273 27.8186 36.0217C27.3498 36.216 26.8473 36.316 26.3398 36.316C25.8323 36.316 25.3298 36.216 24.861 36.0217C24.3922 35.8273 23.9663 35.5425 23.6076 35.1835L23.5285 35.1043C23.3485 34.9297 23.1206 34.8125 22.8738 34.7677C22.6253 34.7226 22.369 34.7531 22.138 34.855C22.1177 34.864 22.0971 34.8723 22.0763 34.8799C21.8383 34.9675 21.6321 35.1246 21.4846 35.3309C21.3391 35.5343 21.2573 35.7763 21.2494 36.0261V36.1383C21.2494 37.1625 20.8425 38.1447 20.1183 38.8689C19.3941 39.5931 18.4118 40 17.3877 40C16.3635 40 15.3812 39.5931 14.657 38.8689C13.9328 38.1447 13.526 37.1625 13.526 36.1383V35.9021C13.5246 35.6562 13.4516 35.416 13.3159 35.211C13.1798 35.0055 12.9865 34.8443 12.76 34.7472L12.7497 34.7427C12.5186 34.6407 12.2624 34.6103 12.0139 34.6554C11.7671 34.7001 11.5392 34.8173 11.3592 34.9919L11.28 35.0711C10.9214 35.4302 10.4955 35.715 10.0267 35.9093C9.55787 36.1037 9.05536 36.2037 8.54787 36.2037C8.04038 36.2037 7.53787 36.1037 7.06907 35.9093C6.60045 35.7151 6.17469 35.4304 5.81613 35.0715C5.45728 34.713 5.17259 34.2872 4.97833 33.8186C4.78399 33.3498 4.68396 32.8473 4.68396 32.3398C4.68396 31.8323 4.78399 31.3298 4.97833 30.861C5.17266 30.3922 5.45749 29.9663 5.81655 29.6076L5.89568 29.5285C6.07035 29.3485 6.18755 29.1206 6.23231 28.8738C6.27736 28.6253 6.24695 28.369 6.14498 28.138L7.10851 27.7128L6.14048 28.1277C6.04339 27.9011 5.88217 27.7079 5.67667 27.5718C5.47164 27.436 5.23148 27.363 4.98561 27.3617H4.8617C3.83751 27.3617 2.85528 26.9548 2.13107 26.2306C1.40686 25.5064 1 24.5242 1 23.5C1 22.4758 1.40686 21.4936 2.13107 20.7694C2.85528 20.0452 3.83751 19.6383 4.8617 19.6383H5.09795C5.34382 19.637 5.58398 19.564 5.78901 19.4282C5.94927 19.3221 6.0826 19.1812 6.17958 19.0169C6.19353 18.925 6.21961 18.8351 6.25732 18.7497C6.35929 18.5186 6.3897 18.2624 6.34465 18.0139C6.29989 17.767 6.1827 17.5391 6.00804 17.3592L5.92847 17.2796M29.0715 29.7204V29.7204ZM29.0715 29.7204L28.992 29.6408C28.8173 29.4608 28.7001 29.233 28.6554 28.9861C28.6103 28.7376 28.6407 28.4814 28.7427 28.2503L28.7472 28.24C28.8443 28.0135 29.0055 27.8202 29.211 27.6841C29.416 27.5484 29.6562 27.4754 29.9021 27.474H30.1383C31.1625 27.474 32.1447 27.0672 32.8689 26.343C33.5931 25.6188 34 24.6365 34 23.6123C34 22.5882 33.5931 21.6059 32.8689 20.8817C32.1447 20.1575 31.1625 19.7506 30.1383 19.7506H30.0261C29.7763 19.7427 29.5343 19.6609 29.3309 19.5154C29.1246 19.3679 28.9675 19.1617 28.8799 18.9237C28.8723 18.9029 28.864 18.8823 28.855 18.862C28.7531 18.631 28.7226 18.3747 28.7677 18.1262C28.8124 17.8794 28.9297 17.6515 29.1043 17.4715L29.1835 17.3924M29.1835 17.3924V17.3924ZM29.1835 17.3924C29.5423 17.0338 29.8274 16.6076 30.0217 16.139C30.216 15.6702 30.316 15.1677 30.316 14.6602C30.316 14.1527 30.216 13.6502 30.0217 13.1814C29.8274 12.7128 29.5427 12.287 29.1839 11.9285C28.8253 11.5696 28.3996 11.2849 27.9309 11.0907C27.4621 10.8963 26.9596 10.7963 26.4521 10.7963C25.9446 10.7963 25.4421 10.8963 24.9733 11.0907C24.5047 11.2849 24.0789 11.5696 23.7204 11.9285M23.7204 11.9285V11.9285ZM23.7204 11.9285L23.6409 12.008C23.4609 12.1827 23.233 12.2999 22.9861 12.3446C22.7376 12.3897 22.4814 12.3593 22.2503 12.2573C22.1649 12.2196 22.075 12.1935 21.9831 12.1796C21.8188 12.0826 21.6779 11.9493 21.5718 11.789C21.436 11.584 21.363 11.3438 21.3617 11.0979V10.8617C21.3617 9.83751 20.9548 8.85528 20.2306 8.13107C19.5064 7.40686 18.5242 7 17.5 7C16.4758 7 15.4936 7.40686 14.7694 8.13107C14.0452 8.85528 13.6383 9.83751 13.6383 10.8617V10.9856C13.637 11.2315 13.564 11.4716 13.4282 11.6767C13.2921 11.8822 13.0989 12.0434 12.8723 12.1405L12.862 12.1449C12.6309 12.2469 12.3747 12.2774 12.1262 12.2323C11.8794 12.1876 11.6515 12.0704 11.4715 11.8957L11.3924 11.8165M11.3924 11.8165V11.8165ZM11.3924 11.8165C11.0338 11.4577 10.6076 11.1726 10.139 10.9783C9.67021 10.784 9.1677 10.684 8.66021 10.684C8.15272 10.684 7.65021 10.784 7.18141 10.9783C6.71297 11.1725 6.28736 11.4571 5.92889 11.8157C5.56984 12.1744 5.28501 12.6003 5.09067 13.0691C4.89633 13.5379 4.7963 14.0404 4.7963 14.5479C4.7963 15.0554 4.89633 15.5579 5.09067 16.0267C5.28493 16.4953 5.56962 16.921 5.92847 17.2796M5.92847 17.2796V17.2796ZM20.6596 23.5C20.6596 21.755 19.245 20.3404 17.5 20.3404C15.755 20.3404 14.3404 21.755 14.3404 23.5C14.3404 25.245 15.755 26.6596 17.5 26.6596C19.245 26.6596 20.6596 25.245 20.6596 23.5ZM17.5 18.234C20.4083 18.234 22.766 20.5917 22.766 23.5C22.766 26.4083 20.4083 28.766 17.5 28.766C14.5917 28.766 12.234 26.4083 12.234 23.5C12.234 20.5917 14.5917 18.234 17.5 18.234ZM18.7412 9.6205C18.412 9.29132 17.9655 9.10638 17.5 9.10638C17.0345 9.10638 16.588 9.29132 16.2588 9.6205C15.9296 9.94969 15.7447 10.3962 15.7447 10.8617V10.9881L15.7447 10.9923C15.7421 11.6496 15.5473 12.2917 15.1844 12.8397C14.8225 13.3861 14.3092 13.8152 13.7073 14.0743C13.0926 14.3444 12.4112 14.4247 11.7504 14.3049C11.0878 14.1848 10.4764 13.8689 9.99498 13.398L9.9021 13.3052C9.73908 13.142 9.54549 13.0125 9.3324 12.9241C9.1193 12.8358 8.89089 12.7903 8.66021 12.7903C8.42954 12.7903 8.20112 12.8358 7.98803 12.9241C7.77494 13.0125 7.58052 13.1428 7.4175 13.306C7.25429 13.469 7.12482 13.6626 7.03649 13.8757C6.94815 14.0888 6.90268 14.3172 6.90268 14.5479C6.90268 14.7785 6.94815 15.007 7.03649 15.2201C7.12482 15.4331 7.25471 15.6272 7.41791 15.7902L7.50221 15.8744L7.51033 15.8827C7.98122 16.3641 8.2971 16.9755 8.41724 17.6381C8.52383 18.2259 8.47201 18.8301 8.2691 19.3892C8.25863 19.4968 8.23163 19.6024 8.18888 19.7021C7.92996 20.3062 7.50004 20.8215 6.95204 21.1844C6.40405 21.5473 5.76189 21.7421 5.10463 21.7447L5.10043 21.7447H4.8617C4.39616 21.7447 3.94969 21.9296 3.62051 22.2588C3.29132 22.588 3.10638 23.0345 3.10638 23.5C3.10638 23.9655 3.29132 24.412 3.62051 24.7412C3.94969 25.0704 4.39616 25.2553 4.8617 25.2553L4.98809 25.2553L4.99228 25.2553C5.64955 25.2579 6.29171 25.4527 6.8397 25.8156C7.38604 26.1774 7.81502 26.6906 8.07419 27.2924C8.34436 27.9072 8.42472 28.5887 8.3049 29.2496C8.18476 29.9122 7.86893 30.5236 7.39804 31.005L7.30515 31.0979C7.14195 31.2609 7.01248 31.4545 6.92415 31.6676C6.83581 31.8807 6.79034 32.1091 6.79034 32.3398C6.79034 32.5705 6.83581 32.7989 6.92415 33.012C7.01248 33.2251 7.14278 33.4195 7.30598 33.5825C7.46901 33.7457 7.6626 33.8752 7.87569 33.9635C8.08878 34.0518 8.3172 34.0973 8.54787 34.0973C8.77855 34.0973 9.00696 34.0518 9.22006 33.9635C9.43315 33.8752 9.62715 33.7453 9.79017 33.5821L9.87438 33.4978L9.88269 33.4897C10.3641 33.0188 10.9755 32.7029 11.6381 32.5828C12.2989 32.4629 12.9805 32.5433 13.5953 32.8135C14.197 33.0726 14.7102 33.5016 15.072 34.048C15.435 34.596 15.6297 35.2381 15.6323 35.8954L15.6323 35.8996V36.1383C15.6323 36.6038 15.8173 37.0503 16.1465 37.3795C16.4756 37.7087 16.9221 37.8936 17.3877 37.8936C17.8532 37.8936 18.2997 37.7087 18.6289 37.3795C18.958 37.0503 19.143 36.6038 19.143 36.1383V36.0119L19.1433 35.9873C19.1591 35.3112 19.3779 34.6555 19.7713 34.1055C20.1583 33.5645 20.6965 33.1503 21.318 32.9147C21.9261 32.6535 22.5979 32.5769 23.2496 32.6951C23.9122 32.8152 24.5236 33.1311 25.005 33.602L25.0979 33.6948C25.2609 33.858 25.4545 33.9875 25.6676 34.0759C25.8807 34.1642 26.1091 34.2097 26.3398 34.2097C26.5705 34.2097 26.7989 34.1642 27.012 34.0759C27.2251 33.9875 27.4195 33.8572 27.5825 33.694C27.7457 33.531 27.8752 33.3374 27.9635 33.1243C28.0518 32.9112 28.0973 32.6828 28.0973 32.4521C28.0973 32.2215 28.0518 31.993 27.9635 31.7799C27.8752 31.5668 27.7453 31.3728 27.5821 31.2098L27.4978 31.1256L27.4897 31.1173C27.0188 30.6359 26.7029 30.0245 26.5828 29.3619C26.463 28.7012 26.5433 28.0198 26.8133 27.405C27.0725 26.8032 27.5015 26.2898 28.048 25.928C28.596 25.565 29.2381 25.3703 29.8954 25.3677H30.1383C30.6038 25.3677 31.0503 25.1827 31.3795 24.8535C31.7087 24.5244 31.8936 24.0779 31.8936 23.6123C31.8936 23.1468 31.7087 22.7003 31.3795 22.3711C31.0503 22.042 30.6038 21.857 30.1383 21.857H30.0119L29.9873 21.8567C29.3112 21.8409 28.6555 21.6221 28.1055 21.2287C27.5645 20.8417 27.1502 20.3035 26.9147 19.682C26.6534 19.0739 26.5769 18.4021 26.6951 17.7504C26.8152 17.0878 27.1311 16.4764 27.602 15.995L27.6948 15.9021C27.858 15.7391 27.9875 15.5455 28.0759 15.3324C28.1642 15.1193 28.2097 14.8909 28.2097 14.6602C28.2097 14.4295 28.1642 14.2011 28.0759 13.988C27.9875 13.7749 27.8572 13.5805 27.694 13.4175C27.531 13.2543 27.3374 13.1248 27.1243 13.0365C26.9112 12.9482 26.6828 12.9027 26.4521 12.9027C26.2215 12.9027 25.993 12.9482 25.7799 13.0365C25.5669 13.1248 25.3728 13.2547 25.2098 13.4179L25.1256 13.5022L25.1173 13.5103C24.6359 13.9812 24.0245 14.2971 23.3619 14.4172C22.7741 14.5238 22.1699 14.472 21.6108 14.2691C21.5032 14.2586 21.3976 14.2316 21.2979 14.1889C20.6938 13.93 20.1785 13.5 19.8156 12.952C19.4527 12.404 19.2579 11.7619 19.2553 11.1046L19.2553 11.1004V10.8617C19.2553 10.3962 19.0704 9.94969 18.7412 9.6205Z" stroke="#272B67" stroke-linecap="round" stroke-linejoin="round"/>
</svg>
