<svg width="28" height="47" viewBox="0 0 28 47" fill="none" xmlns="http://www.w3.org/2000/svg">
<path fill-rule="evenodd" clip-rule="evenodd" d="M9.12367 9.34277C9.12367 9.25589 9.1941 9.18546 9.28098 9.18546H18.7192C18.8061 9.18546 18.8765 9.25589 18.8765 9.34277V10.9006C18.8764 10.9056 18.8764 10.9105 18.8764 10.9155C18.8764 10.9205 18.8764 10.9254 18.8765 10.9303V12.4888C18.8765 12.5757 18.8061 12.6461 18.7192 12.6461H9.28098C9.1941 12.6461 9.12367 12.5757 9.12367 12.4888V9.34277ZM21.7079 12.3312V12.4888C21.7079 14.1395 20.3698 15.4776 18.7192 15.4776H9.28098C7.63033 15.4776 6.29221 14.1395 6.29221 12.4888V12.3312H4.5618C4.10288 12.3312 3.66277 12.5135 3.33826 12.838C3.01376 13.1625 2.83146 13.6026 2.83146 14.0616V36.084C2.83146 36.5429 3.01376 36.9831 3.33826 37.3076C3.66277 37.6321 4.10288 37.8144 4.5618 37.8144H23.4382C23.8971 37.8144 24.3372 37.6321 24.6617 37.3076C24.9862 36.9831 25.1685 36.5429 25.1685 36.084V14.0616C25.1685 13.6026 24.9862 13.1625 24.6617 12.838C24.3372 12.5135 23.8971 12.3312 23.4382 12.3312H21.7079ZM6.29221 9.49976V9.34277C6.29221 7.69212 7.63033 6.354 9.28098 6.354H18.7192C20.3698 6.354 21.7079 7.69212 21.7079 9.34277V9.49976H23.4382C24.6481 9.49976 25.8084 9.98038 26.6639 10.8359C27.5194 11.6914 28 12.8517 28 14.0616V36.084C28 37.2939 27.5194 38.4542 26.6639 39.3097C25.8084 40.1652 24.6481 40.6458 23.4382 40.6458H4.5618C3.35193 40.6458 2.19162 40.1652 1.33612 39.3097C0.480617 38.4542 0 37.2939 0 36.084V14.0616C0 12.8517 0.480616 11.6914 1.33612 10.8359C2.19162 9.98038 3.35193 9.49976 4.5618 9.49976H6.29221Z" fill="#272B67"/>
</svg>
