<svg width="52" height="53" viewBox="0 0 52 53" fill="none" xmlns="http://www.w3.org/2000/svg">
<g clip-path="url(#clip0_404_6728)">
<path d="M49.3379 24.4719L43.3341 18.4681V52.5H41.1674V18.4681L35.1722 24.4633L33.6404 22.9314L39.9519 16.6178C41.2172 15.3503 43.2821 15.3503 44.5474 16.6178L50.8697 22.9401L49.3379 24.4719ZM24.9174 3.30145V17.8333H27.0841V3.30145L33.0879 9.30528L34.6197 7.77345L28.2996 1.45111C27.0342 0.183613 24.9694 0.183613 23.7041 1.45111L17.3926 7.76478L18.9244 9.29661L24.9196 3.30145H24.9174ZM18.3719 18.6068L12.0496 12.2844C10.7842 11.0169 8.71941 11.0169 7.45408 12.2844L1.14258 18.5981L2.67441 20.1299L8.66958 14.1348V52.5H10.8362V14.1348L16.8401 20.1386L18.3719 18.6068ZM29.2616 26.4999H27.0841V22.1666H24.9174V26.4999H22.7399C19.7586 26.4999 17.3341 28.9244 17.3341 31.9058C17.3341 34.3064 18.9461 36.4449 21.2557 37.1036L30.1499 39.6451C31.5344 40.0394 32.5007 41.3199 32.5007 42.7608C32.5007 44.5461 31.0469 46 29.2616 46H22.7399C20.9546 46 19.5007 44.5461 19.5007 42.7608V41.6666H17.3341V42.7608C17.3341 45.7421 19.7586 48.1666 22.7399 48.1666H24.9174V52.5H27.0841V48.1666H29.2616C32.2429 48.1666 34.6674 45.7421 34.6674 42.7608C34.6674 40.3601 33.0554 38.2216 30.7457 37.563L21.8516 35.0214C20.4671 34.6271 19.5007 33.3466 19.5007 31.9058C19.5007 30.1204 20.9546 28.6666 22.7399 28.6666H29.2616C31.0469 28.6666 32.5007 30.1204 32.5007 31.9058V32.9999H34.6674V31.9058C34.6674 28.9244 32.2429 26.4999 29.2616 26.4999Z" fill="#272B67"/>
</g>
<defs>
<clipPath id="clip0_404_6728">
<rect width="52" height="52" fill="white" transform="translate(0 0.5)"/>
</clipPath>
</defs>
</svg>
