<svg width="64" height="70" viewBox="0 0 64 70" fill="none" xmlns="http://www.w3.org/2000/svg">
<rect x="1" y="0.5" width="62" height="69" rx="11.5" stroke="#F1F3FA"/>
<path d="M21.7917 27.7077C21.7917 25.0003 22.8672 22.4038 24.7816 20.4894C26.6961 18.5749 29.2926 17.4994 32 17.4994C34.7074 17.4994 37.3039 18.5749 39.2184 20.4894C41.1328 22.4038 42.2083 25.0003 42.2083 27.7077C42.2083 28.0945 42.362 28.4654 42.6355 28.7389C42.909 29.0124 43.2799 29.1661 43.6667 29.1661C44.0534 29.1661 44.4244 29.0124 44.6979 28.7389C44.9714 28.4654 45.125 28.0945 45.125 27.7077C45.1248 25.4694 44.5522 23.2683 43.4615 21.3136C42.3709 19.3589 40.7984 17.7157 38.8937 16.54C36.9889 15.3644 34.8152 14.6954 32.579 14.5966C30.3428 14.4979 28.1186 14.9727 26.1176 15.9759C24.1166 16.9791 22.4055 18.4773 21.1468 20.3282C19.8881 22.1792 19.1237 24.3212 18.9262 26.5509C18.7287 28.7805 19.1047 31.0236 20.0185 33.0669C20.9322 35.1102 22.3534 36.886 24.1469 38.2252C25.6848 39.3741 27.456 40.1716 29.3356 40.5615C29.5967 41.1471 30.0435 41.6304 30.607 41.9366C31.1704 42.2427 31.819 42.3547 32.4524 42.2551C33.0858 42.1556 33.6688 41.85 34.1112 41.3858C34.5535 40.9216 34.8305 40.3245 34.8993 39.687C34.9682 39.0495 34.825 38.4071 34.492 37.8591C34.159 37.3111 33.6547 36.8882 33.0571 36.6557C32.4596 36.4232 31.802 36.3941 31.1862 36.5729C30.5704 36.7517 30.0307 37.1284 29.6506 37.6448C27.4129 37.1156 25.4195 35.8465 23.9931 34.0429C22.5667 32.2394 21.791 30.0071 21.7917 27.7077ZM23.25 27.7077C23.2506 26.098 23.6952 24.5196 24.5349 23.1463C25.3746 21.773 26.5769 20.6579 28.0095 19.9238C29.4421 19.1896 31.0494 18.8649 32.6546 18.9854C34.2598 19.1058 35.8007 19.6667 37.1077 20.6064C38.4147 21.546 39.4372 22.828 40.0626 24.3113C40.688 25.7945 40.8921 27.4216 40.6525 29.0134C40.4129 30.6052 39.7388 32.1 38.7044 33.3334C37.6701 34.5668 36.3155 35.491 34.7898 36.0042C34.0052 35.3547 33.0185 34.9994 32 34.9994C30.9398 34.9994 29.9685 35.3771 29.2102 36.0042C27.473 35.4198 25.9631 34.3046 24.8937 32.816C23.8243 31.3275 23.2493 29.5406 23.25 27.7077ZM32 43.7494C32.7001 43.7498 33.3901 43.5821 34.012 43.2605C34.6338 42.9389 35.1694 42.4728 35.5738 41.9012C35.9782 41.3297 36.2395 40.6695 36.3357 39.976C36.432 39.2826 36.3605 38.5761 36.1271 37.9161H44.3958C45.7495 37.9161 47.0478 38.4538 48.005 39.411C48.9622 40.3683 49.5 41.6665 49.5 43.0202V43.7494C49.5 47.2392 47.279 50.1909 44.126 52.1975C40.9556 54.2159 36.6637 55.4161 32 55.4161C27.3363 55.4161 23.0458 54.2159 19.874 52.1975C16.721 50.1909 14.5 47.2392 14.5 43.7494V43.0202C14.5 41.6665 15.0378 40.3683 15.995 39.411C16.9522 38.4538 18.2505 37.9161 19.6042 37.9161H21.586C23.4512 39.8205 25.8026 41.1773 28.3848 41.839C29.1723 42.9925 30.4994 43.7494 32 43.7494Z" fill="#272B67"/>
</svg>
